%TF.GenerationSoftware,KiCad,Pcbnew,9.0.1*%
%TF.CreationDate,2025-04-29T17:49:49+02:00*%
%TF.ProjectId,Projet S6,50726f6a-6574-4205-9336-2e6b69636164,rev?*%
%TF.SameCoordinates,Original*%
%TF.FileFunction,Copper,L2,Bot*%
%TF.FilePolarity,Positive*%
%FSLAX46Y46*%
G04 Gerber Fmt 4.6, Leading zero omitted, Abs format (unit mm)*
G04 Created by KiCad (PCBNEW 9.0.1) date 2025-04-29 17:49:49*
%MOMM*%
%LPD*%
G01*
G04 APERTURE LIST*
G04 Aperture macros list*
%AMRoundRect*
0 Rectangle with rounded corners*
0 $1 Rounding radius*
0 $2 $3 $4 $5 $6 $7 $8 $9 X,Y pos of 4 corners*
0 Add a 4 corners polygon primitive as box body*
4,1,4,$2,$3,$4,$5,$6,$7,$8,$9,$2,$3,0*
0 Add four circle primitives for the rounded corners*
1,1,$1+$1,$2,$3*
1,1,$1+$1,$4,$5*
1,1,$1+$1,$6,$7*
1,1,$1+$1,$8,$9*
0 Add four rect primitives between the rounded corners*
20,1,$1+$1,$2,$3,$4,$5,0*
20,1,$1+$1,$4,$5,$6,$7,0*
20,1,$1+$1,$6,$7,$8,$9,0*
20,1,$1+$1,$8,$9,$2,$3,0*%
G04 Aperture macros list end*
%TA.AperFunction,ComponentPad*%
%ADD10R,1.530000X1.530000*%
%TD*%
%TA.AperFunction,ComponentPad*%
%ADD11C,1.530000*%
%TD*%
%TA.AperFunction,ComponentPad*%
%ADD12RoundRect,0.250000X0.750000X-0.600000X0.750000X0.600000X-0.750000X0.600000X-0.750000X-0.600000X0*%
%TD*%
%TA.AperFunction,ComponentPad*%
%ADD13O,2.000000X1.700000*%
%TD*%
%TA.AperFunction,ComponentPad*%
%ADD14R,1.700000X1.700000*%
%TD*%
%TA.AperFunction,ComponentPad*%
%ADD15C,1.700000*%
%TD*%
%TA.AperFunction,ViaPad*%
%ADD16C,1.200000*%
%TD*%
%TA.AperFunction,Conductor*%
%ADD17C,0.300000*%
%TD*%
G04 APERTURE END LIST*
D10*
%TO.P,Nucleo2,3_1,PA9*%
%TO.N,LED 8*%
X179560000Y-62380000D03*
D11*
%TO.P,Nucleo2,3_2,PA10*%
%TO.N,LED 9*%
X177020000Y-62380000D03*
%TO.P,Nucleo2,3_3,NRST*%
%TO.N,unconnected-(Nucleo2-NRST-Pad3_3)*%
X174480000Y-62380000D03*
%TO.P,Nucleo2,3_4,GND*%
%TO.N,GND*%
X171940000Y-62380000D03*
%TO.P,Nucleo2,3_5,PA12*%
%TO.N,unconnected-(Nucleo2-PA12-Pad3_5)*%
X169400000Y-62380000D03*
%TO.P,Nucleo2,3_6,PB0*%
%TO.N,unconnected-(Nucleo2-PB0-Pad3_6)*%
X166860000Y-62380000D03*
%TO.P,Nucleo2,3_7,PB7*%
%TO.N,unconnected-(Nucleo2-PB7-Pad3_7)*%
X164320000Y-62380000D03*
%TO.P,Nucleo2,3_8,PA15*%
%TO.N,unconnected-(Nucleo2-PA15-Pad3_8)*%
X161780000Y-62380000D03*
%TO.P,Nucleo2,3_9,PB6*%
%TO.N,unconnected-(Nucleo2-PB6-Pad3_9)*%
X159240000Y-62380000D03*
%TO.P,Nucleo2,3_10,PF0*%
%TO.N,unconnected-(Nucleo2-PF0-Pad3_10)*%
X156700000Y-62380000D03*
%TO.P,Nucleo2,3_11,PF1*%
%TO.N,unconnected-(Nucleo2-PF1-Pad3_11)*%
X154160000Y-62380000D03*
%TO.P,Nucleo2,3_12,PA8*%
%TO.N,LED 10*%
X151620000Y-62380000D03*
%TO.P,Nucleo2,3_13,PA11*%
%TO.N,LED 11*%
X149080000Y-62380000D03*
%TO.P,Nucleo2,3_14,PB5*%
%TO.N,unconnected-(Nucleo2-PB5-Pad3_14)*%
X146540000Y-62380000D03*
%TO.P,Nucleo2,3_15,PB4*%
%TO.N,unconnected-(Nucleo2-PB4-Pad3_15)*%
X144000000Y-62380000D03*
D10*
%TO.P,Nucleo2,4_1,VIN*%
%TO.N,+7.5V*%
X179560000Y-77620000D03*
D11*
%TO.P,Nucleo2,4_2,GND*%
%TO.N,unconnected-(Nucleo2-GND-Pad4_2)*%
X177020000Y-77620000D03*
%TO.P,Nucleo2,4_3*%
%TO.N,N/C*%
X174480000Y-77620000D03*
%TO.P,Nucleo2,4_4,+5V*%
%TO.N,unconnected-(Nucleo2-+5V-Pad4_4)*%
X171940000Y-77620000D03*
%TO.P,Nucleo2,4_5,PA2*%
%TO.N,LED 1*%
X169400000Y-77620000D03*
%TO.P,Nucleo2,4_6,PA7*%
%TO.N,LED 2*%
X166860000Y-77620000D03*
%TO.P,Nucleo2,4_7,PA6*%
%TO.N,LED 7*%
X164320000Y-77620000D03*
%TO.P,Nucleo2,4_8,PA5*%
%TO.N,LED 6*%
X161780000Y-77620000D03*
%TO.P,Nucleo2,4_9,PA4*%
%TO.N,LED 5*%
X159240000Y-77620000D03*
%TO.P,Nucleo2,4_10,PA3*%
%TO.N,LED 4*%
X156700000Y-77620000D03*
%TO.P,Nucleo2,4_11,PA1*%
%TO.N,LED 3*%
X154160000Y-77620000D03*
%TO.P,Nucleo2,4_12,PA0*%
%TO.N,DO*%
X151620000Y-77620000D03*
%TO.P,Nucleo2,4_13,AVDD*%
%TO.N,unconnected-(Nucleo2-AVDD-Pad4_13)*%
X149080000Y-77620000D03*
%TO.P,Nucleo2,4_14,+3V3*%
%TO.N,Alim Hall*%
X146540000Y-77620000D03*
%TO.P,Nucleo2,4_15,PB3*%
%TO.N,unconnected-(Nucleo2-PB3-Pad4_15)*%
X144000000Y-77620000D03*
%TD*%
D12*
%TO.P,J101,1,Pin_1*%
%TO.N,GND*%
X157000000Y-71250000D03*
D13*
%TO.P,J101,2,Pin_2*%
%TO.N,+7.5V*%
X157000000Y-68750000D03*
%TD*%
D14*
%TO.P,J3,1,Pin_1*%
%TO.N,unconnected-(J3-Pin_1-Pad1)*%
X170000000Y-73810000D03*
D15*
%TO.P,J3,2,Pin_2*%
%TO.N,GND*%
X170000000Y-71270000D03*
%TO.P,J3,3,Pin_3*%
%TO.N,Alim Hall*%
X170000000Y-68730000D03*
%TO.P,J3,4,Pin_4*%
%TO.N,DO*%
X170000000Y-66190000D03*
%TD*%
D16*
%TO.N,GND*%
X75000000Y-73000000D03*
X51200000Y-70100000D03*
X165500000Y-66900000D03*
X93000000Y-73000000D03*
X141800000Y-61500000D03*
X97400000Y-78900000D03*
X81000000Y-73000000D03*
X58100000Y-73000000D03*
X131900000Y-79100000D03*
X69000000Y-73000000D03*
X56600000Y-64900000D03*
X135400000Y-66500000D03*
X125600000Y-67800000D03*
X179600000Y-75300000D03*
X179800000Y-64800000D03*
X99000000Y-73000000D03*
X105000000Y-73000000D03*
X87100000Y-73000000D03*
X137900000Y-75700000D03*
X91500000Y-63000000D03*
X135600000Y-77700000D03*
X165200000Y-74300000D03*
X170600000Y-79100000D03*
X128200000Y-65900000D03*
X86600000Y-76500000D03*
X117000000Y-73000000D03*
X141800000Y-77500000D03*
X111000000Y-73000000D03*
X124700000Y-71800000D03*
X141600000Y-72400000D03*
X121000000Y-78800000D03*
X108500000Y-78900000D03*
X133000000Y-61000000D03*
X172400000Y-69600000D03*
%TD*%
D17*
%TO.N,DO*%
X151620000Y-75580000D02*
X151620000Y-77620000D01*
X153100000Y-74100000D02*
X151620000Y-75580000D01*
X170000000Y-66190000D02*
X162090000Y-74100000D01*
X162090000Y-74100000D02*
X153100000Y-74100000D01*
%TO.N,Alim Hall*%
X161801000Y-73599000D02*
X147501000Y-73599000D01*
X167000000Y-68400000D02*
X161801000Y-73599000D01*
X147501000Y-73599000D02*
X146540000Y-74560000D01*
X170000000Y-68730000D02*
X171900000Y-66830000D01*
X146540000Y-74560000D02*
X146540000Y-77620000D01*
X168700000Y-64400000D02*
X167000000Y-66100000D01*
X167000000Y-66100000D02*
X167000000Y-68400000D01*
X171900000Y-65100000D02*
X171200000Y-64400000D01*
X171900000Y-66830000D02*
X171900000Y-65100000D01*
X171200000Y-64400000D02*
X168700000Y-64400000D01*
%TD*%
%TA.AperFunction,Conductor*%
%TO.N,GND*%
G36*
X188002724Y-60250617D02*
G01*
X188408559Y-60268337D01*
X188419293Y-60269277D01*
X188819386Y-60321950D01*
X188830010Y-60323823D01*
X189223993Y-60411167D01*
X189234405Y-60413956D01*
X189619279Y-60535307D01*
X189629414Y-60538996D01*
X190002232Y-60693423D01*
X190012024Y-60697989D01*
X190369942Y-60884309D01*
X190379310Y-60889717D01*
X190719638Y-61106530D01*
X190728499Y-61112735D01*
X191048627Y-61358378D01*
X191056914Y-61365332D01*
X191354412Y-61637938D01*
X191362061Y-61645587D01*
X191634667Y-61943085D01*
X191641621Y-61951372D01*
X191887264Y-62271500D01*
X191893469Y-62280361D01*
X192110282Y-62620689D01*
X192115690Y-62630057D01*
X192302007Y-62987969D01*
X192306579Y-62997773D01*
X192344686Y-63089770D01*
X192449731Y-63343373D01*
X192460997Y-63370570D01*
X192464696Y-63380733D01*
X192580968Y-63749500D01*
X192586037Y-63765575D01*
X192588836Y-63776022D01*
X192602105Y-63835876D01*
X192676173Y-64169977D01*
X192678051Y-64180629D01*
X192730720Y-64580683D01*
X192731663Y-64591460D01*
X192747324Y-64950172D01*
X192749382Y-64997297D01*
X192749500Y-65002706D01*
X192749500Y-74997293D01*
X192749382Y-75002702D01*
X192731663Y-75408539D01*
X192730720Y-75419316D01*
X192678051Y-75819370D01*
X192676173Y-75830022D01*
X192588837Y-76223974D01*
X192586037Y-76234424D01*
X192464697Y-76619264D01*
X192460997Y-76629429D01*
X192306579Y-77002226D01*
X192302007Y-77012030D01*
X192115690Y-77369942D01*
X192110282Y-77379310D01*
X191893469Y-77719638D01*
X191887264Y-77728499D01*
X191641621Y-78048627D01*
X191634667Y-78056914D01*
X191362061Y-78354412D01*
X191354412Y-78362061D01*
X191056914Y-78634667D01*
X191048627Y-78641621D01*
X190728499Y-78887264D01*
X190719638Y-78893469D01*
X190379310Y-79110282D01*
X190369942Y-79115690D01*
X190012030Y-79302007D01*
X190002226Y-79306579D01*
X189629429Y-79460997D01*
X189619264Y-79464697D01*
X189234424Y-79586037D01*
X189223974Y-79588837D01*
X188830022Y-79676173D01*
X188819370Y-79678051D01*
X188419316Y-79730720D01*
X188408539Y-79731663D01*
X188002703Y-79749382D01*
X187997294Y-79749500D01*
X98005710Y-79749500D01*
X98001922Y-79749442D01*
X97380977Y-79730466D01*
X97374358Y-79730087D01*
X96650512Y-79669121D01*
X96644918Y-79668521D01*
X95794899Y-79557912D01*
X95790206Y-79557210D01*
X94790987Y-79388080D01*
X94787095Y-79387357D01*
X93605589Y-79148345D01*
X93602434Y-79147664D01*
X92183818Y-78822044D01*
X92181400Y-78821464D01*
X90414063Y-78378315D01*
X90412552Y-78377926D01*
X87950098Y-77727440D01*
X87950103Y-77727419D01*
X87949946Y-77727399D01*
X86620739Y-77374474D01*
X86620737Y-77374474D01*
X86608533Y-77371233D01*
X86607953Y-77370795D01*
X86560549Y-77358491D01*
X86560222Y-77358405D01*
X86560171Y-77358392D01*
X86503442Y-77343330D01*
X86500020Y-77342782D01*
X85245591Y-77017217D01*
X85232947Y-77013935D01*
X85231777Y-77013072D01*
X85184694Y-77001412D01*
X85184024Y-77001238D01*
X85130497Y-76987346D01*
X85123802Y-76986332D01*
X83898753Y-76682961D01*
X83898753Y-76682962D01*
X83885535Y-76679689D01*
X83883671Y-76678365D01*
X83837261Y-76667735D01*
X83791023Y-76656285D01*
X83791022Y-76656285D01*
X83785841Y-76655002D01*
X83775491Y-76653586D01*
X82594255Y-76383038D01*
X82594254Y-76383038D01*
X82580208Y-76379820D01*
X82577468Y-76377977D01*
X82531815Y-76368736D01*
X82530236Y-76368375D01*
X82530235Y-76368374D01*
X82483571Y-76357688D01*
X82468901Y-76356005D01*
X81346113Y-76128771D01*
X81346113Y-76128770D01*
X81331991Y-76125912D01*
X81329212Y-76124143D01*
X81283271Y-76116053D01*
X81281712Y-76115737D01*
X81234785Y-76106241D01*
X81220131Y-76104935D01*
X80745327Y-76021332D01*
X80739266Y-76020264D01*
X80731599Y-76018914D01*
X80729275Y-76017503D01*
X80682693Y-76010302D01*
X80681357Y-76010067D01*
X80681346Y-76010066D01*
X80639477Y-76002695D01*
X80636132Y-76002106D01*
X80636131Y-76002106D01*
X80631962Y-76001372D01*
X80619702Y-76000565D01*
X80165150Y-75930305D01*
X80165150Y-75930304D01*
X80150992Y-75928116D01*
X80148216Y-75926522D01*
X80101892Y-75920528D01*
X80100358Y-75920291D01*
X80052676Y-75912921D01*
X80038355Y-75912307D01*
X79605655Y-75856324D01*
X79605655Y-75856323D01*
X79590948Y-75854420D01*
X79587612Y-75852632D01*
X79541671Y-75848046D01*
X79534001Y-75847053D01*
X79494193Y-75841903D01*
X79477460Y-75841637D01*
X79068423Y-75800812D01*
X79053008Y-75799273D01*
X79048977Y-75797289D01*
X79003597Y-75794342D01*
X79001452Y-75794128D01*
X79001451Y-75794127D01*
X78958142Y-75789805D01*
X78938552Y-75790118D01*
X78555018Y-75765214D01*
X78538652Y-75764151D01*
X78533752Y-75761986D01*
X78489141Y-75760935D01*
X78486588Y-75760770D01*
X78486556Y-75760769D01*
X78460907Y-75759104D01*
X78444555Y-75758043D01*
X78444554Y-75758043D01*
X78444551Y-75758043D01*
X78442253Y-75758347D01*
X78423090Y-75759382D01*
X78066850Y-75751003D01*
X78066850Y-75751002D01*
X78052649Y-75750668D01*
X78049828Y-75749500D01*
X78002929Y-75749500D01*
X78001482Y-75749466D01*
X77952664Y-75748317D01*
X77939022Y-75749500D01*
X56002487Y-75749500D01*
X55997494Y-75749399D01*
X55542357Y-75731057D01*
X55532403Y-75730254D01*
X55082672Y-75675646D01*
X55072816Y-75674044D01*
X54628949Y-75583429D01*
X54619253Y-75581039D01*
X54184119Y-75455000D01*
X54174647Y-75451838D01*
X53751062Y-75291194D01*
X53741875Y-75287280D01*
X53332585Y-75093069D01*
X53323743Y-75088428D01*
X52931417Y-74861919D01*
X52922977Y-74856582D01*
X52831046Y-74793127D01*
X52550140Y-74599232D01*
X52542159Y-74593234D01*
X52422984Y-74495931D01*
X52191239Y-74306717D01*
X52183782Y-74300111D01*
X51857044Y-73986274D01*
X51850129Y-73979074D01*
X51549726Y-73639989D01*
X51543410Y-73632254D01*
X51271259Y-73270087D01*
X51265586Y-73261869D01*
X51159256Y-73093722D01*
X51023457Y-72878972D01*
X51018465Y-72870326D01*
X51009118Y-72852516D01*
X50807921Y-72469169D01*
X50803654Y-72460174D01*
X50626087Y-72043408D01*
X50622545Y-72034071D01*
X50479082Y-71604346D01*
X50476304Y-71594754D01*
X50438898Y-71442993D01*
X50367885Y-71154883D01*
X50365891Y-71145110D01*
X50354823Y-71077007D01*
X50293221Y-70697957D01*
X50292018Y-70688049D01*
X50284912Y-70600028D01*
X50255565Y-70236488D01*
X50255163Y-70226510D01*
X50255163Y-69893713D01*
X128649500Y-69893713D01*
X128649500Y-70106287D01*
X128650209Y-70110763D01*
X128668541Y-70226510D01*
X128682754Y-70316243D01*
X128741586Y-70497309D01*
X128748444Y-70518414D01*
X128844951Y-70707820D01*
X128969890Y-70879786D01*
X129120213Y-71030109D01*
X129292179Y-71155048D01*
X129292181Y-71155049D01*
X129292184Y-71155051D01*
X129481588Y-71251557D01*
X129683757Y-71317246D01*
X129893713Y-71350500D01*
X129893714Y-71350500D01*
X130106286Y-71350500D01*
X130106287Y-71350500D01*
X130316243Y-71317246D01*
X130518412Y-71251557D01*
X130707816Y-71155051D01*
X130729789Y-71139086D01*
X130879786Y-71030109D01*
X130879788Y-71030106D01*
X130879792Y-71030104D01*
X131030104Y-70879792D01*
X131030106Y-70879788D01*
X131030109Y-70879786D01*
X131155048Y-70707820D01*
X131155047Y-70707820D01*
X131155051Y-70707816D01*
X131251557Y-70518412D01*
X131317246Y-70316243D01*
X131350500Y-70106287D01*
X131350500Y-69893713D01*
X131317246Y-69683757D01*
X131251557Y-69481588D01*
X131155051Y-69292184D01*
X131155049Y-69292181D01*
X131155048Y-69292179D01*
X131030109Y-69120213D01*
X130879786Y-68969890D01*
X130707820Y-68844951D01*
X130520145Y-68749326D01*
X130520144Y-68749325D01*
X130520143Y-68749325D01*
X130518413Y-68748443D01*
X130413241Y-68714270D01*
X130316243Y-68682754D01*
X130316241Y-68682753D01*
X130316240Y-68682753D01*
X130154957Y-68657208D01*
X130106287Y-68649500D01*
X129893713Y-68649500D01*
X129845042Y-68657208D01*
X129683760Y-68682753D01*
X129481585Y-68748444D01*
X129292179Y-68844951D01*
X129120213Y-68969890D01*
X128969890Y-69120213D01*
X128844951Y-69292179D01*
X128748444Y-69481585D01*
X128682753Y-69683760D01*
X128667955Y-69777191D01*
X128649500Y-69893713D01*
X50255163Y-69893713D01*
X50255163Y-69773489D01*
X50255565Y-69763511D01*
X50278324Y-69481585D01*
X50292018Y-69311942D01*
X50293222Y-69302037D01*
X50365894Y-68854873D01*
X50367884Y-68845120D01*
X50417526Y-68643713D01*
X155499500Y-68643713D01*
X155499500Y-68856286D01*
X155529585Y-69046239D01*
X155532754Y-69066243D01*
X155597258Y-69264766D01*
X155598444Y-69268414D01*
X155694951Y-69457820D01*
X155819890Y-69629786D01*
X155959068Y-69768964D01*
X155992553Y-69830287D01*
X155987569Y-69899979D01*
X155945697Y-69955912D01*
X155936484Y-69962183D01*
X155781659Y-70057680D01*
X155781655Y-70057683D01*
X155657684Y-70181654D01*
X155565643Y-70330875D01*
X155565641Y-70330880D01*
X155510494Y-70497302D01*
X155510493Y-70497309D01*
X155500000Y-70600013D01*
X155500000Y-71000000D01*
X156566988Y-71000000D01*
X156534075Y-71057007D01*
X156500000Y-71184174D01*
X156500000Y-71315826D01*
X156534075Y-71442993D01*
X156566988Y-71500000D01*
X155500001Y-71500000D01*
X155500001Y-71899986D01*
X155510494Y-72002697D01*
X155565641Y-72169119D01*
X155565643Y-72169124D01*
X155657684Y-72318345D01*
X155781654Y-72442315D01*
X155930875Y-72534356D01*
X155930880Y-72534358D01*
X156097302Y-72589505D01*
X156097309Y-72589506D01*
X156200019Y-72599999D01*
X156749999Y-72599999D01*
X156750000Y-72599998D01*
X156750000Y-71683012D01*
X156807007Y-71715925D01*
X156934174Y-71750000D01*
X157065826Y-71750000D01*
X157192993Y-71715925D01*
X157250000Y-71683012D01*
X157250000Y-72599999D01*
X157799972Y-72599999D01*
X157799986Y-72599998D01*
X157902697Y-72589505D01*
X158069119Y-72534358D01*
X158069124Y-72534356D01*
X158218345Y-72442315D01*
X158342315Y-72318345D01*
X158434356Y-72169124D01*
X158434358Y-72169119D01*
X158489505Y-72002697D01*
X158489506Y-72002690D01*
X158499999Y-71899986D01*
X158500000Y-71899973D01*
X158500000Y-71500000D01*
X157433012Y-71500000D01*
X157465925Y-71442993D01*
X157500000Y-71315826D01*
X157500000Y-71184174D01*
X157465925Y-71057007D01*
X157433012Y-71000000D01*
X158499999Y-71000000D01*
X158499999Y-70600028D01*
X158499998Y-70600013D01*
X158489505Y-70497302D01*
X158434358Y-70330880D01*
X158434356Y-70330875D01*
X158342315Y-70181654D01*
X158218345Y-70057684D01*
X158063515Y-69962184D01*
X158016791Y-69910236D01*
X158005568Y-69841273D01*
X158033412Y-69777191D01*
X158040909Y-69768986D01*
X158180104Y-69629792D01*
X158305051Y-69457816D01*
X158401557Y-69268412D01*
X158467246Y-69066243D01*
X158500500Y-68856287D01*
X158500500Y-68643713D01*
X158467246Y-68433757D01*
X158401557Y-68231588D01*
X158305051Y-68042184D01*
X158305049Y-68042181D01*
X158305048Y-68042179D01*
X158180109Y-67870213D01*
X158029786Y-67719890D01*
X157857820Y-67594951D01*
X157668414Y-67498444D01*
X157668413Y-67498443D01*
X157668412Y-67498443D01*
X157466243Y-67432754D01*
X157466241Y-67432753D01*
X157466240Y-67432753D01*
X157304957Y-67407208D01*
X157256287Y-67399500D01*
X156743713Y-67399500D01*
X156695042Y-67407208D01*
X156533760Y-67432753D01*
X156331585Y-67498444D01*
X156142179Y-67594951D01*
X155970213Y-67719890D01*
X155819890Y-67870213D01*
X155694951Y-68042179D01*
X155598444Y-68231585D01*
X155532753Y-68433760D01*
X155499500Y-68643713D01*
X50417526Y-68643713D01*
X50476304Y-68405242D01*
X50479082Y-68395653D01*
X50622545Y-67965928D01*
X50626087Y-67956591D01*
X50803659Y-67539815D01*
X50807917Y-67530840D01*
X51018471Y-67129660D01*
X51023450Y-67121038D01*
X51265594Y-66738117D01*
X51271249Y-66729925D01*
X51543418Y-66367734D01*
X51549716Y-66360021D01*
X51850143Y-66020910D01*
X51857032Y-66013737D01*
X52183796Y-65699875D01*
X52191224Y-65693294D01*
X52542177Y-65406751D01*
X52550124Y-65400779D01*
X52922999Y-65143402D01*
X52931394Y-65138094D01*
X53323752Y-64911565D01*
X53332575Y-64906935D01*
X53741884Y-64712715D01*
X53751053Y-64708808D01*
X54174649Y-64548160D01*
X54184119Y-64544999D01*
X54193589Y-64542256D01*
X54619274Y-64418954D01*
X54628928Y-64416575D01*
X55072819Y-64325954D01*
X55082669Y-64324353D01*
X55532415Y-64269743D01*
X55542344Y-64268943D01*
X55997494Y-64250601D01*
X56002487Y-64250500D01*
X56044170Y-64250500D01*
X77953229Y-64250500D01*
X77956077Y-64251602D01*
X78002927Y-64250500D01*
X78049828Y-64250500D01*
X78053236Y-64250500D01*
X78066851Y-64248995D01*
X78439481Y-64240231D01*
X78444555Y-64241957D01*
X78489107Y-64239064D01*
X78533752Y-64238014D01*
X78533756Y-64238012D01*
X78536008Y-64237509D01*
X78555016Y-64234784D01*
X78954017Y-64208876D01*
X78958320Y-64210176D01*
X79003580Y-64205658D01*
X79048977Y-64202711D01*
X79048978Y-64202710D01*
X79049169Y-64202698D01*
X79068419Y-64199186D01*
X79492219Y-64156888D01*
X79495878Y-64157878D01*
X79541671Y-64151953D01*
X79587612Y-64147368D01*
X79587612Y-64147367D01*
X79589302Y-64147199D01*
X79605659Y-64143674D01*
X80052563Y-64085853D01*
X80055680Y-64086614D01*
X80101876Y-64079473D01*
X80148216Y-64073478D01*
X80148219Y-64073476D01*
X80151243Y-64073085D01*
X80165147Y-64069693D01*
X80633476Y-63997304D01*
X80636132Y-63997894D01*
X80682620Y-63989708D01*
X80729275Y-63982497D01*
X80729276Y-63982496D01*
X80733457Y-63981850D01*
X80745332Y-63978666D01*
X81234315Y-63892566D01*
X81237552Y-63893199D01*
X81283271Y-63883946D01*
X81329212Y-63875857D01*
X81329212Y-63875856D01*
X81331999Y-63875366D01*
X81346115Y-63871227D01*
X82483033Y-63641134D01*
X82486297Y-63641687D01*
X82531787Y-63631268D01*
X82533329Y-63630956D01*
X82580218Y-63621467D01*
X82594262Y-63616958D01*
X83788760Y-63343373D01*
X83791023Y-63343715D01*
X83837261Y-63332264D01*
X83838322Y-63332021D01*
X83838323Y-63332021D01*
X83858831Y-63327323D01*
X83883671Y-63321635D01*
X83883671Y-63321634D01*
X83888883Y-63320441D01*
X83898750Y-63317037D01*
X85136455Y-63010533D01*
X85137893Y-63010734D01*
X85184694Y-62998587D01*
X85231777Y-62986928D01*
X85231778Y-62986926D01*
X85239225Y-62985083D01*
X85245597Y-62982779D01*
X86512198Y-62654056D01*
X86512920Y-62654153D01*
X86560357Y-62641557D01*
X86607953Y-62629205D01*
X86607954Y-62629203D01*
X86617522Y-62626721D01*
X86620769Y-62625516D01*
X87920555Y-62280403D01*
X142734500Y-62280403D01*
X142734500Y-62479596D01*
X142765661Y-62676340D01*
X142765661Y-62676343D01*
X142827213Y-62865780D01*
X142894467Y-62997773D01*
X142917647Y-63043266D01*
X143034731Y-63204418D01*
X143175582Y-63345269D01*
X143336734Y-63462353D01*
X143464575Y-63527491D01*
X143514219Y-63552786D01*
X143703657Y-63614338D01*
X143703658Y-63614338D01*
X143703661Y-63614339D01*
X143900403Y-63645500D01*
X143900404Y-63645500D01*
X144099596Y-63645500D01*
X144099597Y-63645500D01*
X144296339Y-63614339D01*
X144296342Y-63614338D01*
X144296343Y-63614338D01*
X144485780Y-63552786D01*
X144485780Y-63552785D01*
X144485783Y-63552785D01*
X144663266Y-63462353D01*
X144824418Y-63345269D01*
X144965269Y-63204418D01*
X145082353Y-63043266D01*
X145159515Y-62891827D01*
X145207490Y-62841031D01*
X145275311Y-62824236D01*
X145341446Y-62846773D01*
X145380485Y-62891827D01*
X145457647Y-63043266D01*
X145574731Y-63204418D01*
X145715582Y-63345269D01*
X145876734Y-63462353D01*
X146004575Y-63527491D01*
X146054219Y-63552786D01*
X146243657Y-63614338D01*
X146243658Y-63614338D01*
X146243661Y-63614339D01*
X146440403Y-63645500D01*
X146440404Y-63645500D01*
X146639596Y-63645500D01*
X146639597Y-63645500D01*
X146836339Y-63614339D01*
X146836342Y-63614338D01*
X146836343Y-63614338D01*
X147025780Y-63552786D01*
X147025780Y-63552785D01*
X147025783Y-63552785D01*
X147203266Y-63462353D01*
X147364418Y-63345269D01*
X147505269Y-63204418D01*
X147622353Y-63043266D01*
X147699515Y-62891827D01*
X147747490Y-62841031D01*
X147815311Y-62824236D01*
X147881446Y-62846773D01*
X147920485Y-62891827D01*
X147997647Y-63043266D01*
X148114731Y-63204418D01*
X148255582Y-63345269D01*
X148416734Y-63462353D01*
X148544575Y-63527491D01*
X148594219Y-63552786D01*
X148783657Y-63614338D01*
X148783658Y-63614338D01*
X148783661Y-63614339D01*
X148980403Y-63645500D01*
X148980404Y-63645500D01*
X149179596Y-63645500D01*
X149179597Y-63645500D01*
X149376339Y-63614339D01*
X149376342Y-63614338D01*
X149376343Y-63614338D01*
X149565780Y-63552786D01*
X149565780Y-63552785D01*
X149565783Y-63552785D01*
X149743266Y-63462353D01*
X149904418Y-63345269D01*
X150045269Y-63204418D01*
X150162353Y-63043266D01*
X150239515Y-62891827D01*
X150287490Y-62841031D01*
X150355311Y-62824236D01*
X150421446Y-62846773D01*
X150460485Y-62891827D01*
X150537647Y-63043266D01*
X150654731Y-63204418D01*
X150795582Y-63345269D01*
X150956734Y-63462353D01*
X151084575Y-63527491D01*
X151134219Y-63552786D01*
X151323657Y-63614338D01*
X151323658Y-63614338D01*
X151323661Y-63614339D01*
X151520403Y-63645500D01*
X151520404Y-63645500D01*
X151719596Y-63645500D01*
X151719597Y-63645500D01*
X151916339Y-63614339D01*
X151916342Y-63614338D01*
X151916343Y-63614338D01*
X152105780Y-63552786D01*
X152105780Y-63552785D01*
X152105783Y-63552785D01*
X152283266Y-63462353D01*
X152444418Y-63345269D01*
X152585269Y-63204418D01*
X152702353Y-63043266D01*
X152779515Y-62891827D01*
X152827490Y-62841031D01*
X152895311Y-62824236D01*
X152961446Y-62846773D01*
X153000485Y-62891827D01*
X153077647Y-63043266D01*
X153194731Y-63204418D01*
X153335582Y-63345269D01*
X153496734Y-63462353D01*
X153624575Y-63527491D01*
X153674219Y-63552786D01*
X153863657Y-63614338D01*
X153863658Y-63614338D01*
X153863661Y-63614339D01*
X154060403Y-63645500D01*
X154060404Y-63645500D01*
X154259596Y-63645500D01*
X154259597Y-63645500D01*
X154456339Y-63614339D01*
X154456342Y-63614338D01*
X154456343Y-63614338D01*
X154645780Y-63552786D01*
X154645780Y-63552785D01*
X154645783Y-63552785D01*
X154823266Y-63462353D01*
X154984418Y-63345269D01*
X155125269Y-63204418D01*
X155242353Y-63043266D01*
X155319515Y-62891827D01*
X155367490Y-62841031D01*
X155435311Y-62824236D01*
X155501446Y-62846773D01*
X155540485Y-62891827D01*
X155617647Y-63043266D01*
X155734731Y-63204418D01*
X155875582Y-63345269D01*
X156036734Y-63462353D01*
X156164575Y-63527491D01*
X156214219Y-63552786D01*
X156403657Y-63614338D01*
X156403658Y-63614338D01*
X156403661Y-63614339D01*
X156600403Y-63645500D01*
X156600404Y-63645500D01*
X156799596Y-63645500D01*
X156799597Y-63645500D01*
X156996339Y-63614339D01*
X156996342Y-63614338D01*
X156996343Y-63614338D01*
X157185780Y-63552786D01*
X157185780Y-63552785D01*
X157185783Y-63552785D01*
X157363266Y-63462353D01*
X157524418Y-63345269D01*
X157665269Y-63204418D01*
X157782353Y-63043266D01*
X157859515Y-62891827D01*
X157907490Y-62841031D01*
X157975311Y-62824236D01*
X158041446Y-62846773D01*
X158080485Y-62891827D01*
X158157647Y-63043266D01*
X158274731Y-63204418D01*
X158415582Y-63345269D01*
X158576734Y-63462353D01*
X158704575Y-63527491D01*
X158754219Y-63552786D01*
X158943657Y-63614338D01*
X158943658Y-63614338D01*
X158943661Y-63614339D01*
X159140403Y-63645500D01*
X159140404Y-63645500D01*
X159339596Y-63645500D01*
X159339597Y-63645500D01*
X159536339Y-63614339D01*
X159536342Y-63614338D01*
X159536343Y-63614338D01*
X159725780Y-63552786D01*
X159725780Y-63552785D01*
X159725783Y-63552785D01*
X159903266Y-63462353D01*
X160064418Y-63345269D01*
X160205269Y-63204418D01*
X160322353Y-63043266D01*
X160399515Y-62891827D01*
X160447490Y-62841031D01*
X160515311Y-62824236D01*
X160581446Y-62846773D01*
X160620485Y-62891827D01*
X160697647Y-63043266D01*
X160814731Y-63204418D01*
X160955582Y-63345269D01*
X161116734Y-63462353D01*
X161244575Y-63527491D01*
X161294219Y-63552786D01*
X161483657Y-63614338D01*
X161483658Y-63614338D01*
X161483661Y-63614339D01*
X161680403Y-63645500D01*
X161680404Y-63645500D01*
X161879596Y-63645500D01*
X161879597Y-63645500D01*
X162076339Y-63614339D01*
X162076342Y-63614338D01*
X162076343Y-63614338D01*
X162265780Y-63552786D01*
X162265780Y-63552785D01*
X162265783Y-63552785D01*
X162443266Y-63462353D01*
X162604418Y-63345269D01*
X162745269Y-63204418D01*
X162862353Y-63043266D01*
X162939515Y-62891827D01*
X162987490Y-62841031D01*
X163055311Y-62824236D01*
X163121446Y-62846773D01*
X163160485Y-62891827D01*
X163237647Y-63043266D01*
X163354731Y-63204418D01*
X163495582Y-63345269D01*
X163656734Y-63462353D01*
X163784575Y-63527491D01*
X163834219Y-63552786D01*
X164023657Y-63614338D01*
X164023658Y-63614338D01*
X164023661Y-63614339D01*
X164220403Y-63645500D01*
X164220404Y-63645500D01*
X164419596Y-63645500D01*
X164419597Y-63645500D01*
X164616339Y-63614339D01*
X164616342Y-63614338D01*
X164616343Y-63614338D01*
X164805780Y-63552786D01*
X164805780Y-63552785D01*
X164805783Y-63552785D01*
X164983266Y-63462353D01*
X165144418Y-63345269D01*
X165285269Y-63204418D01*
X165402353Y-63043266D01*
X165479515Y-62891827D01*
X165527490Y-62841031D01*
X165595311Y-62824236D01*
X165661446Y-62846773D01*
X165700485Y-62891827D01*
X165777647Y-63043266D01*
X165894731Y-63204418D01*
X166035582Y-63345269D01*
X166196734Y-63462353D01*
X166324575Y-63527491D01*
X166374219Y-63552786D01*
X166563657Y-63614338D01*
X166563658Y-63614338D01*
X166563661Y-63614339D01*
X166760403Y-63645500D01*
X166760404Y-63645500D01*
X166959596Y-63645500D01*
X166959597Y-63645500D01*
X167156339Y-63614339D01*
X167156342Y-63614338D01*
X167156343Y-63614338D01*
X167345780Y-63552786D01*
X167345780Y-63552785D01*
X167345783Y-63552785D01*
X167523266Y-63462353D01*
X167684418Y-63345269D01*
X167825269Y-63204418D01*
X167942353Y-63043266D01*
X168019515Y-62891827D01*
X168067490Y-62841031D01*
X168135311Y-62824236D01*
X168201446Y-62846773D01*
X168240485Y-62891827D01*
X168317647Y-63043266D01*
X168434731Y-63204418D01*
X168575582Y-63345269D01*
X168736734Y-63462353D01*
X168815617Y-63502546D01*
X168840089Y-63515015D01*
X168890885Y-63562990D01*
X168907680Y-63630811D01*
X168885143Y-63696946D01*
X168830427Y-63740397D01*
X168783794Y-63749500D01*
X168635929Y-63749500D01*
X168517224Y-63773113D01*
X168515804Y-63773395D01*
X168510257Y-63774498D01*
X168510255Y-63774499D01*
X168391874Y-63823534D01*
X168285326Y-63894726D01*
X166494726Y-65685326D01*
X166434589Y-65775330D01*
X166434587Y-65775333D01*
X166423536Y-65791870D01*
X166423533Y-65791875D01*
X166374499Y-65910255D01*
X166374497Y-65910261D01*
X166349500Y-66035928D01*
X166349500Y-68079192D01*
X166329815Y-68146231D01*
X166313181Y-68166873D01*
X161567873Y-72912181D01*
X161506550Y-72945666D01*
X161480192Y-72948500D01*
X147436929Y-72948500D01*
X147311261Y-72973497D01*
X147311255Y-72973499D01*
X147192870Y-73022535D01*
X147086331Y-73093722D01*
X147086324Y-73093728D01*
X146034724Y-74145328D01*
X145981823Y-74224502D01*
X145963535Y-74251871D01*
X145914499Y-74370255D01*
X145914497Y-74370261D01*
X145889500Y-74495928D01*
X145889500Y-76465190D01*
X145869815Y-76532229D01*
X145838386Y-76565508D01*
X145715580Y-76654732D01*
X145574733Y-76795579D01*
X145574733Y-76795580D01*
X145574731Y-76795582D01*
X145542773Y-76839568D01*
X145457647Y-76956733D01*
X145380485Y-77108172D01*
X145332510Y-77158968D01*
X145264689Y-77175763D01*
X145198554Y-77153225D01*
X145159515Y-77108172D01*
X145105532Y-77002226D01*
X145082353Y-76956734D01*
X144965269Y-76795582D01*
X144824418Y-76654731D01*
X144663266Y-76537647D01*
X144598437Y-76504615D01*
X144485780Y-76447213D01*
X144296342Y-76385661D01*
X144148782Y-76362290D01*
X144099597Y-76354500D01*
X143900403Y-76354500D01*
X143834822Y-76364887D01*
X143703659Y-76385661D01*
X143703656Y-76385661D01*
X143514219Y-76447213D01*
X143336733Y-76537647D01*
X143244790Y-76604447D01*
X143175582Y-76654731D01*
X143175580Y-76654733D01*
X143175579Y-76654733D01*
X143034733Y-76795579D01*
X143034733Y-76795580D01*
X143034731Y-76795582D01*
X143002773Y-76839568D01*
X142917647Y-76956733D01*
X142827213Y-77134219D01*
X142765661Y-77323656D01*
X142765661Y-77323659D01*
X142758126Y-77371234D01*
X142734500Y-77520403D01*
X142734500Y-77719597D01*
X142735229Y-77724201D01*
X142765661Y-77916340D01*
X142765661Y-77916343D01*
X142827213Y-78105780D01*
X142887661Y-78224415D01*
X142917647Y-78283266D01*
X143034731Y-78444418D01*
X143175582Y-78585269D01*
X143336734Y-78702353D01*
X143514217Y-78792785D01*
X143514219Y-78792786D01*
X143703657Y-78854338D01*
X143703658Y-78854338D01*
X143703661Y-78854339D01*
X143900403Y-78885500D01*
X143900404Y-78885500D01*
X144099596Y-78885500D01*
X144099597Y-78885500D01*
X144296339Y-78854339D01*
X144296342Y-78854338D01*
X144296343Y-78854338D01*
X144485780Y-78792786D01*
X144485780Y-78792785D01*
X144485783Y-78792785D01*
X144663266Y-78702353D01*
X144824418Y-78585269D01*
X144965269Y-78444418D01*
X145082353Y-78283266D01*
X145159515Y-78131827D01*
X145207490Y-78081031D01*
X145275311Y-78064236D01*
X145341446Y-78086773D01*
X145380485Y-78131827D01*
X145457647Y-78283266D01*
X145574731Y-78444418D01*
X145715582Y-78585269D01*
X145876734Y-78702353D01*
X146054217Y-78792785D01*
X146054219Y-78792786D01*
X146243657Y-78854338D01*
X146243658Y-78854338D01*
X146243661Y-78854339D01*
X146440403Y-78885500D01*
X146440404Y-78885500D01*
X146639596Y-78885500D01*
X146639597Y-78885500D01*
X146836339Y-78854339D01*
X146836342Y-78854338D01*
X146836343Y-78854338D01*
X147025780Y-78792786D01*
X147025780Y-78792785D01*
X147025783Y-78792785D01*
X147203266Y-78702353D01*
X147364418Y-78585269D01*
X147505269Y-78444418D01*
X147622353Y-78283266D01*
X147699515Y-78131827D01*
X147747490Y-78081031D01*
X147815311Y-78064236D01*
X147881446Y-78086773D01*
X147920485Y-78131827D01*
X147997647Y-78283266D01*
X148114731Y-78444418D01*
X148255582Y-78585269D01*
X148416734Y-78702353D01*
X148594217Y-78792785D01*
X148594219Y-78792786D01*
X148783657Y-78854338D01*
X148783658Y-78854338D01*
X148783661Y-78854339D01*
X148980403Y-78885500D01*
X148980404Y-78885500D01*
X149179596Y-78885500D01*
X149179597Y-78885500D01*
X149376339Y-78854339D01*
X149376342Y-78854338D01*
X149376343Y-78854338D01*
X149565780Y-78792786D01*
X149565780Y-78792785D01*
X149565783Y-78792785D01*
X149743266Y-78702353D01*
X149904418Y-78585269D01*
X150045269Y-78444418D01*
X150162353Y-78283266D01*
X150239515Y-78131827D01*
X150287490Y-78081031D01*
X150355311Y-78064236D01*
X150421446Y-78086773D01*
X150460485Y-78131827D01*
X150537647Y-78283266D01*
X150654731Y-78444418D01*
X150795582Y-78585269D01*
X150956734Y-78702353D01*
X151134217Y-78792785D01*
X151134219Y-78792786D01*
X151323657Y-78854338D01*
X151323658Y-78854338D01*
X151323661Y-78854339D01*
X151520403Y-78885500D01*
X151520404Y-78885500D01*
X151719596Y-78885500D01*
X151719597Y-78885500D01*
X151916339Y-78854339D01*
X151916342Y-78854338D01*
X151916343Y-78854338D01*
X152105780Y-78792786D01*
X152105780Y-78792785D01*
X152105783Y-78792785D01*
X152283266Y-78702353D01*
X152444418Y-78585269D01*
X152585269Y-78444418D01*
X152702353Y-78283266D01*
X152779515Y-78131827D01*
X152827490Y-78081031D01*
X152895311Y-78064236D01*
X152961446Y-78086773D01*
X153000485Y-78131827D01*
X153077647Y-78283266D01*
X153194731Y-78444418D01*
X153335582Y-78585269D01*
X153496734Y-78702353D01*
X153674217Y-78792785D01*
X153674219Y-78792786D01*
X153863657Y-78854338D01*
X153863658Y-78854338D01*
X153863661Y-78854339D01*
X154060403Y-78885500D01*
X154060404Y-78885500D01*
X154259596Y-78885500D01*
X154259597Y-78885500D01*
X154456339Y-78854339D01*
X154456342Y-78854338D01*
X154456343Y-78854338D01*
X154645780Y-78792786D01*
X154645780Y-78792785D01*
X154645783Y-78792785D01*
X154823266Y-78702353D01*
X154984418Y-78585269D01*
X155125269Y-78444418D01*
X155242353Y-78283266D01*
X155319515Y-78131827D01*
X155367490Y-78081031D01*
X155435311Y-78064236D01*
X155501446Y-78086773D01*
X155540485Y-78131827D01*
X155617647Y-78283266D01*
X155734731Y-78444418D01*
X155875582Y-78585269D01*
X156036734Y-78702353D01*
X156214217Y-78792785D01*
X156214219Y-78792786D01*
X156403657Y-78854338D01*
X156403658Y-78854338D01*
X156403661Y-78854339D01*
X156600403Y-78885500D01*
X156600404Y-78885500D01*
X156799596Y-78885500D01*
X156799597Y-78885500D01*
X156996339Y-78854339D01*
X156996342Y-78854338D01*
X156996343Y-78854338D01*
X157185780Y-78792786D01*
X157185780Y-78792785D01*
X157185783Y-78792785D01*
X157363266Y-78702353D01*
X157524418Y-78585269D01*
X157665269Y-78444418D01*
X157782353Y-78283266D01*
X157859515Y-78131827D01*
X157907490Y-78081031D01*
X157975311Y-78064236D01*
X158041446Y-78086773D01*
X158080485Y-78131827D01*
X158157647Y-78283266D01*
X158274731Y-78444418D01*
X158415582Y-78585269D01*
X158576734Y-78702353D01*
X158754217Y-78792785D01*
X158754219Y-78792786D01*
X158943657Y-78854338D01*
X158943658Y-78854338D01*
X158943661Y-78854339D01*
X159140403Y-78885500D01*
X159140404Y-78885500D01*
X159339596Y-78885500D01*
X159339597Y-78885500D01*
X159536339Y-78854339D01*
X159536342Y-78854338D01*
X159536343Y-78854338D01*
X159725780Y-78792786D01*
X159725780Y-78792785D01*
X159725783Y-78792785D01*
X159903266Y-78702353D01*
X160064418Y-78585269D01*
X160205269Y-78444418D01*
X160322353Y-78283266D01*
X160399515Y-78131827D01*
X160447490Y-78081031D01*
X160515311Y-78064236D01*
X160581446Y-78086773D01*
X160620485Y-78131827D01*
X160697647Y-78283266D01*
X160814731Y-78444418D01*
X160955582Y-78585269D01*
X161116734Y-78702353D01*
X161294217Y-78792785D01*
X161294219Y-78792786D01*
X161483657Y-78854338D01*
X161483658Y-78854338D01*
X161483661Y-78854339D01*
X161680403Y-78885500D01*
X161680404Y-78885500D01*
X161879596Y-78885500D01*
X161879597Y-78885500D01*
X162076339Y-78854339D01*
X162076342Y-78854338D01*
X162076343Y-78854338D01*
X162265780Y-78792786D01*
X162265780Y-78792785D01*
X162265783Y-78792785D01*
X162443266Y-78702353D01*
X162604418Y-78585269D01*
X162745269Y-78444418D01*
X162862353Y-78283266D01*
X162939515Y-78131827D01*
X162987490Y-78081031D01*
X163055311Y-78064236D01*
X163121446Y-78086773D01*
X163160485Y-78131827D01*
X163237647Y-78283266D01*
X163354731Y-78444418D01*
X163495582Y-78585269D01*
X163656734Y-78702353D01*
X163834217Y-78792785D01*
X163834219Y-78792786D01*
X164023657Y-78854338D01*
X164023658Y-78854338D01*
X164023661Y-78854339D01*
X164220403Y-78885500D01*
X164220404Y-78885500D01*
X164419596Y-78885500D01*
X164419597Y-78885500D01*
X164616339Y-78854339D01*
X164616342Y-78854338D01*
X164616343Y-78854338D01*
X164805780Y-78792786D01*
X164805780Y-78792785D01*
X164805783Y-78792785D01*
X164983266Y-78702353D01*
X165144418Y-78585269D01*
X165285269Y-78444418D01*
X165402353Y-78283266D01*
X165479515Y-78131827D01*
X165527490Y-78081031D01*
X165595311Y-78064236D01*
X165661446Y-78086773D01*
X165700485Y-78131827D01*
X165777647Y-78283266D01*
X165894731Y-78444418D01*
X166035582Y-78585269D01*
X166196734Y-78702353D01*
X166374217Y-78792785D01*
X166374219Y-78792786D01*
X166563657Y-78854338D01*
X166563658Y-78854338D01*
X166563661Y-78854339D01*
X166760403Y-78885500D01*
X166760404Y-78885500D01*
X166959596Y-78885500D01*
X166959597Y-78885500D01*
X167156339Y-78854339D01*
X167156342Y-78854338D01*
X167156343Y-78854338D01*
X167345780Y-78792786D01*
X167345780Y-78792785D01*
X167345783Y-78792785D01*
X167523266Y-78702353D01*
X167684418Y-78585269D01*
X167825269Y-78444418D01*
X167942353Y-78283266D01*
X168019515Y-78131827D01*
X168067490Y-78081031D01*
X168135311Y-78064236D01*
X168201446Y-78086773D01*
X168240485Y-78131827D01*
X168317647Y-78283266D01*
X168434731Y-78444418D01*
X168575582Y-78585269D01*
X168736734Y-78702353D01*
X168914217Y-78792785D01*
X168914219Y-78792786D01*
X169103657Y-78854338D01*
X169103658Y-78854338D01*
X169103661Y-78854339D01*
X169300403Y-78885500D01*
X169300404Y-78885500D01*
X169499596Y-78885500D01*
X169499597Y-78885500D01*
X169696339Y-78854339D01*
X169696342Y-78854338D01*
X169696343Y-78854338D01*
X169885780Y-78792786D01*
X169885780Y-78792785D01*
X169885783Y-78792785D01*
X170063266Y-78702353D01*
X170224418Y-78585269D01*
X170365269Y-78444418D01*
X170482353Y-78283266D01*
X170559515Y-78131827D01*
X170607490Y-78081031D01*
X170675311Y-78064236D01*
X170741446Y-78086773D01*
X170780485Y-78131827D01*
X170857647Y-78283266D01*
X170974731Y-78444418D01*
X171115582Y-78585269D01*
X171276734Y-78702353D01*
X171454217Y-78792785D01*
X171454219Y-78792786D01*
X171643657Y-78854338D01*
X171643658Y-78854338D01*
X171643661Y-78854339D01*
X171840403Y-78885500D01*
X171840404Y-78885500D01*
X172039596Y-78885500D01*
X172039597Y-78885500D01*
X172236339Y-78854339D01*
X172236342Y-78854338D01*
X172236343Y-78854338D01*
X172425780Y-78792786D01*
X172425780Y-78792785D01*
X172425783Y-78792785D01*
X172603266Y-78702353D01*
X172764418Y-78585269D01*
X172905269Y-78444418D01*
X173022353Y-78283266D01*
X173099515Y-78131827D01*
X173147490Y-78081031D01*
X173215311Y-78064236D01*
X173281446Y-78086773D01*
X173320485Y-78131827D01*
X173397647Y-78283266D01*
X173514731Y-78444418D01*
X173655582Y-78585269D01*
X173816734Y-78702353D01*
X173994217Y-78792785D01*
X173994219Y-78792786D01*
X174183657Y-78854338D01*
X174183658Y-78854338D01*
X174183661Y-78854339D01*
X174380403Y-78885500D01*
X174380404Y-78885500D01*
X174579596Y-78885500D01*
X174579597Y-78885500D01*
X174776339Y-78854339D01*
X174776342Y-78854338D01*
X174776343Y-78854338D01*
X174965780Y-78792786D01*
X174965780Y-78792785D01*
X174965783Y-78792785D01*
X175143266Y-78702353D01*
X175304418Y-78585269D01*
X175445269Y-78444418D01*
X175562353Y-78283266D01*
X175639515Y-78131827D01*
X175687490Y-78081031D01*
X175755311Y-78064236D01*
X175821446Y-78086773D01*
X175860485Y-78131827D01*
X175937647Y-78283266D01*
X176054731Y-78444418D01*
X176195582Y-78585269D01*
X176356734Y-78702353D01*
X176534217Y-78792785D01*
X176534219Y-78792786D01*
X176723657Y-78854338D01*
X176723658Y-78854338D01*
X176723661Y-78854339D01*
X176920403Y-78885500D01*
X176920404Y-78885500D01*
X177119596Y-78885500D01*
X177119597Y-78885500D01*
X177316339Y-78854339D01*
X177316342Y-78854338D01*
X177316343Y-78854338D01*
X177505780Y-78792786D01*
X177505780Y-78792785D01*
X177505783Y-78792785D01*
X177683266Y-78702353D01*
X177844418Y-78585269D01*
X177985269Y-78444418D01*
X178070184Y-78327542D01*
X178125511Y-78284878D01*
X178195125Y-78278899D01*
X178256920Y-78311504D01*
X178291277Y-78372343D01*
X178294500Y-78400426D01*
X178294500Y-78432868D01*
X178294501Y-78432876D01*
X178300908Y-78492483D01*
X178351202Y-78627328D01*
X178351206Y-78627335D01*
X178437452Y-78742544D01*
X178437455Y-78742547D01*
X178552664Y-78828793D01*
X178552671Y-78828797D01*
X178687517Y-78879091D01*
X178687516Y-78879091D01*
X178694444Y-78879835D01*
X178747127Y-78885500D01*
X180372872Y-78885499D01*
X180432483Y-78879091D01*
X180567331Y-78828796D01*
X180682546Y-78742546D01*
X180768796Y-78627331D01*
X180819091Y-78492483D01*
X180825500Y-78432873D01*
X180825499Y-76807128D01*
X180819091Y-76747517D01*
X180795013Y-76682961D01*
X180768797Y-76612671D01*
X180768793Y-76612664D01*
X180682547Y-76497455D01*
X180682544Y-76497452D01*
X180567335Y-76411206D01*
X180567328Y-76411202D01*
X180432482Y-76360908D01*
X180432483Y-76360908D01*
X180372883Y-76354501D01*
X180372881Y-76354500D01*
X180372873Y-76354500D01*
X180372864Y-76354500D01*
X178747129Y-76354500D01*
X178747123Y-76354501D01*
X178687516Y-76360908D01*
X178552671Y-76411202D01*
X178552664Y-76411206D01*
X178437455Y-76497452D01*
X178437452Y-76497455D01*
X178351206Y-76612664D01*
X178351202Y-76612671D01*
X178300908Y-76747517D01*
X178295741Y-76795580D01*
X178294501Y-76807123D01*
X178294500Y-76807135D01*
X178294500Y-76839568D01*
X178274815Y-76906607D01*
X178222011Y-76952362D01*
X178152853Y-76962306D01*
X178089297Y-76933281D01*
X178070182Y-76912454D01*
X178017227Y-76839568D01*
X177985269Y-76795582D01*
X177844418Y-76654731D01*
X177683266Y-76537647D01*
X177618437Y-76504615D01*
X177505780Y-76447213D01*
X177316342Y-76385661D01*
X177168782Y-76362290D01*
X177119597Y-76354500D01*
X176920403Y-76354500D01*
X176854822Y-76364887D01*
X176723659Y-76385661D01*
X176723656Y-76385661D01*
X176534219Y-76447213D01*
X176356733Y-76537647D01*
X176264790Y-76604447D01*
X176195582Y-76654731D01*
X176195580Y-76654733D01*
X176195579Y-76654733D01*
X176054733Y-76795579D01*
X176054733Y-76795580D01*
X176054731Y-76795582D01*
X176022773Y-76839568D01*
X175937647Y-76956733D01*
X175860485Y-77108172D01*
X175812510Y-77158968D01*
X175744689Y-77175763D01*
X175678554Y-77153225D01*
X175639515Y-77108172D01*
X175585532Y-77002226D01*
X175562353Y-76956734D01*
X175445269Y-76795582D01*
X175304418Y-76654731D01*
X175143266Y-76537647D01*
X175078437Y-76504615D01*
X174965780Y-76447213D01*
X174776342Y-76385661D01*
X174628782Y-76362290D01*
X174579597Y-76354500D01*
X174380403Y-76354500D01*
X174314822Y-76364887D01*
X174183659Y-76385661D01*
X174183656Y-76385661D01*
X173994219Y-76447213D01*
X173816733Y-76537647D01*
X173724790Y-76604447D01*
X173655582Y-76654731D01*
X173655580Y-76654733D01*
X173655579Y-76654733D01*
X173514733Y-76795579D01*
X173514733Y-76795580D01*
X173514731Y-76795582D01*
X173482773Y-76839568D01*
X173397647Y-76956733D01*
X173320485Y-77108172D01*
X173272510Y-77158968D01*
X173204689Y-77175763D01*
X173138554Y-77153225D01*
X173099515Y-77108172D01*
X173045532Y-77002226D01*
X173022353Y-76956734D01*
X172905269Y-76795582D01*
X172764418Y-76654731D01*
X172603266Y-76537647D01*
X172538437Y-76504615D01*
X172425780Y-76447213D01*
X172236342Y-76385661D01*
X172088782Y-76362290D01*
X172039597Y-76354500D01*
X171840403Y-76354500D01*
X171774822Y-76364887D01*
X171643659Y-76385661D01*
X171643656Y-76385661D01*
X171454219Y-76447213D01*
X171276733Y-76537647D01*
X171184790Y-76604447D01*
X171115582Y-76654731D01*
X171115580Y-76654733D01*
X171115579Y-76654733D01*
X170974733Y-76795579D01*
X170974733Y-76795580D01*
X170974731Y-76795582D01*
X170942773Y-76839568D01*
X170857647Y-76956733D01*
X170780485Y-77108172D01*
X170732510Y-77158968D01*
X170664689Y-77175763D01*
X170598554Y-77153225D01*
X170559515Y-77108172D01*
X170505532Y-77002226D01*
X170482353Y-76956734D01*
X170365269Y-76795582D01*
X170224418Y-76654731D01*
X170063266Y-76537647D01*
X169998437Y-76504615D01*
X169885780Y-76447213D01*
X169696342Y-76385661D01*
X169548782Y-76362290D01*
X169499597Y-76354500D01*
X169300403Y-76354500D01*
X169234822Y-76364887D01*
X169103659Y-76385661D01*
X169103656Y-76385661D01*
X168914219Y-76447213D01*
X168736733Y-76537647D01*
X168644790Y-76604447D01*
X168575582Y-76654731D01*
X168575580Y-76654733D01*
X168575579Y-76654733D01*
X168434733Y-76795579D01*
X168434733Y-76795580D01*
X168434731Y-76795582D01*
X168402773Y-76839568D01*
X168317647Y-76956733D01*
X168240485Y-77108172D01*
X168192510Y-77158968D01*
X168124689Y-77175763D01*
X168058554Y-77153225D01*
X168019515Y-77108172D01*
X167965532Y-77002226D01*
X167942353Y-76956734D01*
X167825269Y-76795582D01*
X167684418Y-76654731D01*
X167523266Y-76537647D01*
X167458437Y-76504615D01*
X167345780Y-76447213D01*
X167156342Y-76385661D01*
X167008782Y-76362290D01*
X166959597Y-76354500D01*
X166760403Y-76354500D01*
X166694822Y-76364887D01*
X166563659Y-76385661D01*
X166563656Y-76385661D01*
X166374219Y-76447213D01*
X166196733Y-76537647D01*
X166104790Y-76604447D01*
X166035582Y-76654731D01*
X166035580Y-76654733D01*
X166035579Y-76654733D01*
X165894733Y-76795579D01*
X165894733Y-76795580D01*
X165894731Y-76795582D01*
X165862773Y-76839568D01*
X165777647Y-76956733D01*
X165700485Y-77108172D01*
X165652510Y-77158968D01*
X165584689Y-77175763D01*
X165518554Y-77153225D01*
X165479515Y-77108172D01*
X165425532Y-77002226D01*
X165402353Y-76956734D01*
X165285269Y-76795582D01*
X165144418Y-76654731D01*
X164983266Y-76537647D01*
X164918437Y-76504615D01*
X164805780Y-76447213D01*
X164616342Y-76385661D01*
X164468782Y-76362290D01*
X164419597Y-76354500D01*
X164220403Y-76354500D01*
X164154822Y-76364887D01*
X164023659Y-76385661D01*
X164023656Y-76385661D01*
X163834219Y-76447213D01*
X163656733Y-76537647D01*
X163564790Y-76604447D01*
X163495582Y-76654731D01*
X163495580Y-76654733D01*
X163495579Y-76654733D01*
X163354733Y-76795579D01*
X163354733Y-76795580D01*
X163354731Y-76795582D01*
X163322773Y-76839568D01*
X163237647Y-76956733D01*
X163160485Y-77108172D01*
X163112510Y-77158968D01*
X163044689Y-77175763D01*
X162978554Y-77153225D01*
X162939515Y-77108172D01*
X162885532Y-77002226D01*
X162862353Y-76956734D01*
X162745269Y-76795582D01*
X162604418Y-76654731D01*
X162443266Y-76537647D01*
X162378437Y-76504615D01*
X162265780Y-76447213D01*
X162076342Y-76385661D01*
X161928782Y-76362290D01*
X161879597Y-76354500D01*
X161680403Y-76354500D01*
X161614822Y-76364887D01*
X161483659Y-76385661D01*
X161483656Y-76385661D01*
X161294219Y-76447213D01*
X161116733Y-76537647D01*
X161024790Y-76604447D01*
X160955582Y-76654731D01*
X160955580Y-76654733D01*
X160955579Y-76654733D01*
X160814733Y-76795579D01*
X160814733Y-76795580D01*
X160814731Y-76795582D01*
X160782773Y-76839568D01*
X160697647Y-76956733D01*
X160620485Y-77108172D01*
X160572510Y-77158968D01*
X160504689Y-77175763D01*
X160438554Y-77153225D01*
X160399515Y-77108172D01*
X160345532Y-77002226D01*
X160322353Y-76956734D01*
X160205269Y-76795582D01*
X160064418Y-76654731D01*
X159903266Y-76537647D01*
X159838437Y-76504615D01*
X159725780Y-76447213D01*
X159536342Y-76385661D01*
X159388782Y-76362290D01*
X159339597Y-76354500D01*
X159140403Y-76354500D01*
X159074822Y-76364887D01*
X158943659Y-76385661D01*
X158943656Y-76385661D01*
X158754219Y-76447213D01*
X158576733Y-76537647D01*
X158484790Y-76604447D01*
X158415582Y-76654731D01*
X158415580Y-76654733D01*
X158415579Y-76654733D01*
X158274733Y-76795579D01*
X158274733Y-76795580D01*
X158274731Y-76795582D01*
X158242773Y-76839568D01*
X158157647Y-76956733D01*
X158080485Y-77108172D01*
X158032510Y-77158968D01*
X157964689Y-77175763D01*
X157898554Y-77153225D01*
X157859515Y-77108172D01*
X157805532Y-77002226D01*
X157782353Y-76956734D01*
X157665269Y-76795582D01*
X157524418Y-76654731D01*
X157363266Y-76537647D01*
X157298437Y-76504615D01*
X157185780Y-76447213D01*
X156996342Y-76385661D01*
X156848782Y-76362290D01*
X156799597Y-76354500D01*
X156600403Y-76354500D01*
X156534822Y-76364887D01*
X156403659Y-76385661D01*
X156403656Y-76385661D01*
X156214219Y-76447213D01*
X156036733Y-76537647D01*
X155944790Y-76604447D01*
X155875582Y-76654731D01*
X155875580Y-76654733D01*
X155875579Y-76654733D01*
X155734733Y-76795579D01*
X155734733Y-76795580D01*
X155734731Y-76795582D01*
X155702773Y-76839568D01*
X155617647Y-76956733D01*
X155540485Y-77108172D01*
X155492510Y-77158968D01*
X155424689Y-77175763D01*
X155358554Y-77153225D01*
X155319515Y-77108172D01*
X155265532Y-77002226D01*
X155242353Y-76956734D01*
X155125269Y-76795582D01*
X154984418Y-76654731D01*
X154823266Y-76537647D01*
X154758437Y-76504615D01*
X154645780Y-76447213D01*
X154456342Y-76385661D01*
X154308782Y-76362290D01*
X154259597Y-76354500D01*
X154060403Y-76354500D01*
X153994822Y-76364887D01*
X153863659Y-76385661D01*
X153863656Y-76385661D01*
X153674219Y-76447213D01*
X153496733Y-76537647D01*
X153404790Y-76604447D01*
X153335582Y-76654731D01*
X153335580Y-76654733D01*
X153335579Y-76654733D01*
X153194733Y-76795579D01*
X153194733Y-76795580D01*
X153194731Y-76795582D01*
X153162773Y-76839568D01*
X153077647Y-76956733D01*
X153000485Y-77108172D01*
X152952510Y-77158968D01*
X152884689Y-77175763D01*
X152818554Y-77153225D01*
X152779515Y-77108172D01*
X152725532Y-77002226D01*
X152702353Y-76956734D01*
X152585269Y-76795582D01*
X152444418Y-76654731D01*
X152395602Y-76619264D01*
X152321614Y-76565508D01*
X152278949Y-76510177D01*
X152270500Y-76465190D01*
X152270500Y-75900808D01*
X152290185Y-75833769D01*
X152306819Y-75813127D01*
X153333127Y-74786819D01*
X153394450Y-74753334D01*
X153420808Y-74750500D01*
X162154071Y-74750500D01*
X162238615Y-74733682D01*
X162279744Y-74725501D01*
X162398127Y-74676465D01*
X162504669Y-74605277D01*
X165552939Y-71557007D01*
X166038746Y-71071200D01*
X168437819Y-68672126D01*
X168499142Y-68638641D01*
X168568834Y-68643625D01*
X168624767Y-68685497D01*
X168649184Y-68750961D01*
X168649500Y-68759807D01*
X168649500Y-68836287D01*
X168682754Y-69046243D01*
X168706788Y-69120213D01*
X168748444Y-69248414D01*
X168844951Y-69437820D01*
X168969890Y-69609786D01*
X169120213Y-69760109D01*
X169292179Y-69885048D01*
X169292181Y-69885049D01*
X169292184Y-69885051D01*
X169301493Y-69889794D01*
X169352290Y-69937766D01*
X169369087Y-70005587D01*
X169346552Y-70071722D01*
X169301505Y-70110760D01*
X169292446Y-70115376D01*
X169292440Y-70115380D01*
X169238282Y-70154727D01*
X169238282Y-70154728D01*
X169870591Y-70787037D01*
X169807007Y-70804075D01*
X169692993Y-70869901D01*
X169599901Y-70962993D01*
X169534075Y-71077007D01*
X169517037Y-71140591D01*
X168884728Y-70508282D01*
X168884727Y-70508282D01*
X168845380Y-70562439D01*
X168748904Y-70751782D01*
X168683242Y-70953869D01*
X168683242Y-70953872D01*
X168650000Y-71163753D01*
X168650000Y-71376246D01*
X168683242Y-71586127D01*
X168683242Y-71586130D01*
X168748904Y-71788217D01*
X168845375Y-71977550D01*
X168884728Y-72031716D01*
X169517036Y-71399407D01*
X169534075Y-71462993D01*
X169599901Y-71577007D01*
X169692993Y-71670099D01*
X169807007Y-71735925D01*
X169870590Y-71752962D01*
X169200370Y-72423181D01*
X169139047Y-72456666D01*
X169112698Y-72459500D01*
X169102134Y-72459500D01*
X169102123Y-72459501D01*
X169042516Y-72465908D01*
X168907671Y-72516202D01*
X168907664Y-72516206D01*
X168792455Y-72602452D01*
X168792452Y-72602455D01*
X168706206Y-72717664D01*
X168706202Y-72717671D01*
X168655908Y-72852517D01*
X168653064Y-72878974D01*
X168649501Y-72912123D01*
X168649500Y-72912135D01*
X168649500Y-74707870D01*
X168649501Y-74707876D01*
X168655908Y-74767483D01*
X168706202Y-74902328D01*
X168706206Y-74902335D01*
X168792452Y-75017544D01*
X168792455Y-75017547D01*
X168907664Y-75103793D01*
X168907671Y-75103797D01*
X169042517Y-75154091D01*
X169042516Y-75154091D01*
X169049444Y-75154835D01*
X169102127Y-75160500D01*
X170897872Y-75160499D01*
X170957483Y-75154091D01*
X171092331Y-75103796D01*
X171207546Y-75017546D01*
X171293796Y-74902331D01*
X171344091Y-74767483D01*
X171350500Y-74707873D01*
X171350499Y-72912128D01*
X171344091Y-72852517D01*
X171293796Y-72717669D01*
X171293795Y-72717668D01*
X171293793Y-72717664D01*
X171207547Y-72602455D01*
X171207544Y-72602452D01*
X171092335Y-72516206D01*
X171092328Y-72516202D01*
X170957482Y-72465908D01*
X170957483Y-72465908D01*
X170897883Y-72459501D01*
X170897881Y-72459500D01*
X170897873Y-72459500D01*
X170897865Y-72459500D01*
X170887309Y-72459500D01*
X170820270Y-72439815D01*
X170799628Y-72423181D01*
X170129408Y-71752962D01*
X170192993Y-71735925D01*
X170307007Y-71670099D01*
X170400099Y-71577007D01*
X170465925Y-71462993D01*
X170482962Y-71399408D01*
X171115270Y-72031717D01*
X171115270Y-72031716D01*
X171154622Y-71977554D01*
X171251095Y-71788217D01*
X171316757Y-71586130D01*
X171316757Y-71586127D01*
X171350000Y-71376246D01*
X171350000Y-71163753D01*
X171316757Y-70953872D01*
X171316757Y-70953869D01*
X171251095Y-70751782D01*
X171154624Y-70562449D01*
X171115270Y-70508282D01*
X171115269Y-70508282D01*
X170482962Y-71140590D01*
X170465925Y-71077007D01*
X170400099Y-70962993D01*
X170307007Y-70869901D01*
X170192993Y-70804075D01*
X170129409Y-70787037D01*
X170761716Y-70154728D01*
X170707547Y-70115373D01*
X170707547Y-70115372D01*
X170698500Y-70110763D01*
X170647706Y-70062788D01*
X170630912Y-69994966D01*
X170653451Y-69928832D01*
X170698508Y-69889793D01*
X170707816Y-69885051D01*
X170787007Y-69827515D01*
X170879786Y-69760109D01*
X170879788Y-69760106D01*
X170879792Y-69760104D01*
X171030104Y-69609792D01*
X171030106Y-69609788D01*
X171030109Y-69609786D01*
X171155048Y-69437820D01*
X171155047Y-69437820D01*
X171155051Y-69437816D01*
X171251557Y-69248412D01*
X171317246Y-69046243D01*
X171350500Y-68836287D01*
X171350500Y-68623713D01*
X171317246Y-68413757D01*
X171316484Y-68408945D01*
X171318126Y-68408684D01*
X171321254Y-68346137D01*
X171350657Y-68299288D01*
X172405272Y-67244674D01*
X172405273Y-67244673D01*
X172405273Y-67244672D01*
X172405277Y-67244669D01*
X172476465Y-67138127D01*
X172525501Y-67019743D01*
X172550500Y-66894069D01*
X172550500Y-66765931D01*
X172550500Y-65035931D01*
X172550500Y-65035928D01*
X172525502Y-64910261D01*
X172525501Y-64910260D01*
X172525501Y-64910256D01*
X172476465Y-64791873D01*
X172470428Y-64782838D01*
X172470428Y-64782837D01*
X172405277Y-64685331D01*
X172405271Y-64685324D01*
X171614673Y-63894726D01*
X171612388Y-63893199D01*
X171508127Y-63823535D01*
X171389744Y-63774499D01*
X171382776Y-63773113D01*
X171322416Y-63761106D01*
X171322410Y-63761104D01*
X171264071Y-63749500D01*
X171264069Y-63749500D01*
X170016206Y-63749500D01*
X169949167Y-63729815D01*
X169903412Y-63677011D01*
X169893468Y-63607853D01*
X169922493Y-63544297D01*
X169959911Y-63515015D01*
X169965624Y-63512103D01*
X170063266Y-63462353D01*
X170224418Y-63345269D01*
X170365269Y-63204418D01*
X170482353Y-63043266D01*
X170559795Y-62891276D01*
X170607769Y-62840481D01*
X170675590Y-62823686D01*
X170741725Y-62846223D01*
X170780765Y-62891277D01*
X170858077Y-63043008D01*
X170885580Y-63080863D01*
X170885581Y-63080864D01*
X171448871Y-62517574D01*
X171464755Y-62576853D01*
X171531898Y-62693147D01*
X171626853Y-62788102D01*
X171743147Y-62855245D01*
X171802425Y-62871128D01*
X171239134Y-63434417D01*
X171276994Y-63461924D01*
X171405676Y-63527491D01*
X171623643Y-63607310D01*
X171643776Y-63613851D01*
X171840437Y-63645000D01*
X172039563Y-63645000D01*
X172236222Y-63613852D01*
X172425594Y-63552320D01*
X172603005Y-63461924D01*
X172640863Y-63434418D01*
X172640863Y-63434417D01*
X172077574Y-62871128D01*
X172136853Y-62855245D01*
X172253147Y-62788102D01*
X172348102Y-62693147D01*
X172415245Y-62576853D01*
X172431128Y-62517574D01*
X172994417Y-63080863D01*
X172994418Y-63080863D01*
X173021924Y-63043005D01*
X173099234Y-62891277D01*
X173147208Y-62840481D01*
X173215029Y-62823686D01*
X173281164Y-62846223D01*
X173320204Y-62891277D01*
X173395422Y-63038899D01*
X173397647Y-63043266D01*
X173514731Y-63204418D01*
X173655582Y-63345269D01*
X173816734Y-63462353D01*
X173944575Y-63527491D01*
X173994219Y-63552786D01*
X174183657Y-63614338D01*
X174183658Y-63614338D01*
X174183661Y-63614339D01*
X174380403Y-63645500D01*
X174380404Y-63645500D01*
X174579596Y-63645500D01*
X174579597Y-63645500D01*
X174776339Y-63614339D01*
X174776342Y-63614338D01*
X174776343Y-63614338D01*
X174965780Y-63552786D01*
X174965780Y-63552785D01*
X174965783Y-63552785D01*
X175143266Y-63462353D01*
X175304418Y-63345269D01*
X175445269Y-63204418D01*
X175562353Y-63043266D01*
X175639515Y-62891827D01*
X175687490Y-62841031D01*
X175755311Y-62824236D01*
X175821446Y-62846773D01*
X175860485Y-62891827D01*
X175937647Y-63043266D01*
X176054731Y-63204418D01*
X176195582Y-63345269D01*
X176356734Y-63462353D01*
X176484575Y-63527491D01*
X176534219Y-63552786D01*
X176723657Y-63614338D01*
X176723658Y-63614338D01*
X176723661Y-63614339D01*
X176920403Y-63645500D01*
X176920404Y-63645500D01*
X177119596Y-63645500D01*
X177119597Y-63645500D01*
X177316339Y-63614339D01*
X177316342Y-63614338D01*
X177316343Y-63614338D01*
X177505780Y-63552786D01*
X177505780Y-63552785D01*
X177505783Y-63552785D01*
X177683266Y-63462353D01*
X177844418Y-63345269D01*
X177985269Y-63204418D01*
X178070184Y-63087542D01*
X178125511Y-63044878D01*
X178195125Y-63038899D01*
X178256920Y-63071504D01*
X178291277Y-63132343D01*
X178294500Y-63160426D01*
X178294500Y-63192868D01*
X178294501Y-63192876D01*
X178300908Y-63252483D01*
X178351202Y-63387328D01*
X178351206Y-63387335D01*
X178437452Y-63502544D01*
X178437455Y-63502547D01*
X178552664Y-63588793D01*
X178552671Y-63588797D01*
X178687517Y-63639091D01*
X178687516Y-63639091D01*
X178694444Y-63639835D01*
X178747127Y-63645500D01*
X180372872Y-63645499D01*
X180432483Y-63639091D01*
X180567331Y-63588796D01*
X180682546Y-63502546D01*
X180768796Y-63387331D01*
X180819091Y-63252483D01*
X180825500Y-63192873D01*
X180825499Y-61567128D01*
X180819091Y-61507517D01*
X180768796Y-61372669D01*
X180768795Y-61372668D01*
X180768793Y-61372664D01*
X180682547Y-61257455D01*
X180682544Y-61257452D01*
X180567335Y-61171206D01*
X180567328Y-61171202D01*
X180432482Y-61120908D01*
X180432483Y-61120908D01*
X180372883Y-61114501D01*
X180372881Y-61114500D01*
X180372873Y-61114500D01*
X180372864Y-61114500D01*
X178747129Y-61114500D01*
X178747123Y-61114501D01*
X178687516Y-61120908D01*
X178552671Y-61171202D01*
X178552664Y-61171206D01*
X178437455Y-61257452D01*
X178437452Y-61257455D01*
X178351206Y-61372664D01*
X178351202Y-61372671D01*
X178300908Y-61507517D01*
X178295741Y-61555580D01*
X178294501Y-61567123D01*
X178294500Y-61567135D01*
X178294500Y-61599568D01*
X178274815Y-61666607D01*
X178222011Y-61712362D01*
X178152853Y-61722306D01*
X178089297Y-61693281D01*
X178070182Y-61672454D01*
X178017227Y-61599568D01*
X177985269Y-61555582D01*
X177844418Y-61414731D01*
X177683266Y-61297647D01*
X177604379Y-61257452D01*
X177505780Y-61207213D01*
X177316342Y-61145661D01*
X177168782Y-61122290D01*
X177119597Y-61114500D01*
X176920403Y-61114500D01*
X176858150Y-61124360D01*
X176723659Y-61145661D01*
X176723656Y-61145661D01*
X176534219Y-61207213D01*
X176356733Y-61297647D01*
X176318286Y-61325581D01*
X176195582Y-61414731D01*
X176195580Y-61414733D01*
X176195579Y-61414733D01*
X176054733Y-61555579D01*
X176054733Y-61555580D01*
X176054731Y-61555582D01*
X176022773Y-61599568D01*
X175937647Y-61716733D01*
X175860485Y-61868172D01*
X175812510Y-61918968D01*
X175744689Y-61935763D01*
X175678554Y-61913225D01*
X175639515Y-61868172D01*
X175597877Y-61786453D01*
X175562353Y-61716734D01*
X175445269Y-61555582D01*
X175304418Y-61414731D01*
X175143266Y-61297647D01*
X175064379Y-61257452D01*
X174965780Y-61207213D01*
X174776342Y-61145661D01*
X174628782Y-61122290D01*
X174579597Y-61114500D01*
X174380403Y-61114500D01*
X174318150Y-61124360D01*
X174183659Y-61145661D01*
X174183656Y-61145661D01*
X173994219Y-61207213D01*
X173816733Y-61297647D01*
X173778286Y-61325581D01*
X173655582Y-61414731D01*
X173655580Y-61414733D01*
X173655579Y-61414733D01*
X173514733Y-61555579D01*
X173514733Y-61555580D01*
X173514731Y-61555582D01*
X173482773Y-61599568D01*
X173397645Y-61716735D01*
X173320203Y-61868723D01*
X173272229Y-61919518D01*
X173204408Y-61936313D01*
X173138273Y-61913775D01*
X173099234Y-61868722D01*
X173021924Y-61716994D01*
X172994417Y-61679135D01*
X172994417Y-61679134D01*
X172431128Y-62242424D01*
X172415245Y-62183147D01*
X172348102Y-62066853D01*
X172253147Y-61971898D01*
X172136853Y-61904755D01*
X172077574Y-61888871D01*
X172640864Y-61325581D01*
X172640863Y-61325580D01*
X172603008Y-61298077D01*
X172425594Y-61207679D01*
X172236222Y-61146147D01*
X172039563Y-61115000D01*
X171840437Y-61115000D01*
X171643777Y-61146147D01*
X171454405Y-61207679D01*
X171276990Y-61298077D01*
X171239135Y-61325580D01*
X171239135Y-61325581D01*
X171802425Y-61888871D01*
X171743147Y-61904755D01*
X171626853Y-61971898D01*
X171531898Y-62066853D01*
X171464755Y-62183147D01*
X171448871Y-62242425D01*
X170885581Y-61679135D01*
X170885580Y-61679135D01*
X170858075Y-61716993D01*
X170780764Y-61868723D01*
X170732790Y-61919518D01*
X170664969Y-61936313D01*
X170598834Y-61913775D01*
X170559795Y-61868722D01*
X170528299Y-61806909D01*
X170482353Y-61716734D01*
X170365269Y-61555582D01*
X170224418Y-61414731D01*
X170063266Y-61297647D01*
X169984379Y-61257452D01*
X169885780Y-61207213D01*
X169696342Y-61145661D01*
X169548782Y-61122290D01*
X169499597Y-61114500D01*
X169300403Y-61114500D01*
X169238150Y-61124360D01*
X169103659Y-61145661D01*
X169103656Y-61145661D01*
X168914219Y-61207213D01*
X168736733Y-61297647D01*
X168698286Y-61325581D01*
X168575582Y-61414731D01*
X168575580Y-61414733D01*
X168575579Y-61414733D01*
X168434733Y-61555579D01*
X168434733Y-61555580D01*
X168434731Y-61555582D01*
X168402773Y-61599568D01*
X168317647Y-61716733D01*
X168240485Y-61868172D01*
X168192510Y-61918968D01*
X168124689Y-61935763D01*
X168058554Y-61913225D01*
X168019515Y-61868172D01*
X167977877Y-61786453D01*
X167942353Y-61716734D01*
X167825269Y-61555582D01*
X167684418Y-61414731D01*
X167523266Y-61297647D01*
X167444379Y-61257452D01*
X167345780Y-61207213D01*
X167156342Y-61145661D01*
X167008782Y-61122290D01*
X166959597Y-61114500D01*
X166760403Y-61114500D01*
X166698150Y-61124360D01*
X166563659Y-61145661D01*
X166563656Y-61145661D01*
X166374219Y-61207213D01*
X166196733Y-61297647D01*
X166158286Y-61325581D01*
X166035582Y-61414731D01*
X166035580Y-61414733D01*
X166035579Y-61414733D01*
X165894733Y-61555579D01*
X165894733Y-61555580D01*
X165894731Y-61555582D01*
X165862773Y-61599568D01*
X165777647Y-61716733D01*
X165700485Y-61868172D01*
X165652510Y-61918968D01*
X165584689Y-61935763D01*
X165518554Y-61913225D01*
X165479515Y-61868172D01*
X165437877Y-61786453D01*
X165402353Y-61716734D01*
X165285269Y-61555582D01*
X165144418Y-61414731D01*
X164983266Y-61297647D01*
X164904379Y-61257452D01*
X164805780Y-61207213D01*
X164616342Y-61145661D01*
X164468782Y-61122290D01*
X164419597Y-61114500D01*
X164220403Y-61114500D01*
X164158150Y-61124360D01*
X164023659Y-61145661D01*
X164023656Y-61145661D01*
X163834219Y-61207213D01*
X163656733Y-61297647D01*
X163618286Y-61325581D01*
X163495582Y-61414731D01*
X163495580Y-61414733D01*
X163495579Y-61414733D01*
X163354733Y-61555579D01*
X163354733Y-61555580D01*
X163354731Y-61555582D01*
X163322773Y-61599568D01*
X163237647Y-61716733D01*
X163160485Y-61868172D01*
X163112510Y-61918968D01*
X163044689Y-61935763D01*
X162978554Y-61913225D01*
X162939515Y-61868172D01*
X162897877Y-61786453D01*
X162862353Y-61716734D01*
X162745269Y-61555582D01*
X162604418Y-61414731D01*
X162443266Y-61297647D01*
X162364379Y-61257452D01*
X162265780Y-61207213D01*
X162076342Y-61145661D01*
X161928782Y-61122290D01*
X161879597Y-61114500D01*
X161680403Y-61114500D01*
X161618150Y-61124360D01*
X161483659Y-61145661D01*
X161483656Y-61145661D01*
X161294219Y-61207213D01*
X161116733Y-61297647D01*
X161078286Y-61325581D01*
X160955582Y-61414731D01*
X160955580Y-61414733D01*
X160955579Y-61414733D01*
X160814733Y-61555579D01*
X160814733Y-61555580D01*
X160814731Y-61555582D01*
X160782773Y-61599568D01*
X160697647Y-61716733D01*
X160620485Y-61868172D01*
X160572510Y-61918968D01*
X160504689Y-61935763D01*
X160438554Y-61913225D01*
X160399515Y-61868172D01*
X160357877Y-61786453D01*
X160322353Y-61716734D01*
X160205269Y-61555582D01*
X160064418Y-61414731D01*
X159903266Y-61297647D01*
X159824379Y-61257452D01*
X159725780Y-61207213D01*
X159536342Y-61145661D01*
X159388782Y-61122290D01*
X159339597Y-61114500D01*
X159140403Y-61114500D01*
X159078150Y-61124360D01*
X158943659Y-61145661D01*
X158943656Y-61145661D01*
X158754219Y-61207213D01*
X158576733Y-61297647D01*
X158538286Y-61325581D01*
X158415582Y-61414731D01*
X158415580Y-61414733D01*
X158415579Y-61414733D01*
X158274733Y-61555579D01*
X158274733Y-61555580D01*
X158274731Y-61555582D01*
X158242773Y-61599568D01*
X158157647Y-61716733D01*
X158080485Y-61868172D01*
X158032510Y-61918968D01*
X157964689Y-61935763D01*
X157898554Y-61913225D01*
X157859515Y-61868172D01*
X157817877Y-61786453D01*
X157782353Y-61716734D01*
X157665269Y-61555582D01*
X157524418Y-61414731D01*
X157363266Y-61297647D01*
X157284379Y-61257452D01*
X157185780Y-61207213D01*
X156996342Y-61145661D01*
X156848782Y-61122290D01*
X156799597Y-61114500D01*
X156600403Y-61114500D01*
X156538150Y-61124360D01*
X156403659Y-61145661D01*
X156403656Y-61145661D01*
X156214219Y-61207213D01*
X156036733Y-61297647D01*
X155998286Y-61325581D01*
X155875582Y-61414731D01*
X155875580Y-61414733D01*
X155875579Y-61414733D01*
X155734733Y-61555579D01*
X155734733Y-61555580D01*
X155734731Y-61555582D01*
X155702773Y-61599568D01*
X155617647Y-61716733D01*
X155540485Y-61868172D01*
X155492510Y-61918968D01*
X155424689Y-61935763D01*
X155358554Y-61913225D01*
X155319515Y-61868172D01*
X155277877Y-61786453D01*
X155242353Y-61716734D01*
X155125269Y-61555582D01*
X154984418Y-61414731D01*
X154823266Y-61297647D01*
X154744379Y-61257452D01*
X154645780Y-61207213D01*
X154456342Y-61145661D01*
X154308782Y-61122290D01*
X154259597Y-61114500D01*
X154060403Y-61114500D01*
X153998150Y-61124360D01*
X153863659Y-61145661D01*
X153863656Y-61145661D01*
X153674219Y-61207213D01*
X153496733Y-61297647D01*
X153458286Y-61325581D01*
X153335582Y-61414731D01*
X153335580Y-61414733D01*
X153335579Y-61414733D01*
X153194733Y-61555579D01*
X153194733Y-61555580D01*
X153194731Y-61555582D01*
X153162773Y-61599568D01*
X153077647Y-61716733D01*
X153000485Y-61868172D01*
X152952510Y-61918968D01*
X152884689Y-61935763D01*
X152818554Y-61913225D01*
X152779515Y-61868172D01*
X152737877Y-61786453D01*
X152702353Y-61716734D01*
X152585269Y-61555582D01*
X152444418Y-61414731D01*
X152283266Y-61297647D01*
X152204379Y-61257452D01*
X152105780Y-61207213D01*
X151916342Y-61145661D01*
X151768782Y-61122290D01*
X151719597Y-61114500D01*
X151520403Y-61114500D01*
X151458150Y-61124360D01*
X151323659Y-61145661D01*
X151323656Y-61145661D01*
X151134219Y-61207213D01*
X150956733Y-61297647D01*
X150918286Y-61325581D01*
X150795582Y-61414731D01*
X150795580Y-61414733D01*
X150795579Y-61414733D01*
X150654733Y-61555579D01*
X150654733Y-61555580D01*
X150654731Y-61555582D01*
X150622773Y-61599568D01*
X150537647Y-61716733D01*
X150460485Y-61868172D01*
X150412510Y-61918968D01*
X150344689Y-61935763D01*
X150278554Y-61913225D01*
X150239515Y-61868172D01*
X150197877Y-61786453D01*
X150162353Y-61716734D01*
X150045269Y-61555582D01*
X149904418Y-61414731D01*
X149743266Y-61297647D01*
X149664379Y-61257452D01*
X149565780Y-61207213D01*
X149376342Y-61145661D01*
X149228782Y-61122290D01*
X149179597Y-61114500D01*
X148980403Y-61114500D01*
X148918150Y-61124360D01*
X148783659Y-61145661D01*
X148783656Y-61145661D01*
X148594219Y-61207213D01*
X148416733Y-61297647D01*
X148378286Y-61325581D01*
X148255582Y-61414731D01*
X148255580Y-61414733D01*
X148255579Y-61414733D01*
X148114733Y-61555579D01*
X148114733Y-61555580D01*
X148114731Y-61555582D01*
X148082773Y-61599568D01*
X147997647Y-61716733D01*
X147920485Y-61868172D01*
X147872510Y-61918968D01*
X147804689Y-61935763D01*
X147738554Y-61913225D01*
X147699515Y-61868172D01*
X147657877Y-61786453D01*
X147622353Y-61716734D01*
X147505269Y-61555582D01*
X147364418Y-61414731D01*
X147203266Y-61297647D01*
X147124379Y-61257452D01*
X147025780Y-61207213D01*
X146836342Y-61145661D01*
X146688782Y-61122290D01*
X146639597Y-61114500D01*
X146440403Y-61114500D01*
X146378150Y-61124360D01*
X146243659Y-61145661D01*
X146243656Y-61145661D01*
X146054219Y-61207213D01*
X145876733Y-61297647D01*
X145838286Y-61325581D01*
X145715582Y-61414731D01*
X145715580Y-61414733D01*
X145715579Y-61414733D01*
X145574733Y-61555579D01*
X145574733Y-61555580D01*
X145574731Y-61555582D01*
X145542773Y-61599568D01*
X145457647Y-61716733D01*
X145380485Y-61868172D01*
X145332510Y-61918968D01*
X145264689Y-61935763D01*
X145198554Y-61913225D01*
X145159515Y-61868172D01*
X145117877Y-61786453D01*
X145082353Y-61716734D01*
X144965269Y-61555582D01*
X144824418Y-61414731D01*
X144663266Y-61297647D01*
X144584379Y-61257452D01*
X144485780Y-61207213D01*
X144296342Y-61145661D01*
X144148782Y-61122290D01*
X144099597Y-61114500D01*
X143900403Y-61114500D01*
X143838150Y-61124360D01*
X143703659Y-61145661D01*
X143703656Y-61145661D01*
X143514219Y-61207213D01*
X143336733Y-61297647D01*
X143298286Y-61325581D01*
X143175582Y-61414731D01*
X143175580Y-61414733D01*
X143175579Y-61414733D01*
X143034733Y-61555579D01*
X143034733Y-61555580D01*
X143034731Y-61555582D01*
X143002773Y-61599568D01*
X142917647Y-61716733D01*
X142827213Y-61894219D01*
X142765661Y-62083656D01*
X142765661Y-62083659D01*
X142734500Y-62280403D01*
X87920555Y-62280403D01*
X87949947Y-62272599D01*
X87950109Y-62272603D01*
X87950098Y-62272559D01*
X88392690Y-62155643D01*
X88665182Y-62083661D01*
X90412617Y-61622055D01*
X90413997Y-61621699D01*
X92181457Y-61178520D01*
X92183759Y-61177968D01*
X93602460Y-60852328D01*
X93605562Y-60851658D01*
X94787122Y-60612635D01*
X94790959Y-60611923D01*
X95790259Y-60442779D01*
X95794845Y-60442093D01*
X96644935Y-60331475D01*
X96650496Y-60330878D01*
X97374372Y-60269910D01*
X97380966Y-60269532D01*
X98001922Y-60250558D01*
X98005709Y-60250500D01*
X187997316Y-60250500D01*
X188002724Y-60250617D01*
G37*
%TD.AperFunction*%
%TD*%
M02*
