%TF.GenerationSoftware,KiCad,Pcbnew,9.0.1*%
%TF.CreationDate,2025-04-29T17:49:44+02:00*%
%TF.ProjectId,Projet S6,50726f6a-6574-4205-9336-2e6b69636164,rev?*%
%TF.SameCoordinates,Original*%
%TF.FileFunction,Plated,1,2,PTH,Drill*%
%TF.FilePolarity,Positive*%
%FSLAX46Y46*%
G04 Gerber Fmt 4.6, Leading zero omitted, Abs format (unit mm)*
G04 Created by KiCad (PCBNEW 9.0.1) date 2025-04-29 17:49:44*
%MOMM*%
%LPD*%
G01*
G04 APERTURE LIST*
%TA.AperFunction,ViaDrill*%
%ADD10C,0.800000*%
%TD*%
%TA.AperFunction,ComponentDrill*%
%ADD11C,1.000000*%
%TD*%
%TA.AperFunction,ComponentDrill*%
%ADD12C,1.020000*%
%TD*%
G04 APERTURE END LIST*
D10*
X51200000Y-70100000D03*
X56600000Y-64900000D03*
X58100000Y-73000000D03*
X69000000Y-73000000D03*
X75000000Y-73000000D03*
X81000000Y-73000000D03*
X86600000Y-76500000D03*
X87100000Y-73000000D03*
X91500000Y-63000000D03*
X93000000Y-73000000D03*
X97400000Y-78900000D03*
X99000000Y-73000000D03*
X105000000Y-73000000D03*
X108500000Y-78900000D03*
X111000000Y-73000000D03*
X117000000Y-73000000D03*
X121000000Y-78800000D03*
X124700000Y-71800000D03*
X125600000Y-67800000D03*
X128200000Y-65900000D03*
X131900000Y-79100000D03*
X133000000Y-61000000D03*
X135400000Y-66500000D03*
X135600000Y-77700000D03*
X137900000Y-75700000D03*
X141600000Y-72400000D03*
X141800000Y-61500000D03*
X141800000Y-77500000D03*
X165200000Y-74300000D03*
X165500000Y-66900000D03*
X170600000Y-79100000D03*
X172400000Y-69600000D03*
X179600000Y-75300000D03*
X179800000Y-64800000D03*
D11*
%TO.C,J101*%
X157000000Y-68750000D03*
X157000000Y-71250000D03*
%TO.C,J3*%
X170000000Y-66190000D03*
X170000000Y-68730000D03*
X170000000Y-71270000D03*
X170000000Y-73810000D03*
D12*
%TO.C,Nucleo2*%
X144000000Y-62380000D03*
X144000000Y-77620000D03*
X146540000Y-62380000D03*
X146540000Y-77620000D03*
X149080000Y-62380000D03*
X149080000Y-77620000D03*
X151620000Y-62380000D03*
X151620000Y-77620000D03*
X154160000Y-62380000D03*
X154160000Y-77620000D03*
X156700000Y-62380000D03*
X156700000Y-77620000D03*
X159240000Y-62380000D03*
X159240000Y-77620000D03*
X161780000Y-62380000D03*
X161780000Y-77620000D03*
X164320000Y-62380000D03*
X164320000Y-77620000D03*
X166860000Y-62380000D03*
X166860000Y-77620000D03*
X169400000Y-62380000D03*
X169400000Y-77620000D03*
X171940000Y-62380000D03*
X171940000Y-77620000D03*
X174480000Y-62380000D03*
X174480000Y-77620000D03*
X177020000Y-62380000D03*
X177020000Y-77620000D03*
X179560000Y-62380000D03*
X179560000Y-77620000D03*
M02*
