%TF.GenerationSoftware,KiCad,Pcbnew,9.0.1*%
%TF.CreationDate,2025-04-29T17:49:49+02:00*%
%TF.ProjectId,Projet S6,50726f6a-6574-4205-9336-2e6b69636164,rev?*%
%TF.SameCoordinates,Original*%
%TF.FileFunction,Legend,Top*%
%TF.FilePolarity,Positive*%
%FSLAX46Y46*%
G04 Gerber Fmt 4.6, Leading zero omitted, Abs format (unit mm)*
G04 Created by KiCad (PCBNEW 9.0.1) date 2025-04-29 17:49:49*
%MOMM*%
%LPD*%
G01*
G04 APERTURE LIST*
%ADD10C,0.150000*%
%ADD11C,0.127000*%
%ADD12C,0.120000*%
G04 APERTURE END LIST*
D10*
X189105176Y-69093483D02*
X187702798Y-69093483D01*
X187702798Y-69093483D02*
X189105176Y-68292124D01*
X189105176Y-68292124D02*
X187702798Y-68292124D01*
X188170258Y-67023306D02*
X189105176Y-67023306D01*
X188170258Y-67624325D02*
X188904837Y-67624325D01*
X188904837Y-67624325D02*
X189038397Y-67557545D01*
X189038397Y-67557545D02*
X189105176Y-67423985D01*
X189105176Y-67423985D02*
X189105176Y-67223646D01*
X189105176Y-67223646D02*
X189038397Y-67090086D01*
X189038397Y-67090086D02*
X188971617Y-67023306D01*
X189038397Y-65754488D02*
X189105176Y-65888048D01*
X189105176Y-65888048D02*
X189105176Y-66155167D01*
X189105176Y-66155167D02*
X189038397Y-66288727D01*
X189038397Y-66288727D02*
X188971617Y-66355507D01*
X188971617Y-66355507D02*
X188838057Y-66422287D01*
X188838057Y-66422287D02*
X188437377Y-66422287D01*
X188437377Y-66422287D02*
X188303818Y-66355507D01*
X188303818Y-66355507D02*
X188237038Y-66288727D01*
X188237038Y-66288727D02*
X188170258Y-66155167D01*
X188170258Y-66155167D02*
X188170258Y-65888048D01*
X188170258Y-65888048D02*
X188237038Y-65754488D01*
X189105176Y-64953129D02*
X189038397Y-65086689D01*
X189038397Y-65086689D02*
X188904837Y-65153469D01*
X188904837Y-65153469D02*
X187702798Y-65153469D01*
X189038397Y-63884651D02*
X189105176Y-64018211D01*
X189105176Y-64018211D02*
X189105176Y-64285330D01*
X189105176Y-64285330D02*
X189038397Y-64418890D01*
X189038397Y-64418890D02*
X188904837Y-64485670D01*
X188904837Y-64485670D02*
X188370597Y-64485670D01*
X188370597Y-64485670D02*
X188237038Y-64418890D01*
X188237038Y-64418890D02*
X188170258Y-64285330D01*
X188170258Y-64285330D02*
X188170258Y-64018211D01*
X188170258Y-64018211D02*
X188237038Y-63884651D01*
X188237038Y-63884651D02*
X188370597Y-63817871D01*
X188370597Y-63817871D02*
X188504157Y-63817871D01*
X188504157Y-63817871D02*
X188637717Y-64485670D01*
X189105176Y-63016512D02*
X189038397Y-63150072D01*
X189038397Y-63150072D02*
X188971617Y-63216852D01*
X188971617Y-63216852D02*
X188838057Y-63283632D01*
X188838057Y-63283632D02*
X188437377Y-63283632D01*
X188437377Y-63283632D02*
X188303818Y-63216852D01*
X188303818Y-63216852D02*
X188237038Y-63150072D01*
X188237038Y-63150072D02*
X188170258Y-63016512D01*
X188170258Y-63016512D02*
X188170258Y-62816173D01*
X188170258Y-62816173D02*
X188237038Y-62682613D01*
X188237038Y-62682613D02*
X188303818Y-62615833D01*
X188303818Y-62615833D02*
X188437377Y-62549053D01*
X188437377Y-62549053D02*
X188838057Y-62549053D01*
X188838057Y-62549053D02*
X188971617Y-62615833D01*
X188971617Y-62615833D02*
X189038397Y-62682613D01*
X189038397Y-62682613D02*
X189105176Y-62816173D01*
X189105176Y-62816173D02*
X189105176Y-63016512D01*
X187836358Y-62014814D02*
X187769578Y-61948034D01*
X187769578Y-61948034D02*
X187702798Y-61814474D01*
X187702798Y-61814474D02*
X187702798Y-61480575D01*
X187702798Y-61480575D02*
X187769578Y-61347015D01*
X187769578Y-61347015D02*
X187836358Y-61280235D01*
X187836358Y-61280235D02*
X187969918Y-61213455D01*
X187969918Y-61213455D02*
X188103478Y-61213455D01*
X188103478Y-61213455D02*
X188303818Y-61280235D01*
X188303818Y-61280235D02*
X189105176Y-62081594D01*
X189105176Y-62081594D02*
X189105176Y-61213455D01*
X114454819Y-74738094D02*
X113454819Y-74738094D01*
X113454819Y-74738094D02*
X113454819Y-74499999D01*
X113454819Y-74499999D02*
X113502438Y-74357142D01*
X113502438Y-74357142D02*
X113597676Y-74261904D01*
X113597676Y-74261904D02*
X113692914Y-74214285D01*
X113692914Y-74214285D02*
X113883390Y-74166666D01*
X113883390Y-74166666D02*
X114026247Y-74166666D01*
X114026247Y-74166666D02*
X114216723Y-74214285D01*
X114216723Y-74214285D02*
X114311961Y-74261904D01*
X114311961Y-74261904D02*
X114407200Y-74357142D01*
X114407200Y-74357142D02*
X114454819Y-74499999D01*
X114454819Y-74499999D02*
X114454819Y-74738094D01*
X113550057Y-73785713D02*
X113502438Y-73738094D01*
X113502438Y-73738094D02*
X113454819Y-73642856D01*
X113454819Y-73642856D02*
X113454819Y-73404761D01*
X113454819Y-73404761D02*
X113502438Y-73309523D01*
X113502438Y-73309523D02*
X113550057Y-73261904D01*
X113550057Y-73261904D02*
X113645295Y-73214285D01*
X113645295Y-73214285D02*
X113740533Y-73214285D01*
X113740533Y-73214285D02*
X113883390Y-73261904D01*
X113883390Y-73261904D02*
X114454819Y-73833332D01*
X114454819Y-73833332D02*
X114454819Y-73214285D01*
X102454819Y-74738094D02*
X101454819Y-74738094D01*
X101454819Y-74738094D02*
X101454819Y-74499999D01*
X101454819Y-74499999D02*
X101502438Y-74357142D01*
X101502438Y-74357142D02*
X101597676Y-74261904D01*
X101597676Y-74261904D02*
X101692914Y-74214285D01*
X101692914Y-74214285D02*
X101883390Y-74166666D01*
X101883390Y-74166666D02*
X102026247Y-74166666D01*
X102026247Y-74166666D02*
X102216723Y-74214285D01*
X102216723Y-74214285D02*
X102311961Y-74261904D01*
X102311961Y-74261904D02*
X102407200Y-74357142D01*
X102407200Y-74357142D02*
X102454819Y-74499999D01*
X102454819Y-74499999D02*
X102454819Y-74738094D01*
X101788152Y-73309523D02*
X102454819Y-73309523D01*
X101407200Y-73547618D02*
X102121485Y-73785713D01*
X102121485Y-73785713D02*
X102121485Y-73166666D01*
X66454819Y-75214285D02*
X65454819Y-75214285D01*
X65454819Y-75214285D02*
X65454819Y-74976190D01*
X65454819Y-74976190D02*
X65502438Y-74833333D01*
X65502438Y-74833333D02*
X65597676Y-74738095D01*
X65597676Y-74738095D02*
X65692914Y-74690476D01*
X65692914Y-74690476D02*
X65883390Y-74642857D01*
X65883390Y-74642857D02*
X66026247Y-74642857D01*
X66026247Y-74642857D02*
X66216723Y-74690476D01*
X66216723Y-74690476D02*
X66311961Y-74738095D01*
X66311961Y-74738095D02*
X66407200Y-74833333D01*
X66407200Y-74833333D02*
X66454819Y-74976190D01*
X66454819Y-74976190D02*
X66454819Y-75214285D01*
X66454819Y-73690476D02*
X66454819Y-74261904D01*
X66454819Y-73976190D02*
X65454819Y-73976190D01*
X65454819Y-73976190D02*
X65597676Y-74071428D01*
X65597676Y-74071428D02*
X65692914Y-74166666D01*
X65692914Y-74166666D02*
X65740533Y-74261904D01*
X65454819Y-73071428D02*
X65454819Y-72976190D01*
X65454819Y-72976190D02*
X65502438Y-72880952D01*
X65502438Y-72880952D02*
X65550057Y-72833333D01*
X65550057Y-72833333D02*
X65645295Y-72785714D01*
X65645295Y-72785714D02*
X65835771Y-72738095D01*
X65835771Y-72738095D02*
X66073866Y-72738095D01*
X66073866Y-72738095D02*
X66264342Y-72785714D01*
X66264342Y-72785714D02*
X66359580Y-72833333D01*
X66359580Y-72833333D02*
X66407200Y-72880952D01*
X66407200Y-72880952D02*
X66454819Y-72976190D01*
X66454819Y-72976190D02*
X66454819Y-73071428D01*
X66454819Y-73071428D02*
X66407200Y-73166666D01*
X66407200Y-73166666D02*
X66359580Y-73214285D01*
X66359580Y-73214285D02*
X66264342Y-73261904D01*
X66264342Y-73261904D02*
X66073866Y-73309523D01*
X66073866Y-73309523D02*
X65835771Y-73309523D01*
X65835771Y-73309523D02*
X65645295Y-73261904D01*
X65645295Y-73261904D02*
X65550057Y-73214285D01*
X65550057Y-73214285D02*
X65502438Y-73166666D01*
X65502438Y-73166666D02*
X65454819Y-73071428D01*
X84454819Y-74738094D02*
X83454819Y-74738094D01*
X83454819Y-74738094D02*
X83454819Y-74499999D01*
X83454819Y-74499999D02*
X83502438Y-74357142D01*
X83502438Y-74357142D02*
X83597676Y-74261904D01*
X83597676Y-74261904D02*
X83692914Y-74214285D01*
X83692914Y-74214285D02*
X83883390Y-74166666D01*
X83883390Y-74166666D02*
X84026247Y-74166666D01*
X84026247Y-74166666D02*
X84216723Y-74214285D01*
X84216723Y-74214285D02*
X84311961Y-74261904D01*
X84311961Y-74261904D02*
X84407200Y-74357142D01*
X84407200Y-74357142D02*
X84454819Y-74499999D01*
X84454819Y-74499999D02*
X84454819Y-74738094D01*
X83454819Y-73833332D02*
X83454819Y-73166666D01*
X83454819Y-73166666D02*
X84454819Y-73595237D01*
X78454819Y-75238094D02*
X77454819Y-75238094D01*
X77454819Y-75238094D02*
X77454819Y-74999999D01*
X77454819Y-74999999D02*
X77502438Y-74857142D01*
X77502438Y-74857142D02*
X77597676Y-74761904D01*
X77597676Y-74761904D02*
X77692914Y-74714285D01*
X77692914Y-74714285D02*
X77883390Y-74666666D01*
X77883390Y-74666666D02*
X78026247Y-74666666D01*
X78026247Y-74666666D02*
X78216723Y-74714285D01*
X78216723Y-74714285D02*
X78311961Y-74761904D01*
X78311961Y-74761904D02*
X78407200Y-74857142D01*
X78407200Y-74857142D02*
X78454819Y-74999999D01*
X78454819Y-74999999D02*
X78454819Y-75238094D01*
X77883390Y-74095237D02*
X77835771Y-74190475D01*
X77835771Y-74190475D02*
X77788152Y-74238094D01*
X77788152Y-74238094D02*
X77692914Y-74285713D01*
X77692914Y-74285713D02*
X77645295Y-74285713D01*
X77645295Y-74285713D02*
X77550057Y-74238094D01*
X77550057Y-74238094D02*
X77502438Y-74190475D01*
X77502438Y-74190475D02*
X77454819Y-74095237D01*
X77454819Y-74095237D02*
X77454819Y-73904761D01*
X77454819Y-73904761D02*
X77502438Y-73809523D01*
X77502438Y-73809523D02*
X77550057Y-73761904D01*
X77550057Y-73761904D02*
X77645295Y-73714285D01*
X77645295Y-73714285D02*
X77692914Y-73714285D01*
X77692914Y-73714285D02*
X77788152Y-73761904D01*
X77788152Y-73761904D02*
X77835771Y-73809523D01*
X77835771Y-73809523D02*
X77883390Y-73904761D01*
X77883390Y-73904761D02*
X77883390Y-74095237D01*
X77883390Y-74095237D02*
X77931009Y-74190475D01*
X77931009Y-74190475D02*
X77978628Y-74238094D01*
X77978628Y-74238094D02*
X78073866Y-74285713D01*
X78073866Y-74285713D02*
X78264342Y-74285713D01*
X78264342Y-74285713D02*
X78359580Y-74238094D01*
X78359580Y-74238094D02*
X78407200Y-74190475D01*
X78407200Y-74190475D02*
X78454819Y-74095237D01*
X78454819Y-74095237D02*
X78454819Y-73904761D01*
X78454819Y-73904761D02*
X78407200Y-73809523D01*
X78407200Y-73809523D02*
X78359580Y-73761904D01*
X78359580Y-73761904D02*
X78264342Y-73714285D01*
X78264342Y-73714285D02*
X78073866Y-73714285D01*
X78073866Y-73714285D02*
X77978628Y-73761904D01*
X77978628Y-73761904D02*
X77931009Y-73809523D01*
X77931009Y-73809523D02*
X77883390Y-73904761D01*
X120454819Y-74738094D02*
X119454819Y-74738094D01*
X119454819Y-74738094D02*
X119454819Y-74499999D01*
X119454819Y-74499999D02*
X119502438Y-74357142D01*
X119502438Y-74357142D02*
X119597676Y-74261904D01*
X119597676Y-74261904D02*
X119692914Y-74214285D01*
X119692914Y-74214285D02*
X119883390Y-74166666D01*
X119883390Y-74166666D02*
X120026247Y-74166666D01*
X120026247Y-74166666D02*
X120216723Y-74214285D01*
X120216723Y-74214285D02*
X120311961Y-74261904D01*
X120311961Y-74261904D02*
X120407200Y-74357142D01*
X120407200Y-74357142D02*
X120454819Y-74499999D01*
X120454819Y-74499999D02*
X120454819Y-74738094D01*
X120454819Y-73214285D02*
X120454819Y-73785713D01*
X120454819Y-73499999D02*
X119454819Y-73499999D01*
X119454819Y-73499999D02*
X119597676Y-73595237D01*
X119597676Y-73595237D02*
X119692914Y-73690475D01*
X119692914Y-73690475D02*
X119740533Y-73785713D01*
X69454819Y-74642857D02*
X68978628Y-74976190D01*
X69454819Y-75214285D02*
X68454819Y-75214285D01*
X68454819Y-75214285D02*
X68454819Y-74833333D01*
X68454819Y-74833333D02*
X68502438Y-74738095D01*
X68502438Y-74738095D02*
X68550057Y-74690476D01*
X68550057Y-74690476D02*
X68645295Y-74642857D01*
X68645295Y-74642857D02*
X68788152Y-74642857D01*
X68788152Y-74642857D02*
X68883390Y-74690476D01*
X68883390Y-74690476D02*
X68931009Y-74738095D01*
X68931009Y-74738095D02*
X68978628Y-74833333D01*
X68978628Y-74833333D02*
X68978628Y-75214285D01*
X69454819Y-73690476D02*
X69454819Y-74261904D01*
X69454819Y-73976190D02*
X68454819Y-73976190D01*
X68454819Y-73976190D02*
X68597676Y-74071428D01*
X68597676Y-74071428D02*
X68692914Y-74166666D01*
X68692914Y-74166666D02*
X68740533Y-74261904D01*
X68454819Y-73071428D02*
X68454819Y-72976190D01*
X68454819Y-72976190D02*
X68502438Y-72880952D01*
X68502438Y-72880952D02*
X68550057Y-72833333D01*
X68550057Y-72833333D02*
X68645295Y-72785714D01*
X68645295Y-72785714D02*
X68835771Y-72738095D01*
X68835771Y-72738095D02*
X69073866Y-72738095D01*
X69073866Y-72738095D02*
X69264342Y-72785714D01*
X69264342Y-72785714D02*
X69359580Y-72833333D01*
X69359580Y-72833333D02*
X69407200Y-72880952D01*
X69407200Y-72880952D02*
X69454819Y-72976190D01*
X69454819Y-72976190D02*
X69454819Y-73071428D01*
X69454819Y-73071428D02*
X69407200Y-73166666D01*
X69407200Y-73166666D02*
X69359580Y-73214285D01*
X69359580Y-73214285D02*
X69264342Y-73261904D01*
X69264342Y-73261904D02*
X69073866Y-73309523D01*
X69073866Y-73309523D02*
X68835771Y-73309523D01*
X68835771Y-73309523D02*
X68645295Y-73261904D01*
X68645295Y-73261904D02*
X68550057Y-73214285D01*
X68550057Y-73214285D02*
X68502438Y-73166666D01*
X68502438Y-73166666D02*
X68454819Y-73071428D01*
X108454819Y-74738094D02*
X107454819Y-74738094D01*
X107454819Y-74738094D02*
X107454819Y-74499999D01*
X107454819Y-74499999D02*
X107502438Y-74357142D01*
X107502438Y-74357142D02*
X107597676Y-74261904D01*
X107597676Y-74261904D02*
X107692914Y-74214285D01*
X107692914Y-74214285D02*
X107883390Y-74166666D01*
X107883390Y-74166666D02*
X108026247Y-74166666D01*
X108026247Y-74166666D02*
X108216723Y-74214285D01*
X108216723Y-74214285D02*
X108311961Y-74261904D01*
X108311961Y-74261904D02*
X108407200Y-74357142D01*
X108407200Y-74357142D02*
X108454819Y-74499999D01*
X108454819Y-74499999D02*
X108454819Y-74738094D01*
X107454819Y-73833332D02*
X107454819Y-73214285D01*
X107454819Y-73214285D02*
X107835771Y-73547618D01*
X107835771Y-73547618D02*
X107835771Y-73404761D01*
X107835771Y-73404761D02*
X107883390Y-73309523D01*
X107883390Y-73309523D02*
X107931009Y-73261904D01*
X107931009Y-73261904D02*
X108026247Y-73214285D01*
X108026247Y-73214285D02*
X108264342Y-73214285D01*
X108264342Y-73214285D02*
X108359580Y-73261904D01*
X108359580Y-73261904D02*
X108407200Y-73309523D01*
X108407200Y-73309523D02*
X108454819Y-73404761D01*
X108454819Y-73404761D02*
X108454819Y-73690475D01*
X108454819Y-73690475D02*
X108407200Y-73785713D01*
X108407200Y-73785713D02*
X108359580Y-73833332D01*
X99454819Y-73166666D02*
X98978628Y-73499999D01*
X99454819Y-73738094D02*
X98454819Y-73738094D01*
X98454819Y-73738094D02*
X98454819Y-73357142D01*
X98454819Y-73357142D02*
X98502438Y-73261904D01*
X98502438Y-73261904D02*
X98550057Y-73214285D01*
X98550057Y-73214285D02*
X98645295Y-73166666D01*
X98645295Y-73166666D02*
X98788152Y-73166666D01*
X98788152Y-73166666D02*
X98883390Y-73214285D01*
X98883390Y-73214285D02*
X98931009Y-73261904D01*
X98931009Y-73261904D02*
X98978628Y-73357142D01*
X98978628Y-73357142D02*
X98978628Y-73738094D01*
X98454819Y-72261904D02*
X98454819Y-72738094D01*
X98454819Y-72738094D02*
X98931009Y-72785713D01*
X98931009Y-72785713D02*
X98883390Y-72738094D01*
X98883390Y-72738094D02*
X98835771Y-72642856D01*
X98835771Y-72642856D02*
X98835771Y-72404761D01*
X98835771Y-72404761D02*
X98883390Y-72309523D01*
X98883390Y-72309523D02*
X98931009Y-72261904D01*
X98931009Y-72261904D02*
X99026247Y-72214285D01*
X99026247Y-72214285D02*
X99264342Y-72214285D01*
X99264342Y-72214285D02*
X99359580Y-72261904D01*
X99359580Y-72261904D02*
X99407200Y-72309523D01*
X99407200Y-72309523D02*
X99454819Y-72404761D01*
X99454819Y-72404761D02*
X99454819Y-72642856D01*
X99454819Y-72642856D02*
X99407200Y-72738094D01*
X99407200Y-72738094D02*
X99359580Y-72785713D01*
X93454819Y-73666666D02*
X92978628Y-73999999D01*
X93454819Y-74238094D02*
X92454819Y-74238094D01*
X92454819Y-74238094D02*
X92454819Y-73857142D01*
X92454819Y-73857142D02*
X92502438Y-73761904D01*
X92502438Y-73761904D02*
X92550057Y-73714285D01*
X92550057Y-73714285D02*
X92645295Y-73666666D01*
X92645295Y-73666666D02*
X92788152Y-73666666D01*
X92788152Y-73666666D02*
X92883390Y-73714285D01*
X92883390Y-73714285D02*
X92931009Y-73761904D01*
X92931009Y-73761904D02*
X92978628Y-73857142D01*
X92978628Y-73857142D02*
X92978628Y-74238094D01*
X92454819Y-72809523D02*
X92454819Y-72999999D01*
X92454819Y-72999999D02*
X92502438Y-73095237D01*
X92502438Y-73095237D02*
X92550057Y-73142856D01*
X92550057Y-73142856D02*
X92692914Y-73238094D01*
X92692914Y-73238094D02*
X92883390Y-73285713D01*
X92883390Y-73285713D02*
X93264342Y-73285713D01*
X93264342Y-73285713D02*
X93359580Y-73238094D01*
X93359580Y-73238094D02*
X93407200Y-73190475D01*
X93407200Y-73190475D02*
X93454819Y-73095237D01*
X93454819Y-73095237D02*
X93454819Y-72904761D01*
X93454819Y-72904761D02*
X93407200Y-72809523D01*
X93407200Y-72809523D02*
X93359580Y-72761904D01*
X93359580Y-72761904D02*
X93264342Y-72714285D01*
X93264342Y-72714285D02*
X93026247Y-72714285D01*
X93026247Y-72714285D02*
X92931009Y-72761904D01*
X92931009Y-72761904D02*
X92883390Y-72809523D01*
X92883390Y-72809523D02*
X92835771Y-72904761D01*
X92835771Y-72904761D02*
X92835771Y-73095237D01*
X92835771Y-73095237D02*
X92883390Y-73190475D01*
X92883390Y-73190475D02*
X92931009Y-73238094D01*
X92931009Y-73238094D02*
X93026247Y-73285713D01*
X125104819Y-70166666D02*
X124628628Y-70499999D01*
X125104819Y-70738094D02*
X124104819Y-70738094D01*
X124104819Y-70738094D02*
X124104819Y-70357142D01*
X124104819Y-70357142D02*
X124152438Y-70261904D01*
X124152438Y-70261904D02*
X124200057Y-70214285D01*
X124200057Y-70214285D02*
X124295295Y-70166666D01*
X124295295Y-70166666D02*
X124438152Y-70166666D01*
X124438152Y-70166666D02*
X124533390Y-70214285D01*
X124533390Y-70214285D02*
X124581009Y-70261904D01*
X124581009Y-70261904D02*
X124628628Y-70357142D01*
X124628628Y-70357142D02*
X124628628Y-70738094D01*
X125104819Y-69214285D02*
X125104819Y-69785713D01*
X125104819Y-69499999D02*
X124104819Y-69499999D01*
X124104819Y-69499999D02*
X124247676Y-69595237D01*
X124247676Y-69595237D02*
X124342914Y-69690475D01*
X124342914Y-69690475D02*
X124390533Y-69785713D01*
X60454819Y-70642857D02*
X59978628Y-70976190D01*
X60454819Y-71214285D02*
X59454819Y-71214285D01*
X59454819Y-71214285D02*
X59454819Y-70833333D01*
X59454819Y-70833333D02*
X59502438Y-70738095D01*
X59502438Y-70738095D02*
X59550057Y-70690476D01*
X59550057Y-70690476D02*
X59645295Y-70642857D01*
X59645295Y-70642857D02*
X59788152Y-70642857D01*
X59788152Y-70642857D02*
X59883390Y-70690476D01*
X59883390Y-70690476D02*
X59931009Y-70738095D01*
X59931009Y-70738095D02*
X59978628Y-70833333D01*
X59978628Y-70833333D02*
X59978628Y-71214285D01*
X60454819Y-69690476D02*
X60454819Y-70261904D01*
X60454819Y-69976190D02*
X59454819Y-69976190D01*
X59454819Y-69976190D02*
X59597676Y-70071428D01*
X59597676Y-70071428D02*
X59692914Y-70166666D01*
X59692914Y-70166666D02*
X59740533Y-70261904D01*
X60454819Y-68738095D02*
X60454819Y-69309523D01*
X60454819Y-69023809D02*
X59454819Y-69023809D01*
X59454819Y-69023809D02*
X59597676Y-69119047D01*
X59597676Y-69119047D02*
X59692914Y-69214285D01*
X59692914Y-69214285D02*
X59740533Y-69309523D01*
X105454819Y-73166666D02*
X104978628Y-73499999D01*
X105454819Y-73738094D02*
X104454819Y-73738094D01*
X104454819Y-73738094D02*
X104454819Y-73357142D01*
X104454819Y-73357142D02*
X104502438Y-73261904D01*
X104502438Y-73261904D02*
X104550057Y-73214285D01*
X104550057Y-73214285D02*
X104645295Y-73166666D01*
X104645295Y-73166666D02*
X104788152Y-73166666D01*
X104788152Y-73166666D02*
X104883390Y-73214285D01*
X104883390Y-73214285D02*
X104931009Y-73261904D01*
X104931009Y-73261904D02*
X104978628Y-73357142D01*
X104978628Y-73357142D02*
X104978628Y-73738094D01*
X104788152Y-72309523D02*
X105454819Y-72309523D01*
X104407200Y-72547618D02*
X105121485Y-72785713D01*
X105121485Y-72785713D02*
X105121485Y-72166666D01*
X75454819Y-73666666D02*
X74978628Y-73999999D01*
X75454819Y-74238094D02*
X74454819Y-74238094D01*
X74454819Y-74238094D02*
X74454819Y-73857142D01*
X74454819Y-73857142D02*
X74502438Y-73761904D01*
X74502438Y-73761904D02*
X74550057Y-73714285D01*
X74550057Y-73714285D02*
X74645295Y-73666666D01*
X74645295Y-73666666D02*
X74788152Y-73666666D01*
X74788152Y-73666666D02*
X74883390Y-73714285D01*
X74883390Y-73714285D02*
X74931009Y-73761904D01*
X74931009Y-73761904D02*
X74978628Y-73857142D01*
X74978628Y-73857142D02*
X74978628Y-74238094D01*
X75454819Y-73190475D02*
X75454819Y-72999999D01*
X75454819Y-72999999D02*
X75407200Y-72904761D01*
X75407200Y-72904761D02*
X75359580Y-72857142D01*
X75359580Y-72857142D02*
X75216723Y-72761904D01*
X75216723Y-72761904D02*
X75026247Y-72714285D01*
X75026247Y-72714285D02*
X74645295Y-72714285D01*
X74645295Y-72714285D02*
X74550057Y-72761904D01*
X74550057Y-72761904D02*
X74502438Y-72809523D01*
X74502438Y-72809523D02*
X74454819Y-72904761D01*
X74454819Y-72904761D02*
X74454819Y-73095237D01*
X74454819Y-73095237D02*
X74502438Y-73190475D01*
X74502438Y-73190475D02*
X74550057Y-73238094D01*
X74550057Y-73238094D02*
X74645295Y-73285713D01*
X74645295Y-73285713D02*
X74883390Y-73285713D01*
X74883390Y-73285713D02*
X74978628Y-73238094D01*
X74978628Y-73238094D02*
X75026247Y-73190475D01*
X75026247Y-73190475D02*
X75073866Y-73095237D01*
X75073866Y-73095237D02*
X75073866Y-72904761D01*
X75073866Y-72904761D02*
X75026247Y-72809523D01*
X75026247Y-72809523D02*
X74978628Y-72761904D01*
X74978628Y-72761904D02*
X74883390Y-72714285D01*
X128285714Y-67254819D02*
X128285714Y-66254819D01*
X128285714Y-66731009D02*
X128857142Y-66731009D01*
X128857142Y-67254819D02*
X128857142Y-66254819D01*
X129857142Y-67254819D02*
X129285714Y-67254819D01*
X129571428Y-67254819D02*
X129571428Y-66254819D01*
X129571428Y-66254819D02*
X129476190Y-66397676D01*
X129476190Y-66397676D02*
X129380952Y-66492914D01*
X129380952Y-66492914D02*
X129285714Y-66540533D01*
X130476190Y-66254819D02*
X130571428Y-66254819D01*
X130571428Y-66254819D02*
X130666666Y-66302438D01*
X130666666Y-66302438D02*
X130714285Y-66350057D01*
X130714285Y-66350057D02*
X130761904Y-66445295D01*
X130761904Y-66445295D02*
X130809523Y-66635771D01*
X130809523Y-66635771D02*
X130809523Y-66873866D01*
X130809523Y-66873866D02*
X130761904Y-67064342D01*
X130761904Y-67064342D02*
X130714285Y-67159580D01*
X130714285Y-67159580D02*
X130666666Y-67207200D01*
X130666666Y-67207200D02*
X130571428Y-67254819D01*
X130571428Y-67254819D02*
X130476190Y-67254819D01*
X130476190Y-67254819D02*
X130380952Y-67207200D01*
X130380952Y-67207200D02*
X130333333Y-67159580D01*
X130333333Y-67159580D02*
X130285714Y-67064342D01*
X130285714Y-67064342D02*
X130238095Y-66873866D01*
X130238095Y-66873866D02*
X130238095Y-66635771D01*
X130238095Y-66635771D02*
X130285714Y-66445295D01*
X130285714Y-66445295D02*
X130333333Y-66350057D01*
X130333333Y-66350057D02*
X130380952Y-66302438D01*
X130380952Y-66302438D02*
X130476190Y-66254819D01*
X131761904Y-67254819D02*
X131190476Y-67254819D01*
X131476190Y-67254819D02*
X131476190Y-66254819D01*
X131476190Y-66254819D02*
X131380952Y-66397676D01*
X131380952Y-66397676D02*
X131285714Y-66492914D01*
X131285714Y-66492914D02*
X131190476Y-66540533D01*
X111454819Y-73666666D02*
X110978628Y-73999999D01*
X111454819Y-74238094D02*
X110454819Y-74238094D01*
X110454819Y-74238094D02*
X110454819Y-73857142D01*
X110454819Y-73857142D02*
X110502438Y-73761904D01*
X110502438Y-73761904D02*
X110550057Y-73714285D01*
X110550057Y-73714285D02*
X110645295Y-73666666D01*
X110645295Y-73666666D02*
X110788152Y-73666666D01*
X110788152Y-73666666D02*
X110883390Y-73714285D01*
X110883390Y-73714285D02*
X110931009Y-73761904D01*
X110931009Y-73761904D02*
X110978628Y-73857142D01*
X110978628Y-73857142D02*
X110978628Y-74238094D01*
X110454819Y-73333332D02*
X110454819Y-72714285D01*
X110454819Y-72714285D02*
X110835771Y-73047618D01*
X110835771Y-73047618D02*
X110835771Y-72904761D01*
X110835771Y-72904761D02*
X110883390Y-72809523D01*
X110883390Y-72809523D02*
X110931009Y-72761904D01*
X110931009Y-72761904D02*
X111026247Y-72714285D01*
X111026247Y-72714285D02*
X111264342Y-72714285D01*
X111264342Y-72714285D02*
X111359580Y-72761904D01*
X111359580Y-72761904D02*
X111407200Y-72809523D01*
X111407200Y-72809523D02*
X111454819Y-72904761D01*
X111454819Y-72904761D02*
X111454819Y-73190475D01*
X111454819Y-73190475D02*
X111407200Y-73285713D01*
X111407200Y-73285713D02*
X111359580Y-73333332D01*
X72454819Y-75238094D02*
X71454819Y-75238094D01*
X71454819Y-75238094D02*
X71454819Y-74999999D01*
X71454819Y-74999999D02*
X71502438Y-74857142D01*
X71502438Y-74857142D02*
X71597676Y-74761904D01*
X71597676Y-74761904D02*
X71692914Y-74714285D01*
X71692914Y-74714285D02*
X71883390Y-74666666D01*
X71883390Y-74666666D02*
X72026247Y-74666666D01*
X72026247Y-74666666D02*
X72216723Y-74714285D01*
X72216723Y-74714285D02*
X72311961Y-74761904D01*
X72311961Y-74761904D02*
X72407200Y-74857142D01*
X72407200Y-74857142D02*
X72454819Y-74999999D01*
X72454819Y-74999999D02*
X72454819Y-75238094D01*
X72454819Y-74190475D02*
X72454819Y-73999999D01*
X72454819Y-73999999D02*
X72407200Y-73904761D01*
X72407200Y-73904761D02*
X72359580Y-73857142D01*
X72359580Y-73857142D02*
X72216723Y-73761904D01*
X72216723Y-73761904D02*
X72026247Y-73714285D01*
X72026247Y-73714285D02*
X71645295Y-73714285D01*
X71645295Y-73714285D02*
X71550057Y-73761904D01*
X71550057Y-73761904D02*
X71502438Y-73809523D01*
X71502438Y-73809523D02*
X71454819Y-73904761D01*
X71454819Y-73904761D02*
X71454819Y-74095237D01*
X71454819Y-74095237D02*
X71502438Y-74190475D01*
X71502438Y-74190475D02*
X71550057Y-74238094D01*
X71550057Y-74238094D02*
X71645295Y-74285713D01*
X71645295Y-74285713D02*
X71883390Y-74285713D01*
X71883390Y-74285713D02*
X71978628Y-74238094D01*
X71978628Y-74238094D02*
X72026247Y-74190475D01*
X72026247Y-74190475D02*
X72073866Y-74095237D01*
X72073866Y-74095237D02*
X72073866Y-73904761D01*
X72073866Y-73904761D02*
X72026247Y-73809523D01*
X72026247Y-73809523D02*
X71978628Y-73761904D01*
X71978628Y-73761904D02*
X71883390Y-73714285D01*
X53454819Y-71214285D02*
X52454819Y-71214285D01*
X52454819Y-71214285D02*
X52454819Y-70976190D01*
X52454819Y-70976190D02*
X52502438Y-70833333D01*
X52502438Y-70833333D02*
X52597676Y-70738095D01*
X52597676Y-70738095D02*
X52692914Y-70690476D01*
X52692914Y-70690476D02*
X52883390Y-70642857D01*
X52883390Y-70642857D02*
X53026247Y-70642857D01*
X53026247Y-70642857D02*
X53216723Y-70690476D01*
X53216723Y-70690476D02*
X53311961Y-70738095D01*
X53311961Y-70738095D02*
X53407200Y-70833333D01*
X53407200Y-70833333D02*
X53454819Y-70976190D01*
X53454819Y-70976190D02*
X53454819Y-71214285D01*
X53454819Y-69690476D02*
X53454819Y-70261904D01*
X53454819Y-69976190D02*
X52454819Y-69976190D01*
X52454819Y-69976190D02*
X52597676Y-70071428D01*
X52597676Y-70071428D02*
X52692914Y-70166666D01*
X52692914Y-70166666D02*
X52740533Y-70261904D01*
X53454819Y-68738095D02*
X53454819Y-69309523D01*
X53454819Y-69023809D02*
X52454819Y-69023809D01*
X52454819Y-69023809D02*
X52597676Y-69119047D01*
X52597676Y-69119047D02*
X52692914Y-69214285D01*
X52692914Y-69214285D02*
X52740533Y-69309523D01*
X117454819Y-73166666D02*
X116978628Y-73499999D01*
X117454819Y-73738094D02*
X116454819Y-73738094D01*
X116454819Y-73738094D02*
X116454819Y-73357142D01*
X116454819Y-73357142D02*
X116502438Y-73261904D01*
X116502438Y-73261904D02*
X116550057Y-73214285D01*
X116550057Y-73214285D02*
X116645295Y-73166666D01*
X116645295Y-73166666D02*
X116788152Y-73166666D01*
X116788152Y-73166666D02*
X116883390Y-73214285D01*
X116883390Y-73214285D02*
X116931009Y-73261904D01*
X116931009Y-73261904D02*
X116978628Y-73357142D01*
X116978628Y-73357142D02*
X116978628Y-73738094D01*
X116550057Y-72785713D02*
X116502438Y-72738094D01*
X116502438Y-72738094D02*
X116454819Y-72642856D01*
X116454819Y-72642856D02*
X116454819Y-72404761D01*
X116454819Y-72404761D02*
X116502438Y-72309523D01*
X116502438Y-72309523D02*
X116550057Y-72261904D01*
X116550057Y-72261904D02*
X116645295Y-72214285D01*
X116645295Y-72214285D02*
X116740533Y-72214285D01*
X116740533Y-72214285D02*
X116883390Y-72261904D01*
X116883390Y-72261904D02*
X117454819Y-72833332D01*
X117454819Y-72833332D02*
X117454819Y-72214285D01*
X90954819Y-74738094D02*
X89954819Y-74738094D01*
X89954819Y-74738094D02*
X89954819Y-74499999D01*
X89954819Y-74499999D02*
X90002438Y-74357142D01*
X90002438Y-74357142D02*
X90097676Y-74261904D01*
X90097676Y-74261904D02*
X90192914Y-74214285D01*
X90192914Y-74214285D02*
X90383390Y-74166666D01*
X90383390Y-74166666D02*
X90526247Y-74166666D01*
X90526247Y-74166666D02*
X90716723Y-74214285D01*
X90716723Y-74214285D02*
X90811961Y-74261904D01*
X90811961Y-74261904D02*
X90907200Y-74357142D01*
X90907200Y-74357142D02*
X90954819Y-74499999D01*
X90954819Y-74499999D02*
X90954819Y-74738094D01*
X89954819Y-73309523D02*
X89954819Y-73499999D01*
X89954819Y-73499999D02*
X90002438Y-73595237D01*
X90002438Y-73595237D02*
X90050057Y-73642856D01*
X90050057Y-73642856D02*
X90192914Y-73738094D01*
X90192914Y-73738094D02*
X90383390Y-73785713D01*
X90383390Y-73785713D02*
X90764342Y-73785713D01*
X90764342Y-73785713D02*
X90859580Y-73738094D01*
X90859580Y-73738094D02*
X90907200Y-73690475D01*
X90907200Y-73690475D02*
X90954819Y-73595237D01*
X90954819Y-73595237D02*
X90954819Y-73404761D01*
X90954819Y-73404761D02*
X90907200Y-73309523D01*
X90907200Y-73309523D02*
X90859580Y-73261904D01*
X90859580Y-73261904D02*
X90764342Y-73214285D01*
X90764342Y-73214285D02*
X90526247Y-73214285D01*
X90526247Y-73214285D02*
X90431009Y-73261904D01*
X90431009Y-73261904D02*
X90383390Y-73309523D01*
X90383390Y-73309523D02*
X90335771Y-73404761D01*
X90335771Y-73404761D02*
X90335771Y-73595237D01*
X90335771Y-73595237D02*
X90383390Y-73690475D01*
X90383390Y-73690475D02*
X90431009Y-73738094D01*
X90431009Y-73738094D02*
X90526247Y-73785713D01*
X81454819Y-73166666D02*
X80978628Y-73499999D01*
X81454819Y-73738094D02*
X80454819Y-73738094D01*
X80454819Y-73738094D02*
X80454819Y-73357142D01*
X80454819Y-73357142D02*
X80502438Y-73261904D01*
X80502438Y-73261904D02*
X80550057Y-73214285D01*
X80550057Y-73214285D02*
X80645295Y-73166666D01*
X80645295Y-73166666D02*
X80788152Y-73166666D01*
X80788152Y-73166666D02*
X80883390Y-73214285D01*
X80883390Y-73214285D02*
X80931009Y-73261904D01*
X80931009Y-73261904D02*
X80978628Y-73357142D01*
X80978628Y-73357142D02*
X80978628Y-73738094D01*
X80883390Y-72595237D02*
X80835771Y-72690475D01*
X80835771Y-72690475D02*
X80788152Y-72738094D01*
X80788152Y-72738094D02*
X80692914Y-72785713D01*
X80692914Y-72785713D02*
X80645295Y-72785713D01*
X80645295Y-72785713D02*
X80550057Y-72738094D01*
X80550057Y-72738094D02*
X80502438Y-72690475D01*
X80502438Y-72690475D02*
X80454819Y-72595237D01*
X80454819Y-72595237D02*
X80454819Y-72404761D01*
X80454819Y-72404761D02*
X80502438Y-72309523D01*
X80502438Y-72309523D02*
X80550057Y-72261904D01*
X80550057Y-72261904D02*
X80645295Y-72214285D01*
X80645295Y-72214285D02*
X80692914Y-72214285D01*
X80692914Y-72214285D02*
X80788152Y-72261904D01*
X80788152Y-72261904D02*
X80835771Y-72309523D01*
X80835771Y-72309523D02*
X80883390Y-72404761D01*
X80883390Y-72404761D02*
X80883390Y-72595237D01*
X80883390Y-72595237D02*
X80931009Y-72690475D01*
X80931009Y-72690475D02*
X80978628Y-72738094D01*
X80978628Y-72738094D02*
X81073866Y-72785713D01*
X81073866Y-72785713D02*
X81264342Y-72785713D01*
X81264342Y-72785713D02*
X81359580Y-72738094D01*
X81359580Y-72738094D02*
X81407200Y-72690475D01*
X81407200Y-72690475D02*
X81454819Y-72595237D01*
X81454819Y-72595237D02*
X81454819Y-72404761D01*
X81454819Y-72404761D02*
X81407200Y-72309523D01*
X81407200Y-72309523D02*
X81359580Y-72261904D01*
X81359580Y-72261904D02*
X81264342Y-72214285D01*
X81264342Y-72214285D02*
X81073866Y-72214285D01*
X81073866Y-72214285D02*
X80978628Y-72261904D01*
X80978628Y-72261904D02*
X80931009Y-72309523D01*
X80931009Y-72309523D02*
X80883390Y-72404761D01*
X96454819Y-74738094D02*
X95454819Y-74738094D01*
X95454819Y-74738094D02*
X95454819Y-74499999D01*
X95454819Y-74499999D02*
X95502438Y-74357142D01*
X95502438Y-74357142D02*
X95597676Y-74261904D01*
X95597676Y-74261904D02*
X95692914Y-74214285D01*
X95692914Y-74214285D02*
X95883390Y-74166666D01*
X95883390Y-74166666D02*
X96026247Y-74166666D01*
X96026247Y-74166666D02*
X96216723Y-74214285D01*
X96216723Y-74214285D02*
X96311961Y-74261904D01*
X96311961Y-74261904D02*
X96407200Y-74357142D01*
X96407200Y-74357142D02*
X96454819Y-74499999D01*
X96454819Y-74499999D02*
X96454819Y-74738094D01*
X95454819Y-73261904D02*
X95454819Y-73738094D01*
X95454819Y-73738094D02*
X95931009Y-73785713D01*
X95931009Y-73785713D02*
X95883390Y-73738094D01*
X95883390Y-73738094D02*
X95835771Y-73642856D01*
X95835771Y-73642856D02*
X95835771Y-73404761D01*
X95835771Y-73404761D02*
X95883390Y-73309523D01*
X95883390Y-73309523D02*
X95931009Y-73261904D01*
X95931009Y-73261904D02*
X96026247Y-73214285D01*
X96026247Y-73214285D02*
X96264342Y-73214285D01*
X96264342Y-73214285D02*
X96359580Y-73261904D01*
X96359580Y-73261904D02*
X96407200Y-73309523D01*
X96407200Y-73309523D02*
X96454819Y-73404761D01*
X96454819Y-73404761D02*
X96454819Y-73642856D01*
X96454819Y-73642856D02*
X96407200Y-73738094D01*
X96407200Y-73738094D02*
X96359580Y-73785713D01*
X87454819Y-73166666D02*
X86978628Y-73499999D01*
X87454819Y-73738094D02*
X86454819Y-73738094D01*
X86454819Y-73738094D02*
X86454819Y-73357142D01*
X86454819Y-73357142D02*
X86502438Y-73261904D01*
X86502438Y-73261904D02*
X86550057Y-73214285D01*
X86550057Y-73214285D02*
X86645295Y-73166666D01*
X86645295Y-73166666D02*
X86788152Y-73166666D01*
X86788152Y-73166666D02*
X86883390Y-73214285D01*
X86883390Y-73214285D02*
X86931009Y-73261904D01*
X86931009Y-73261904D02*
X86978628Y-73357142D01*
X86978628Y-73357142D02*
X86978628Y-73738094D01*
X86454819Y-72833332D02*
X86454819Y-72166666D01*
X86454819Y-72166666D02*
X87454819Y-72595237D01*
D11*
%TO.C,Nucleo2*%
X136635000Y-60730000D02*
X186925000Y-60730000D01*
X136635000Y-79270000D02*
X136635000Y-60730000D01*
X186925000Y-60730000D02*
X186925000Y-79270000D01*
X186925000Y-79270000D02*
X136635000Y-79270000D01*
D12*
%TO.C,D2*%
X112865000Y-68387500D02*
X112865000Y-72447500D01*
X112865000Y-72447500D02*
X115135000Y-72447500D01*
X115135000Y-72447500D02*
X115135000Y-68387500D01*
%TO.C,D4*%
X100865000Y-68387500D02*
X100865000Y-72447500D01*
X100865000Y-72447500D02*
X103135000Y-72447500D01*
X103135000Y-72447500D02*
X103135000Y-68387500D01*
%TO.C,D10*%
X64865000Y-68387500D02*
X64865000Y-72447500D01*
X64865000Y-72447500D02*
X67135000Y-72447500D01*
X67135000Y-72447500D02*
X67135000Y-68387500D01*
%TO.C,D7*%
X82865000Y-68387500D02*
X82865000Y-72447500D01*
X82865000Y-72447500D02*
X85135000Y-72447500D01*
X85135000Y-72447500D02*
X85135000Y-68387500D01*
%TO.C,D8*%
X76865000Y-68387500D02*
X76865000Y-72447500D01*
X76865000Y-72447500D02*
X79135000Y-72447500D01*
X79135000Y-72447500D02*
X79135000Y-68387500D01*
%TO.C,D1*%
X118865000Y-68400000D02*
X118865000Y-72460000D01*
X118865000Y-72460000D02*
X121135000Y-72460000D01*
X121135000Y-72460000D02*
X121135000Y-68400000D01*
%TO.C,R10*%
X68265000Y-69772936D02*
X68265000Y-70227064D01*
X69735000Y-69772936D02*
X69735000Y-70227064D01*
%TO.C,D3*%
X106865000Y-68387500D02*
X106865000Y-72447500D01*
X106865000Y-72447500D02*
X109135000Y-72447500D01*
X109135000Y-72447500D02*
X109135000Y-68387500D01*
%TO.C,R5*%
X98265000Y-69772936D02*
X98265000Y-70227064D01*
X99735000Y-69772936D02*
X99735000Y-70227064D01*
%TO.C,R6*%
X92265000Y-69772936D02*
X92265000Y-70227064D01*
X93735000Y-69772936D02*
X93735000Y-70227064D01*
%TO.C,R1*%
X122265000Y-69772936D02*
X122265000Y-70227064D01*
X123735000Y-69772936D02*
X123735000Y-70227064D01*
%TO.C,R11*%
X57265000Y-69772936D02*
X57265000Y-70227064D01*
X58735000Y-69772936D02*
X58735000Y-70227064D01*
%TO.C,R4*%
X104265000Y-69772936D02*
X104265000Y-70227064D01*
X105735000Y-69772936D02*
X105735000Y-70227064D01*
%TO.C,R9*%
X74265000Y-69772936D02*
X74265000Y-70227064D01*
X75735000Y-69772936D02*
X75735000Y-70227064D01*
%TO.C,R3*%
X110265000Y-69760436D02*
X110265000Y-70214564D01*
X111735000Y-69760436D02*
X111735000Y-70214564D01*
%TO.C,D9*%
X70865000Y-68387500D02*
X70865000Y-72447500D01*
X70865000Y-72447500D02*
X73135000Y-72447500D01*
X73135000Y-72447500D02*
X73135000Y-68387500D01*
%TO.C,D11*%
X53865000Y-68400000D02*
X53865000Y-72460000D01*
X53865000Y-72460000D02*
X56135000Y-72460000D01*
X56135000Y-72460000D02*
X56135000Y-68400000D01*
%TO.C,R2*%
X116265000Y-69772936D02*
X116265000Y-70227064D01*
X117735000Y-69772936D02*
X117735000Y-70227064D01*
%TO.C,D6*%
X88865000Y-68387500D02*
X88865000Y-72447500D01*
X88865000Y-72447500D02*
X91135000Y-72447500D01*
X91135000Y-72447500D02*
X91135000Y-68387500D01*
%TO.C,R8*%
X80265000Y-69772936D02*
X80265000Y-70227064D01*
X81735000Y-69772936D02*
X81735000Y-70227064D01*
%TO.C,D5*%
X94865000Y-68387500D02*
X94865000Y-72447500D01*
X94865000Y-72447500D02*
X97135000Y-72447500D01*
X97135000Y-72447500D02*
X97135000Y-68387500D01*
%TO.C,R7*%
X86265000Y-69760436D02*
X86265000Y-70214564D01*
X87735000Y-69760436D02*
X87735000Y-70214564D01*
%TD*%
M02*
