%TF.GenerationSoftware,KiCad,Pcbnew,9.0.1*%
%TF.CreationDate,2025-04-29T17:49:49+02:00*%
%TF.ProjectId,Projet S6,50726f6a-6574-4205-9336-2e6b69636164,rev?*%
%TF.SameCoordinates,Original*%
%TF.FileFunction,Profile,NP*%
%FSLAX46Y46*%
G04 Gerber Fmt 4.6, Leading zero omitted, Abs format (unit mm)*
G04 Created by KiCad (PCBNEW 9.0.1) date 2025-04-29 17:49:49*
%MOMM*%
%LPD*%
G01*
G04 APERTURE LIST*
%TA.AperFunction,Profile*%
%ADD10C,0.050000*%
%TD*%
%ADD11C,0.050000*%
G04 APERTURE END LIST*
D10*
X56000000Y-76000000D02*
G75*
G02*
X56000000Y-64000000I0J6000000D01*
G01*
X193000000Y-75000000D02*
G75*
G02*
X188000000Y-80000000I-5000000J0D01*
G01*
X188000000Y-80000000D02*
X98000000Y-80000000D01*
D11*
X98000000Y-80000000D02*
X97972564Y-79999960D01*
X97944927Y-79999840D01*
X97917089Y-79999639D01*
X97889047Y-79999356D01*
X97860800Y-79998991D01*
X97832348Y-79998544D01*
X97803687Y-79998014D01*
X97774818Y-79997399D01*
X97745737Y-79996700D01*
X97716445Y-79995916D01*
X97686939Y-79995046D01*
X97657218Y-79994090D01*
X97627280Y-79993047D01*
X97597124Y-79991916D01*
X97566748Y-79990697D01*
X97536151Y-79989389D01*
X97505331Y-79987991D01*
X97474286Y-79986503D01*
X97443014Y-79984924D01*
X97411515Y-79983254D01*
X97379786Y-79981491D01*
X97347825Y-79979635D01*
X97315632Y-79977686D01*
X97283204Y-79975642D01*
X97250539Y-79973504D01*
X97217635Y-79971269D01*
X97184492Y-79968938D01*
X97151106Y-79966510D01*
X97117477Y-79963984D01*
X97083602Y-79961359D01*
X97049479Y-79958635D01*
X97015106Y-79955811D01*
X96980483Y-79952885D01*
X96945605Y-79949858D01*
X96910472Y-79946729D01*
X96875082Y-79943496D01*
X96839432Y-79940160D01*
X96803521Y-79936718D01*
X96767346Y-79933171D01*
X96730905Y-79929518D01*
X96694196Y-79925757D01*
X96657216Y-79921889D01*
X96619964Y-79917911D01*
X96582438Y-79913824D01*
X96544634Y-79909626D01*
X96506552Y-79905316D01*
X96468187Y-79900894D01*
X96429538Y-79896359D01*
X96390603Y-79891710D01*
X96351378Y-79886946D01*
X96311863Y-79882066D01*
X96272052Y-79877069D01*
X96231946Y-79871954D01*
X96191539Y-79866720D01*
X96150831Y-79861367D01*
X96109818Y-79855893D01*
X96068497Y-79850297D01*
X96026866Y-79844578D01*
X95984921Y-79838736D01*
X95942660Y-79832769D01*
X95900079Y-79826676D01*
X95857177Y-79820456D01*
X95813949Y-79814108D01*
X95770392Y-79807631D01*
X95726503Y-79801025D01*
X95682279Y-79794286D01*
X95637716Y-79787416D01*
X95592812Y-79780411D01*
X95547561Y-79773272D01*
X95501962Y-79765997D01*
X95456010Y-79758585D01*
X95409701Y-79751034D01*
X95363032Y-79743343D01*
X95315999Y-79735512D01*
X95268597Y-79727538D01*
X95220824Y-79719420D01*
X95172673Y-79711158D01*
X95124142Y-79702749D01*
X95075225Y-79694192D01*
X95025918Y-79685486D01*
X94976217Y-79676629D01*
X94926117Y-79667619D01*
X94875613Y-79658456D01*
X94824700Y-79649138D01*
X94773373Y-79639662D01*
X94721627Y-79630028D01*
X94669455Y-79620234D01*
X94616854Y-79610277D01*
X94563816Y-79600157D01*
X94510336Y-79589871D01*
X94456409Y-79579417D01*
X94402027Y-79568794D01*
X94347184Y-79558000D01*
X94291874Y-79547032D01*
X94236090Y-79535889D01*
X94179825Y-79524568D01*
X94123071Y-79513067D01*
X94065821Y-79501385D01*
X94008067Y-79489518D01*
X93949801Y-79477465D01*
X93891015Y-79465222D01*
X93831700Y-79452787D01*
X93771847Y-79440159D01*
X93711447Y-79427333D01*
X93650489Y-79414307D01*
X93588965Y-79401079D01*
X93526864Y-79387644D01*
X93464174Y-79374001D01*
X93400884Y-79360146D01*
X93336983Y-79346075D01*
X93272458Y-79331785D01*
X93207297Y-79317272D01*
X93141485Y-79302533D01*
X93075010Y-79287564D01*
X93007855Y-79272359D01*
X92940007Y-79256916D01*
X92871447Y-79241229D01*
X92802161Y-79225294D01*
X92732128Y-79209106D01*
X92661332Y-79192659D01*
X92589751Y-79175948D01*
X92517365Y-79158967D01*
X92444152Y-79141710D01*
X92370087Y-79124171D01*
X92295147Y-79106343D01*
X92219304Y-79088217D01*
X92142530Y-79069788D01*
X92064795Y-79051046D01*
X91986067Y-79031982D01*
X91906312Y-79012588D01*
X91825492Y-78992853D01*
X91743568Y-78972766D01*
X91660497Y-78952317D01*
X91576233Y-78931491D01*
X91490725Y-78910276D01*
X91403919Y-78888658D01*
X91315756Y-78866619D01*
X91226170Y-78844142D01*
X91135090Y-78821209D01*
X91042438Y-78797798D01*
X90948126Y-78773886D01*
X90852058Y-78749447D01*
X90754124Y-78724451D01*
X90654204Y-78698866D01*
X90552159Y-78672656D01*
X90447833Y-78645777D01*
X90341044Y-78618183D01*
X90231585Y-78589816D01*
X90119211Y-78560613D01*
X90003633Y-78530495D01*
X89884505Y-78499371D01*
X89761406Y-78467128D01*
X89633815Y-78433627D01*
X89501071Y-78398693D01*
X89362319Y-78362096D01*
X89216409Y-78323530D01*
X89061733Y-78282567D01*
X88895910Y-78238572D01*
X88715131Y-78190530D01*
X88512528Y-78136611D01*
X88272953Y-78072778D01*
X87944425Y-77985180D01*
X87762382Y-77936642D01*
X87580381Y-77888136D01*
X87398452Y-77839689D01*
X87216629Y-77791327D01*
X87119940Y-77765637D01*
X87023294Y-77739982D01*
X86936838Y-77717054D01*
X86850424Y-77694160D01*
X86770870Y-77673105D01*
X86691356Y-77652082D01*
X86616928Y-77632426D01*
X86542542Y-77612802D01*
X86472151Y-77594254D01*
X86401800Y-77575738D01*
X86334715Y-77558102D01*
X86267669Y-77540499D01*
X86203368Y-77523637D01*
X86139106Y-77506807D01*
X86077199Y-77490614D01*
X86015331Y-77474454D01*
X85955520Y-77458851D01*
X85895747Y-77443280D01*
X85837793Y-77428204D01*
X85779878Y-77413159D01*
X85723590Y-77398557D01*
X85667340Y-77383987D01*
X85612559Y-77369818D01*
X85557817Y-77355681D01*
X85504411Y-77341909D01*
X85451044Y-77328168D01*
X85398901Y-77314764D01*
X85346796Y-77301390D01*
X85295819Y-77288327D01*
X85244881Y-77275295D01*
X85194988Y-77262551D01*
X85145133Y-77249838D01*
X85096251Y-77237393D01*
X85047407Y-77224979D01*
X84999472Y-77212818D01*
X84951574Y-77200686D01*
X84904529Y-77188792D01*
X84857523Y-77176928D01*
X84811318Y-77165287D01*
X84765151Y-77153677D01*
X84719740Y-77142277D01*
X84674368Y-77130909D01*
X84629712Y-77119740D01*
X84585094Y-77108602D01*
X84541155Y-77097654D01*
X84497255Y-77086737D01*
X84454000Y-77076000D01*
X84410783Y-77065295D01*
X84368182Y-77054762D01*
X84325618Y-77044260D01*
X84283642Y-77033923D01*
X84241704Y-77023617D01*
X84200328Y-77013469D01*
X84158990Y-77003352D01*
X84118191Y-76993387D01*
X84077428Y-76983452D01*
X84037183Y-76973663D01*
X83996976Y-76963905D01*
X83957265Y-76954288D01*
X83917591Y-76944700D01*
X83878396Y-76935249D01*
X83839238Y-76925828D01*
X83800540Y-76916538D01*
X83761880Y-76907278D01*
X83723664Y-76898145D01*
X83685485Y-76889042D01*
X83647736Y-76880062D01*
X83610024Y-76871111D01*
X83572726Y-76862279D01*
X83535466Y-76853477D01*
X83498607Y-76844791D01*
X83461786Y-76836134D01*
X83425353Y-76827589D01*
X83388957Y-76819073D01*
X83352939Y-76810666D01*
X83316957Y-76802289D01*
X83281342Y-76794017D01*
X83245763Y-76785775D01*
X83210540Y-76777636D01*
X83175353Y-76769525D01*
X83140512Y-76761516D01*
X83105708Y-76753535D01*
X83071240Y-76745652D01*
X83036809Y-76737798D01*
X83002705Y-76730039D01*
X82968637Y-76722309D01*
X82934888Y-76714672D01*
X82901175Y-76707064D01*
X82867773Y-76699547D01*
X82834407Y-76692058D01*
X82801345Y-76684658D01*
X82768318Y-76677287D01*
X82735588Y-76670002D01*
X82702893Y-76662746D01*
X82670487Y-76655575D01*
X82638117Y-76648432D01*
X82606030Y-76641373D01*
X82573978Y-76634341D01*
X82542202Y-76627391D01*
X82510461Y-76620469D01*
X82478991Y-76613626D01*
X82447556Y-76606812D01*
X82416385Y-76600075D01*
X82385249Y-76593367D01*
X82354372Y-76586735D01*
X82323530Y-76580131D01*
X82292941Y-76573602D01*
X82262387Y-76567101D01*
X82232082Y-76560673D01*
X82201811Y-76554273D01*
X82171784Y-76547945D01*
X82141791Y-76541645D01*
X82112037Y-76535416D01*
X82082318Y-76529214D01*
X82052832Y-76523082D01*
X82023381Y-76516978D01*
X81994160Y-76510941D01*
X81964973Y-76504932D01*
X81936011Y-76498990D01*
X81907084Y-76493076D01*
X81878378Y-76487227D01*
X81849706Y-76481406D01*
X81821251Y-76475649D01*
X81792831Y-76469920D01*
X81764624Y-76464254D01*
X81736451Y-76458616D01*
X81708488Y-76453040D01*
X81680559Y-76447492D01*
X81652836Y-76442004D01*
X81625147Y-76436544D01*
X81597661Y-76431145D01*
X81570208Y-76425772D01*
X81542955Y-76420459D01*
X81515736Y-76415173D01*
X81488713Y-76409946D01*
X81461724Y-76404745D01*
X81434927Y-76399603D01*
X81408164Y-76394487D01*
X81381591Y-76389427D01*
X81355052Y-76384395D01*
X81328700Y-76379419D01*
X81302381Y-76374469D01*
X81276246Y-76369574D01*
X81250145Y-76364706D01*
X81224225Y-76359892D01*
X81198338Y-76355105D01*
X81172630Y-76350372D01*
X81146955Y-76345664D01*
X81121456Y-76341010D01*
X81095990Y-76336382D01*
X81070698Y-76331806D01*
X81045439Y-76327256D01*
X81020351Y-76322757D01*
X80995296Y-76318285D01*
X80970409Y-76313863D01*
X80945555Y-76309467D01*
X80920868Y-76305122D01*
X80896213Y-76300802D01*
X80871722Y-76296531D01*
X80847264Y-76292287D01*
X80822968Y-76288091D01*
X80798704Y-76283921D01*
X80774600Y-76279799D01*
X80750528Y-76275702D01*
X80726614Y-76271653D01*
X80702733Y-76267630D01*
X80679006Y-76263653D01*
X80655312Y-76259702D01*
X80631772Y-76255796D01*
X80608263Y-76251917D01*
X80584907Y-76248083D01*
X80561582Y-76244274D01*
X80538407Y-76240510D01*
X80515264Y-76236772D01*
X80492268Y-76233078D01*
X80469305Y-76229409D01*
X80446487Y-76225784D01*
X80423702Y-76222185D01*
X80401060Y-76218628D01*
X80378450Y-76215097D01*
X80355983Y-76211608D01*
X80333547Y-76208145D01*
X80311252Y-76204723D01*
X80288988Y-76201327D01*
X80266864Y-76197972D01*
X80244771Y-76194642D01*
X80222815Y-76191353D01*
X80200891Y-76188089D01*
X80179102Y-76184866D01*
X80157345Y-76181667D01*
X80135722Y-76178509D01*
X80114130Y-76175375D01*
X80092671Y-76172281D01*
X80071243Y-76169212D01*
X80049946Y-76166181D01*
X80028680Y-76163176D01*
X80007545Y-76160209D01*
X79986439Y-76157266D01*
X79965463Y-76154362D01*
X79944517Y-76151482D01*
X79923698Y-76148640D01*
X79902909Y-76145822D01*
X79882246Y-76143042D01*
X79861614Y-76140286D01*
X79841106Y-76137567D01*
X79820629Y-76134872D01*
X79800274Y-76132213D01*
X79779950Y-76129579D01*
X79759747Y-76126980D01*
X79739575Y-76124406D01*
X79719523Y-76121867D01*
X79699501Y-76119352D01*
X79679598Y-76116873D01*
X79659726Y-76114417D01*
X79639971Y-76111996D01*
X79620246Y-76109600D01*
X79600638Y-76107237D01*
X79581060Y-76104898D01*
X79561597Y-76102593D01*
X79542164Y-76100312D01*
X79522846Y-76098065D01*
X79503557Y-76095841D01*
X79484381Y-76093650D01*
X79465235Y-76091483D01*
X79446201Y-76089349D01*
X79427196Y-76087239D01*
X79408302Y-76085160D01*
X79389438Y-76083106D01*
X79370684Y-76081083D01*
X79351959Y-76079084D01*
X79333342Y-76077116D01*
X79314755Y-76075172D01*
X79296276Y-76073259D01*
X79277825Y-76071369D01*
X79259482Y-76069510D01*
X79241167Y-76067675D01*
X79222959Y-76065870D01*
X79204778Y-76064088D01*
X79186703Y-76062337D01*
X79168657Y-76060608D01*
X79150714Y-76058910D01*
X79132800Y-76057234D01*
X79114989Y-76055589D01*
X79097206Y-76053965D01*
X79079525Y-76052372D01*
X79061873Y-76050801D01*
X79044321Y-76049259D01*
X79026798Y-76047740D01*
X79009375Y-76046249D01*
X78991980Y-76044782D01*
X78974684Y-76043342D01*
X78957416Y-76041925D01*
X78940246Y-76040536D01*
X78923105Y-76039170D01*
X78906061Y-76037831D01*
X78889044Y-76036515D01*
X78872125Y-76035227D01*
X78855232Y-76033960D01*
X78838436Y-76032721D01*
X78821667Y-76031504D01*
X78804993Y-76030314D01*
X78788347Y-76029146D01*
X78771794Y-76028004D01*
X78755270Y-76026885D01*
X78738838Y-76025792D01*
X78722433Y-76024721D01*
X78706121Y-76023676D01*
X78689836Y-76022653D01*
X78673643Y-76021656D01*
X78657477Y-76020680D01*
X78641401Y-76019730D01*
X78625353Y-76018802D01*
X78609394Y-76017899D01*
X78593463Y-76017017D01*
X78577620Y-76016161D01*
X78561805Y-76015326D01*
X78546078Y-76014516D01*
X78530377Y-76013727D01*
X78514765Y-76012963D01*
X78499179Y-76012220D01*
X78483680Y-76011501D01*
X78468207Y-76010804D01*
X78452821Y-76010131D01*
X78437461Y-76009478D01*
X78422187Y-76008850D01*
X78406939Y-76008242D01*
X78391775Y-76007659D01*
X78376638Y-76007096D01*
X78361585Y-76006556D01*
X78346559Y-76006037D01*
X78331615Y-76005541D01*
X78316698Y-76005067D01*
X78301863Y-76004614D01*
X78287054Y-76004183D01*
X78272327Y-76003774D01*
X78257626Y-76003386D01*
X78243007Y-76003020D01*
X78228413Y-76002675D01*
X78213900Y-76002351D01*
X78199412Y-76002049D01*
X78185005Y-76001768D01*
X78170623Y-76001507D01*
X78156320Y-76001268D01*
X78142043Y-76001050D01*
X78127844Y-76000852D01*
X78113671Y-76000676D01*
X78099576Y-76000520D01*
X78085506Y-76000384D01*
X78071514Y-76000269D01*
X78057547Y-76000175D01*
X78043656Y-76000101D01*
X78029791Y-76000047D01*
X78016001Y-76000014D01*
X78002237Y-76000000D01*
X78000000Y-76000000D01*
X98000000Y-60000000D02*
X97972564Y-60000040D01*
X97944927Y-60000160D01*
X97917089Y-60000361D01*
X97889047Y-60000644D01*
X97860800Y-60001009D01*
X97832348Y-60001456D01*
X97803687Y-60001986D01*
X97774818Y-60002601D01*
X97745737Y-60003300D01*
X97716445Y-60004084D01*
X97686939Y-60004954D01*
X97657218Y-60005910D01*
X97627280Y-60006953D01*
X97597124Y-60008084D01*
X97566748Y-60009303D01*
X97536151Y-60010611D01*
X97505331Y-60012009D01*
X97474286Y-60013497D01*
X97443014Y-60015076D01*
X97411515Y-60016746D01*
X97379786Y-60018509D01*
X97347825Y-60020365D01*
X97315632Y-60022314D01*
X97283204Y-60024358D01*
X97250539Y-60026496D01*
X97217635Y-60028731D01*
X97184492Y-60031062D01*
X97151106Y-60033490D01*
X97117477Y-60036016D01*
X97083602Y-60038641D01*
X97049479Y-60041365D01*
X97015106Y-60044189D01*
X96980483Y-60047115D01*
X96945605Y-60050142D01*
X96910472Y-60053271D01*
X96875082Y-60056504D01*
X96839432Y-60059840D01*
X96803521Y-60063282D01*
X96767346Y-60066829D01*
X96730905Y-60070482D01*
X96694196Y-60074243D01*
X96657216Y-60078111D01*
X96619964Y-60082089D01*
X96582438Y-60086176D01*
X96544634Y-60090374D01*
X96506552Y-60094684D01*
X96468187Y-60099106D01*
X96429538Y-60103641D01*
X96390603Y-60108290D01*
X96351378Y-60113054D01*
X96311863Y-60117934D01*
X96272052Y-60122931D01*
X96231946Y-60128046D01*
X96191539Y-60133280D01*
X96150831Y-60138633D01*
X96109818Y-60144107D01*
X96068497Y-60149703D01*
X96026866Y-60155422D01*
X95984921Y-60161264D01*
X95942660Y-60167231D01*
X95900079Y-60173324D01*
X95857177Y-60179544D01*
X95813949Y-60185892D01*
X95770392Y-60192369D01*
X95726503Y-60198975D01*
X95682279Y-60205714D01*
X95637716Y-60212584D01*
X95592812Y-60219589D01*
X95547561Y-60226728D01*
X95501962Y-60234003D01*
X95456010Y-60241415D01*
X95409701Y-60248966D01*
X95363032Y-60256657D01*
X95315999Y-60264488D01*
X95268597Y-60272462D01*
X95220824Y-60280580D01*
X95172673Y-60288842D01*
X95124142Y-60297251D01*
X95075225Y-60305808D01*
X95025918Y-60314514D01*
X94976217Y-60323371D01*
X94926117Y-60332381D01*
X94875613Y-60341544D01*
X94824700Y-60350862D01*
X94773373Y-60360338D01*
X94721627Y-60369972D01*
X94669455Y-60379766D01*
X94616854Y-60389723D01*
X94563816Y-60399843D01*
X94510336Y-60410129D01*
X94456409Y-60420583D01*
X94402027Y-60431206D01*
X94347184Y-60442000D01*
X94291874Y-60452968D01*
X94236090Y-60464111D01*
X94179825Y-60475432D01*
X94123071Y-60486933D01*
X94065821Y-60498615D01*
X94008067Y-60510482D01*
X93949801Y-60522535D01*
X93891015Y-60534778D01*
X93831700Y-60547213D01*
X93771847Y-60559841D01*
X93711447Y-60572667D01*
X93650489Y-60585693D01*
X93588965Y-60598921D01*
X93526864Y-60612356D01*
X93464174Y-60625999D01*
X93400884Y-60639854D01*
X93336983Y-60653925D01*
X93272458Y-60668215D01*
X93207297Y-60682728D01*
X93141485Y-60697467D01*
X93075010Y-60712436D01*
X93007855Y-60727641D01*
X92940007Y-60743084D01*
X92871447Y-60758771D01*
X92802161Y-60774706D01*
X92732128Y-60790894D01*
X92661332Y-60807341D01*
X92589751Y-60824052D01*
X92517365Y-60841033D01*
X92444152Y-60858290D01*
X92370087Y-60875829D01*
X92295147Y-60893657D01*
X92219304Y-60911783D01*
X92142530Y-60930212D01*
X92064795Y-60948954D01*
X91986067Y-60968018D01*
X91906312Y-60987412D01*
X91825492Y-61007147D01*
X91743568Y-61027234D01*
X91660497Y-61047683D01*
X91576233Y-61068509D01*
X91490725Y-61089724D01*
X91403919Y-61111342D01*
X91315756Y-61133381D01*
X91226170Y-61155858D01*
X91135090Y-61178791D01*
X91042438Y-61202202D01*
X90948126Y-61226114D01*
X90852058Y-61250553D01*
X90754124Y-61275549D01*
X90654204Y-61301134D01*
X90552159Y-61327344D01*
X90447833Y-61354223D01*
X90341044Y-61381817D01*
X90231585Y-61410184D01*
X90119211Y-61439387D01*
X90003633Y-61469505D01*
X89884505Y-61500629D01*
X89761406Y-61532872D01*
X89633815Y-61566373D01*
X89501071Y-61601307D01*
X89362319Y-61637904D01*
X89216409Y-61676470D01*
X89061733Y-61717433D01*
X88895910Y-61761428D01*
X88715131Y-61809470D01*
X88512528Y-61863389D01*
X88272953Y-61927222D01*
X87944425Y-62014820D01*
X87762382Y-62063358D01*
X87580381Y-62111864D01*
X87398452Y-62160311D01*
X87216629Y-62208673D01*
X87119940Y-62234363D01*
X87023294Y-62260018D01*
X86936838Y-62282946D01*
X86850424Y-62305840D01*
X86770870Y-62326895D01*
X86691356Y-62347918D01*
X86616928Y-62367574D01*
X86542542Y-62387198D01*
X86472151Y-62405746D01*
X86401800Y-62424262D01*
X86334715Y-62441898D01*
X86267669Y-62459501D01*
X86203368Y-62476363D01*
X86139106Y-62493193D01*
X86077199Y-62509386D01*
X86015331Y-62525546D01*
X85955520Y-62541149D01*
X85895747Y-62556720D01*
X85837793Y-62571796D01*
X85779878Y-62586841D01*
X85723590Y-62601443D01*
X85667340Y-62616013D01*
X85612559Y-62630182D01*
X85557817Y-62644319D01*
X85504411Y-62658091D01*
X85451044Y-62671832D01*
X85398901Y-62685236D01*
X85346796Y-62698610D01*
X85295819Y-62711673D01*
X85244881Y-62724705D01*
X85194988Y-62737449D01*
X85145133Y-62750162D01*
X85096251Y-62762607D01*
X85047407Y-62775021D01*
X84999472Y-62787182D01*
X84951574Y-62799314D01*
X84904529Y-62811208D01*
X84857523Y-62823072D01*
X84811318Y-62834713D01*
X84765151Y-62846323D01*
X84719740Y-62857723D01*
X84674368Y-62869091D01*
X84629712Y-62880260D01*
X84585094Y-62891398D01*
X84541155Y-62902346D01*
X84497255Y-62913263D01*
X84454000Y-62924000D01*
X84410783Y-62934705D01*
X84368182Y-62945238D01*
X84325618Y-62955740D01*
X84283642Y-62966077D01*
X84241704Y-62976383D01*
X84200328Y-62986531D01*
X84158990Y-62996648D01*
X84118191Y-63006613D01*
X84077428Y-63016548D01*
X84037183Y-63026337D01*
X83996976Y-63036095D01*
X83957265Y-63045712D01*
X83917591Y-63055300D01*
X83878396Y-63064751D01*
X83839238Y-63074172D01*
X83800540Y-63083462D01*
X83761880Y-63092722D01*
X83723664Y-63101855D01*
X83685485Y-63110958D01*
X83647736Y-63119938D01*
X83610024Y-63128889D01*
X83572726Y-63137721D01*
X83535466Y-63146523D01*
X83498607Y-63155209D01*
X83461786Y-63163866D01*
X83425353Y-63172411D01*
X83388957Y-63180927D01*
X83352939Y-63189334D01*
X83316957Y-63197711D01*
X83281342Y-63205983D01*
X83245763Y-63214225D01*
X83210540Y-63222364D01*
X83175353Y-63230475D01*
X83140512Y-63238484D01*
X83105708Y-63246465D01*
X83071240Y-63254348D01*
X83036809Y-63262202D01*
X83002705Y-63269961D01*
X82968637Y-63277691D01*
X82934888Y-63285328D01*
X82901175Y-63292936D01*
X82867773Y-63300453D01*
X82834407Y-63307942D01*
X82801345Y-63315342D01*
X82768318Y-63322713D01*
X82735588Y-63329998D01*
X82702893Y-63337254D01*
X82670487Y-63344425D01*
X82638117Y-63351568D01*
X82606030Y-63358627D01*
X82573978Y-63365659D01*
X82542202Y-63372609D01*
X82510461Y-63379531D01*
X82478991Y-63386374D01*
X82447556Y-63393188D01*
X82416385Y-63399925D01*
X82385249Y-63406633D01*
X82354372Y-63413265D01*
X82323530Y-63419869D01*
X82292941Y-63426398D01*
X82262387Y-63432899D01*
X82232082Y-63439327D01*
X82201811Y-63445727D01*
X82171784Y-63452055D01*
X82141791Y-63458355D01*
X82112037Y-63464584D01*
X82082318Y-63470786D01*
X82052832Y-63476918D01*
X82023381Y-63483022D01*
X81994160Y-63489059D01*
X81964973Y-63495068D01*
X81936011Y-63501010D01*
X81907084Y-63506924D01*
X81878378Y-63512773D01*
X81849706Y-63518594D01*
X81821251Y-63524351D01*
X81792831Y-63530080D01*
X81764624Y-63535746D01*
X81736451Y-63541384D01*
X81708488Y-63546960D01*
X81680559Y-63552508D01*
X81652836Y-63557996D01*
X81625147Y-63563456D01*
X81597661Y-63568855D01*
X81570208Y-63574228D01*
X81542955Y-63579541D01*
X81515736Y-63584827D01*
X81488713Y-63590054D01*
X81461724Y-63595255D01*
X81434927Y-63600397D01*
X81408164Y-63605513D01*
X81381591Y-63610573D01*
X81355052Y-63615605D01*
X81328700Y-63620581D01*
X81302381Y-63625531D01*
X81276246Y-63630426D01*
X81250145Y-63635294D01*
X81224225Y-63640108D01*
X81198338Y-63644895D01*
X81172630Y-63649628D01*
X81146955Y-63654336D01*
X81121456Y-63658990D01*
X81095990Y-63663618D01*
X81070698Y-63668194D01*
X81045439Y-63672744D01*
X81020351Y-63677243D01*
X80995296Y-63681715D01*
X80970409Y-63686137D01*
X80945555Y-63690533D01*
X80920868Y-63694878D01*
X80896213Y-63699198D01*
X80871722Y-63703469D01*
X80847264Y-63707713D01*
X80822968Y-63711909D01*
X80798704Y-63716079D01*
X80774600Y-63720201D01*
X80750528Y-63724298D01*
X80726614Y-63728347D01*
X80702733Y-63732370D01*
X80679006Y-63736347D01*
X80655312Y-63740298D01*
X80631772Y-63744204D01*
X80608263Y-63748083D01*
X80584907Y-63751917D01*
X80561582Y-63755726D01*
X80538407Y-63759490D01*
X80515264Y-63763228D01*
X80492268Y-63766922D01*
X80469305Y-63770591D01*
X80446487Y-63774216D01*
X80423702Y-63777815D01*
X80401060Y-63781372D01*
X80378450Y-63784903D01*
X80355983Y-63788392D01*
X80333547Y-63791855D01*
X80311252Y-63795277D01*
X80288988Y-63798673D01*
X80266864Y-63802028D01*
X80244771Y-63805358D01*
X80222815Y-63808647D01*
X80200891Y-63811911D01*
X80179102Y-63815134D01*
X80157345Y-63818333D01*
X80135722Y-63821491D01*
X80114130Y-63824625D01*
X80092671Y-63827719D01*
X80071243Y-63830788D01*
X80049946Y-63833819D01*
X80028680Y-63836824D01*
X80007545Y-63839791D01*
X79986439Y-63842734D01*
X79965463Y-63845638D01*
X79944517Y-63848518D01*
X79923698Y-63851360D01*
X79902909Y-63854178D01*
X79882246Y-63856958D01*
X79861614Y-63859714D01*
X79841106Y-63862433D01*
X79820629Y-63865128D01*
X79800274Y-63867787D01*
X79779950Y-63870421D01*
X79759747Y-63873020D01*
X79739575Y-63875594D01*
X79719523Y-63878133D01*
X79699501Y-63880648D01*
X79679598Y-63883127D01*
X79659726Y-63885583D01*
X79639971Y-63888004D01*
X79620246Y-63890400D01*
X79600638Y-63892763D01*
X79581060Y-63895102D01*
X79561597Y-63897407D01*
X79542164Y-63899688D01*
X79522846Y-63901935D01*
X79503557Y-63904159D01*
X79484381Y-63906350D01*
X79465235Y-63908517D01*
X79446201Y-63910651D01*
X79427196Y-63912761D01*
X79408302Y-63914840D01*
X79389438Y-63916894D01*
X79370684Y-63918917D01*
X79351959Y-63920916D01*
X79333342Y-63922884D01*
X79314755Y-63924828D01*
X79296276Y-63926741D01*
X79277825Y-63928631D01*
X79259482Y-63930490D01*
X79241167Y-63932325D01*
X79222959Y-63934130D01*
X79204778Y-63935912D01*
X79186703Y-63937663D01*
X79168657Y-63939392D01*
X79150714Y-63941090D01*
X79132800Y-63942766D01*
X79114989Y-63944411D01*
X79097206Y-63946035D01*
X79079525Y-63947628D01*
X79061873Y-63949199D01*
X79044321Y-63950741D01*
X79026798Y-63952260D01*
X79009375Y-63953751D01*
X78991980Y-63955218D01*
X78974684Y-63956658D01*
X78957416Y-63958075D01*
X78940246Y-63959464D01*
X78923105Y-63960830D01*
X78906061Y-63962169D01*
X78889044Y-63963485D01*
X78872125Y-63964773D01*
X78855232Y-63966040D01*
X78838436Y-63967279D01*
X78821667Y-63968496D01*
X78804993Y-63969686D01*
X78788347Y-63970854D01*
X78771794Y-63971996D01*
X78755270Y-63973115D01*
X78738838Y-63974208D01*
X78722433Y-63975279D01*
X78706121Y-63976324D01*
X78689836Y-63977347D01*
X78673643Y-63978344D01*
X78657477Y-63979320D01*
X78641401Y-63980270D01*
X78625353Y-63981198D01*
X78609394Y-63982101D01*
X78593463Y-63982983D01*
X78577620Y-63983839D01*
X78561805Y-63984674D01*
X78546078Y-63985484D01*
X78530377Y-63986273D01*
X78514765Y-63987037D01*
X78499179Y-63987780D01*
X78483680Y-63988499D01*
X78468207Y-63989196D01*
X78452821Y-63989869D01*
X78437461Y-63990522D01*
X78422187Y-63991150D01*
X78406939Y-63991758D01*
X78391775Y-63992341D01*
X78376638Y-63992904D01*
X78361585Y-63993444D01*
X78346559Y-63993963D01*
X78331615Y-63994459D01*
X78316698Y-63994933D01*
X78301863Y-63995386D01*
X78287054Y-63995817D01*
X78272327Y-63996226D01*
X78257626Y-63996614D01*
X78243007Y-63996980D01*
X78228413Y-63997325D01*
X78213900Y-63997649D01*
X78199412Y-63997951D01*
X78185005Y-63998232D01*
X78170623Y-63998493D01*
X78156320Y-63998732D01*
X78142043Y-63998950D01*
X78127844Y-63999148D01*
X78113671Y-63999324D01*
X78099576Y-63999480D01*
X78085506Y-63999616D01*
X78071514Y-63999731D01*
X78057547Y-63999825D01*
X78043656Y-63999899D01*
X78029791Y-63999953D01*
X78016001Y-63999986D01*
X78002237Y-64000000D01*
X78000000Y-64000000D01*
D10*
X56000000Y-64000000D02*
X78000000Y-64000000D01*
X188000000Y-60000001D02*
X98000000Y-60000000D01*
X56000000Y-76000000D02*
X78000000Y-76000000D01*
X188000000Y-60000000D02*
G75*
G02*
X193000000Y-65000000I0J-5000000D01*
G01*
X193000000Y-65000000D02*
X193000000Y-75000000D01*
M02*
