%TF.GenerationSoftware,KiCad,Pcbnew,9.0.1*%
%TF.CreationDate,2025-05-15T18:11:35+02:00*%
%TF.ProjectId,Projet S6,50726f6a-6574-4205-9336-2e6b69636164,rev?*%
%TF.SameCoordinates,Original*%
%TF.FileFunction,Plated,1,2,PTH,Drill*%
%TF.FilePolarity,Positive*%
%FSLAX46Y46*%
G04 Gerber Fmt 4.6, Leading zero omitted, Abs format (unit mm)*
G04 Created by KiCad (PCBNEW 9.0.1) date 2025-05-15 18:11:35*
%MOMM*%
%LPD*%
G01*
G04 APERTURE LIST*
%TA.AperFunction,ViaDrill*%
%ADD10C,0.400000*%
%TD*%
%TA.AperFunction,ComponentDrill*%
%ADD11C,1.000000*%
%TD*%
G04 APERTURE END LIST*
D10*
X81000000Y-76600000D03*
X81400000Y-58600000D03*
X146200000Y-67000000D03*
X169000000Y-65800000D03*
X169600000Y-61600000D03*
D11*
%TO.C,J101*%
X185000000Y-66750000D03*
X185000000Y-69250000D03*
%TO.C,Nucleo2*%
X193760000Y-59920000D03*
X193760000Y-75160000D03*
X196300000Y-59920000D03*
X196300000Y-75160000D03*
X198840000Y-59920000D03*
X198840000Y-75160000D03*
X201380000Y-59920000D03*
X201380000Y-75160000D03*
X203920000Y-59920000D03*
X203920000Y-75160000D03*
X206460000Y-59920000D03*
X206460000Y-75160000D03*
X209000000Y-59920000D03*
X209000000Y-75160000D03*
X211540000Y-59920000D03*
X211540000Y-75160000D03*
X214080000Y-59920000D03*
X214080000Y-75160000D03*
X216620000Y-59920000D03*
X216620000Y-75160000D03*
X219160000Y-59920000D03*
X219160000Y-75160000D03*
X221700000Y-59920000D03*
X221700000Y-75160000D03*
X224240000Y-59920000D03*
X224240000Y-75160000D03*
X226780000Y-59920000D03*
X226780000Y-75160000D03*
X229320000Y-59920000D03*
X229320000Y-75160000D03*
%TO.C,J1*%
X242420000Y-64890000D03*
X242420000Y-67430000D03*
X242420000Y-69970000D03*
M02*
