%TF.GenerationSoftware,KiCad,Pcbnew,8.0.8*%
%TF.CreationDate,2025-04-10T10:16:36+02:00*%
%TF.ProjectId,Projet S6,50726f6a-6574-4205-9336-2e6b69636164,rev?*%
%TF.SameCoordinates,Original*%
%TF.FileFunction,Legend,Top*%
%TF.FilePolarity,Positive*%
%FSLAX46Y46*%
G04 Gerber Fmt 4.6, Leading zero omitted, Abs format (unit mm)*
G04 Created by KiCad (PCBNEW 8.0.8) date 2025-04-10 10:16:36*
%MOMM*%
%LPD*%
G01*
G04 APERTURE LIST*
%ADD10C,0.100000*%
%ADD11C,0.150000*%
%ADD12C,0.120000*%
%ADD13C,0.127000*%
%ADD14C,0.400000*%
G04 APERTURE END LIST*
D10*
X239690752Y-103842856D02*
X240357419Y-103842856D01*
X239309800Y-104080951D02*
X240024085Y-104319046D01*
X240024085Y-104319046D02*
X240024085Y-103699999D01*
X239357419Y-103128570D02*
X239357419Y-103033332D01*
X239357419Y-103033332D02*
X239405038Y-102938094D01*
X239405038Y-102938094D02*
X239452657Y-102890475D01*
X239452657Y-102890475D02*
X239547895Y-102842856D01*
X239547895Y-102842856D02*
X239738371Y-102795237D01*
X239738371Y-102795237D02*
X239976466Y-102795237D01*
X239976466Y-102795237D02*
X240166942Y-102842856D01*
X240166942Y-102842856D02*
X240262180Y-102890475D01*
X240262180Y-102890475D02*
X240309800Y-102938094D01*
X240309800Y-102938094D02*
X240357419Y-103033332D01*
X240357419Y-103033332D02*
X240357419Y-103128570D01*
X240357419Y-103128570D02*
X240309800Y-103223808D01*
X240309800Y-103223808D02*
X240262180Y-103271427D01*
X240262180Y-103271427D02*
X240166942Y-103319046D01*
X240166942Y-103319046D02*
X239976466Y-103366665D01*
X239976466Y-103366665D02*
X239738371Y-103366665D01*
X239738371Y-103366665D02*
X239547895Y-103319046D01*
X239547895Y-103319046D02*
X239452657Y-103271427D01*
X239452657Y-103271427D02*
X239405038Y-103223808D01*
X239405038Y-103223808D02*
X239357419Y-103128570D01*
X240262180Y-102366665D02*
X240309800Y-102319046D01*
X240309800Y-102319046D02*
X240357419Y-102366665D01*
X240357419Y-102366665D02*
X240309800Y-102414284D01*
X240309800Y-102414284D02*
X240262180Y-102366665D01*
X240262180Y-102366665D02*
X240357419Y-102366665D01*
X239357419Y-101699999D02*
X239357419Y-101604761D01*
X239357419Y-101604761D02*
X239405038Y-101509523D01*
X239405038Y-101509523D02*
X239452657Y-101461904D01*
X239452657Y-101461904D02*
X239547895Y-101414285D01*
X239547895Y-101414285D02*
X239738371Y-101366666D01*
X239738371Y-101366666D02*
X239976466Y-101366666D01*
X239976466Y-101366666D02*
X240166942Y-101414285D01*
X240166942Y-101414285D02*
X240262180Y-101461904D01*
X240262180Y-101461904D02*
X240309800Y-101509523D01*
X240309800Y-101509523D02*
X240357419Y-101604761D01*
X240357419Y-101604761D02*
X240357419Y-101699999D01*
X240357419Y-101699999D02*
X240309800Y-101795237D01*
X240309800Y-101795237D02*
X240262180Y-101842856D01*
X240262180Y-101842856D02*
X240166942Y-101890475D01*
X240166942Y-101890475D02*
X239976466Y-101938094D01*
X239976466Y-101938094D02*
X239738371Y-101938094D01*
X239738371Y-101938094D02*
X239547895Y-101890475D01*
X239547895Y-101890475D02*
X239452657Y-101842856D01*
X239452657Y-101842856D02*
X239405038Y-101795237D01*
X239405038Y-101795237D02*
X239357419Y-101699999D01*
X239357419Y-100747618D02*
X239357419Y-100652380D01*
X239357419Y-100652380D02*
X239405038Y-100557142D01*
X239405038Y-100557142D02*
X239452657Y-100509523D01*
X239452657Y-100509523D02*
X239547895Y-100461904D01*
X239547895Y-100461904D02*
X239738371Y-100414285D01*
X239738371Y-100414285D02*
X239976466Y-100414285D01*
X239976466Y-100414285D02*
X240166942Y-100461904D01*
X240166942Y-100461904D02*
X240262180Y-100509523D01*
X240262180Y-100509523D02*
X240309800Y-100557142D01*
X240309800Y-100557142D02*
X240357419Y-100652380D01*
X240357419Y-100652380D02*
X240357419Y-100747618D01*
X240357419Y-100747618D02*
X240309800Y-100842856D01*
X240309800Y-100842856D02*
X240262180Y-100890475D01*
X240262180Y-100890475D02*
X240166942Y-100938094D01*
X240166942Y-100938094D02*
X239976466Y-100985713D01*
X239976466Y-100985713D02*
X239738371Y-100985713D01*
X239738371Y-100985713D02*
X239547895Y-100938094D01*
X239547895Y-100938094D02*
X239452657Y-100890475D01*
X239452657Y-100890475D02*
X239405038Y-100842856D01*
X239405038Y-100842856D02*
X239357419Y-100747618D01*
X239357419Y-99795237D02*
X239357419Y-99699999D01*
X239357419Y-99699999D02*
X239405038Y-99604761D01*
X239405038Y-99604761D02*
X239452657Y-99557142D01*
X239452657Y-99557142D02*
X239547895Y-99509523D01*
X239547895Y-99509523D02*
X239738371Y-99461904D01*
X239738371Y-99461904D02*
X239976466Y-99461904D01*
X239976466Y-99461904D02*
X240166942Y-99509523D01*
X240166942Y-99509523D02*
X240262180Y-99557142D01*
X240262180Y-99557142D02*
X240309800Y-99604761D01*
X240309800Y-99604761D02*
X240357419Y-99699999D01*
X240357419Y-99699999D02*
X240357419Y-99795237D01*
X240357419Y-99795237D02*
X240309800Y-99890475D01*
X240309800Y-99890475D02*
X240262180Y-99938094D01*
X240262180Y-99938094D02*
X240166942Y-99985713D01*
X240166942Y-99985713D02*
X239976466Y-100033332D01*
X239976466Y-100033332D02*
X239738371Y-100033332D01*
X239738371Y-100033332D02*
X239547895Y-99985713D01*
X239547895Y-99985713D02*
X239452657Y-99938094D01*
X239452657Y-99938094D02*
X239405038Y-99890475D01*
X239405038Y-99890475D02*
X239357419Y-99795237D01*
X239357419Y-98842856D02*
X239357419Y-98747618D01*
X239357419Y-98747618D02*
X239405038Y-98652380D01*
X239405038Y-98652380D02*
X239452657Y-98604761D01*
X239452657Y-98604761D02*
X239547895Y-98557142D01*
X239547895Y-98557142D02*
X239738371Y-98509523D01*
X239738371Y-98509523D02*
X239976466Y-98509523D01*
X239976466Y-98509523D02*
X240166942Y-98557142D01*
X240166942Y-98557142D02*
X240262180Y-98604761D01*
X240262180Y-98604761D02*
X240309800Y-98652380D01*
X240309800Y-98652380D02*
X240357419Y-98747618D01*
X240357419Y-98747618D02*
X240357419Y-98842856D01*
X240357419Y-98842856D02*
X240309800Y-98938094D01*
X240309800Y-98938094D02*
X240262180Y-98985713D01*
X240262180Y-98985713D02*
X240166942Y-99033332D01*
X240166942Y-99033332D02*
X239976466Y-99080951D01*
X239976466Y-99080951D02*
X239738371Y-99080951D01*
X239738371Y-99080951D02*
X239547895Y-99033332D01*
X239547895Y-99033332D02*
X239452657Y-98985713D01*
X239452657Y-98985713D02*
X239405038Y-98938094D01*
X239405038Y-98938094D02*
X239357419Y-98842856D01*
X240357419Y-97319046D02*
X239690752Y-97319046D01*
X239785990Y-97319046D02*
X239738371Y-97271427D01*
X239738371Y-97271427D02*
X239690752Y-97176189D01*
X239690752Y-97176189D02*
X239690752Y-97033332D01*
X239690752Y-97033332D02*
X239738371Y-96938094D01*
X239738371Y-96938094D02*
X239833609Y-96890475D01*
X239833609Y-96890475D02*
X240357419Y-96890475D01*
X239833609Y-96890475D02*
X239738371Y-96842856D01*
X239738371Y-96842856D02*
X239690752Y-96747618D01*
X239690752Y-96747618D02*
X239690752Y-96604761D01*
X239690752Y-96604761D02*
X239738371Y-96509522D01*
X239738371Y-96509522D02*
X239833609Y-96461903D01*
X239833609Y-96461903D02*
X240357419Y-96461903D01*
X240357419Y-95985713D02*
X239690752Y-95985713D01*
X239785990Y-95985713D02*
X239738371Y-95938094D01*
X239738371Y-95938094D02*
X239690752Y-95842856D01*
X239690752Y-95842856D02*
X239690752Y-95699999D01*
X239690752Y-95699999D02*
X239738371Y-95604761D01*
X239738371Y-95604761D02*
X239833609Y-95557142D01*
X239833609Y-95557142D02*
X240357419Y-95557142D01*
X239833609Y-95557142D02*
X239738371Y-95509523D01*
X239738371Y-95509523D02*
X239690752Y-95414285D01*
X239690752Y-95414285D02*
X239690752Y-95271428D01*
X239690752Y-95271428D02*
X239738371Y-95176189D01*
X239738371Y-95176189D02*
X239833609Y-95128570D01*
X239833609Y-95128570D02*
X240357419Y-95128570D01*
X230400000Y-119700000D02*
X241586420Y-119700000D01*
X230400000Y-79700000D02*
X241586420Y-79700000D01*
X241000000Y-119700000D02*
X241000000Y-79700000D01*
X241000000Y-119700000D02*
X241000000Y-79700000D01*
X241000000Y-119700000D02*
X240413579Y-118573496D01*
X241000000Y-119700000D02*
X241586421Y-118573496D01*
X241000000Y-79700000D02*
X241586421Y-80826504D01*
X241000000Y-79700000D02*
X240413579Y-80826504D01*
D11*
X127954819Y-100450594D02*
X126954819Y-100450594D01*
X126954819Y-100450594D02*
X126954819Y-100212499D01*
X126954819Y-100212499D02*
X127002438Y-100069642D01*
X127002438Y-100069642D02*
X127097676Y-99974404D01*
X127097676Y-99974404D02*
X127192914Y-99926785D01*
X127192914Y-99926785D02*
X127383390Y-99879166D01*
X127383390Y-99879166D02*
X127526247Y-99879166D01*
X127526247Y-99879166D02*
X127716723Y-99926785D01*
X127716723Y-99926785D02*
X127811961Y-99974404D01*
X127811961Y-99974404D02*
X127907200Y-100069642D01*
X127907200Y-100069642D02*
X127954819Y-100212499D01*
X127954819Y-100212499D02*
X127954819Y-100450594D01*
X127288152Y-99022023D02*
X127954819Y-99022023D01*
X126907200Y-99260118D02*
X127621485Y-99498213D01*
X127621485Y-99498213D02*
X127621485Y-98879166D01*
X97104819Y-89266666D02*
X96628628Y-89599999D01*
X97104819Y-89838094D02*
X96104819Y-89838094D01*
X96104819Y-89838094D02*
X96104819Y-89457142D01*
X96104819Y-89457142D02*
X96152438Y-89361904D01*
X96152438Y-89361904D02*
X96200057Y-89314285D01*
X96200057Y-89314285D02*
X96295295Y-89266666D01*
X96295295Y-89266666D02*
X96438152Y-89266666D01*
X96438152Y-89266666D02*
X96533390Y-89314285D01*
X96533390Y-89314285D02*
X96581009Y-89361904D01*
X96581009Y-89361904D02*
X96628628Y-89457142D01*
X96628628Y-89457142D02*
X96628628Y-89838094D01*
X96533390Y-88695237D02*
X96485771Y-88790475D01*
X96485771Y-88790475D02*
X96438152Y-88838094D01*
X96438152Y-88838094D02*
X96342914Y-88885713D01*
X96342914Y-88885713D02*
X96295295Y-88885713D01*
X96295295Y-88885713D02*
X96200057Y-88838094D01*
X96200057Y-88838094D02*
X96152438Y-88790475D01*
X96152438Y-88790475D02*
X96104819Y-88695237D01*
X96104819Y-88695237D02*
X96104819Y-88504761D01*
X96104819Y-88504761D02*
X96152438Y-88409523D01*
X96152438Y-88409523D02*
X96200057Y-88361904D01*
X96200057Y-88361904D02*
X96295295Y-88314285D01*
X96295295Y-88314285D02*
X96342914Y-88314285D01*
X96342914Y-88314285D02*
X96438152Y-88361904D01*
X96438152Y-88361904D02*
X96485771Y-88409523D01*
X96485771Y-88409523D02*
X96533390Y-88504761D01*
X96533390Y-88504761D02*
X96533390Y-88695237D01*
X96533390Y-88695237D02*
X96581009Y-88790475D01*
X96581009Y-88790475D02*
X96628628Y-88838094D01*
X96628628Y-88838094D02*
X96723866Y-88885713D01*
X96723866Y-88885713D02*
X96914342Y-88885713D01*
X96914342Y-88885713D02*
X97009580Y-88838094D01*
X97009580Y-88838094D02*
X97057200Y-88790475D01*
X97057200Y-88790475D02*
X97104819Y-88695237D01*
X97104819Y-88695237D02*
X97104819Y-88504761D01*
X97104819Y-88504761D02*
X97057200Y-88409523D01*
X97057200Y-88409523D02*
X97009580Y-88361904D01*
X97009580Y-88361904D02*
X96914342Y-88314285D01*
X96914342Y-88314285D02*
X96723866Y-88314285D01*
X96723866Y-88314285D02*
X96628628Y-88361904D01*
X96628628Y-88361904D02*
X96581009Y-88409523D01*
X96581009Y-88409523D02*
X96533390Y-88504761D01*
X118504819Y-109041666D02*
X118028628Y-109374999D01*
X118504819Y-109613094D02*
X117504819Y-109613094D01*
X117504819Y-109613094D02*
X117504819Y-109232142D01*
X117504819Y-109232142D02*
X117552438Y-109136904D01*
X117552438Y-109136904D02*
X117600057Y-109089285D01*
X117600057Y-109089285D02*
X117695295Y-109041666D01*
X117695295Y-109041666D02*
X117838152Y-109041666D01*
X117838152Y-109041666D02*
X117933390Y-109089285D01*
X117933390Y-109089285D02*
X117981009Y-109136904D01*
X117981009Y-109136904D02*
X118028628Y-109232142D01*
X118028628Y-109232142D02*
X118028628Y-109613094D01*
X117504819Y-108136904D02*
X117504819Y-108613094D01*
X117504819Y-108613094D02*
X117981009Y-108660713D01*
X117981009Y-108660713D02*
X117933390Y-108613094D01*
X117933390Y-108613094D02*
X117885771Y-108517856D01*
X117885771Y-108517856D02*
X117885771Y-108279761D01*
X117885771Y-108279761D02*
X117933390Y-108184523D01*
X117933390Y-108184523D02*
X117981009Y-108136904D01*
X117981009Y-108136904D02*
X118076247Y-108089285D01*
X118076247Y-108089285D02*
X118314342Y-108089285D01*
X118314342Y-108089285D02*
X118409580Y-108136904D01*
X118409580Y-108136904D02*
X118457200Y-108184523D01*
X118457200Y-108184523D02*
X118504819Y-108279761D01*
X118504819Y-108279761D02*
X118504819Y-108517856D01*
X118504819Y-108517856D02*
X118457200Y-108613094D01*
X118457200Y-108613094D02*
X118409580Y-108660713D01*
X132104819Y-108966666D02*
X131628628Y-109299999D01*
X132104819Y-109538094D02*
X131104819Y-109538094D01*
X131104819Y-109538094D02*
X131104819Y-109157142D01*
X131104819Y-109157142D02*
X131152438Y-109061904D01*
X131152438Y-109061904D02*
X131200057Y-109014285D01*
X131200057Y-109014285D02*
X131295295Y-108966666D01*
X131295295Y-108966666D02*
X131438152Y-108966666D01*
X131438152Y-108966666D02*
X131533390Y-109014285D01*
X131533390Y-109014285D02*
X131581009Y-109061904D01*
X131581009Y-109061904D02*
X131628628Y-109157142D01*
X131628628Y-109157142D02*
X131628628Y-109538094D01*
X131104819Y-108633332D02*
X131104819Y-108014285D01*
X131104819Y-108014285D02*
X131485771Y-108347618D01*
X131485771Y-108347618D02*
X131485771Y-108204761D01*
X131485771Y-108204761D02*
X131533390Y-108109523D01*
X131533390Y-108109523D02*
X131581009Y-108061904D01*
X131581009Y-108061904D02*
X131676247Y-108014285D01*
X131676247Y-108014285D02*
X131914342Y-108014285D01*
X131914342Y-108014285D02*
X132009580Y-108061904D01*
X132009580Y-108061904D02*
X132057200Y-108109523D01*
X132057200Y-108109523D02*
X132104819Y-108204761D01*
X132104819Y-108204761D02*
X132104819Y-108490475D01*
X132104819Y-108490475D02*
X132057200Y-108585713D01*
X132057200Y-108585713D02*
X132009580Y-108633332D01*
X105004819Y-109366666D02*
X104528628Y-109699999D01*
X105004819Y-109938094D02*
X104004819Y-109938094D01*
X104004819Y-109938094D02*
X104004819Y-109557142D01*
X104004819Y-109557142D02*
X104052438Y-109461904D01*
X104052438Y-109461904D02*
X104100057Y-109414285D01*
X104100057Y-109414285D02*
X104195295Y-109366666D01*
X104195295Y-109366666D02*
X104338152Y-109366666D01*
X104338152Y-109366666D02*
X104433390Y-109414285D01*
X104433390Y-109414285D02*
X104481009Y-109461904D01*
X104481009Y-109461904D02*
X104528628Y-109557142D01*
X104528628Y-109557142D02*
X104528628Y-109938094D01*
X104004819Y-109033332D02*
X104004819Y-108366666D01*
X104004819Y-108366666D02*
X105004819Y-108795237D01*
X113914819Y-100450594D02*
X112914819Y-100450594D01*
X112914819Y-100450594D02*
X112914819Y-100212499D01*
X112914819Y-100212499D02*
X112962438Y-100069642D01*
X112962438Y-100069642D02*
X113057676Y-99974404D01*
X113057676Y-99974404D02*
X113152914Y-99926785D01*
X113152914Y-99926785D02*
X113343390Y-99879166D01*
X113343390Y-99879166D02*
X113486247Y-99879166D01*
X113486247Y-99879166D02*
X113676723Y-99926785D01*
X113676723Y-99926785D02*
X113771961Y-99974404D01*
X113771961Y-99974404D02*
X113867200Y-100069642D01*
X113867200Y-100069642D02*
X113914819Y-100212499D01*
X113914819Y-100212499D02*
X113914819Y-100450594D01*
X112914819Y-99022023D02*
X112914819Y-99212499D01*
X112914819Y-99212499D02*
X112962438Y-99307737D01*
X112962438Y-99307737D02*
X113010057Y-99355356D01*
X113010057Y-99355356D02*
X113152914Y-99450594D01*
X113152914Y-99450594D02*
X113343390Y-99498213D01*
X113343390Y-99498213D02*
X113724342Y-99498213D01*
X113724342Y-99498213D02*
X113819580Y-99450594D01*
X113819580Y-99450594D02*
X113867200Y-99402975D01*
X113867200Y-99402975D02*
X113914819Y-99307737D01*
X113914819Y-99307737D02*
X113914819Y-99117261D01*
X113914819Y-99117261D02*
X113867200Y-99022023D01*
X113867200Y-99022023D02*
X113819580Y-98974404D01*
X113819580Y-98974404D02*
X113724342Y-98926785D01*
X113724342Y-98926785D02*
X113486247Y-98926785D01*
X113486247Y-98926785D02*
X113391009Y-98974404D01*
X113391009Y-98974404D02*
X113343390Y-99022023D01*
X113343390Y-99022023D02*
X113295771Y-99117261D01*
X113295771Y-99117261D02*
X113295771Y-99307737D01*
X113295771Y-99307737D02*
X113343390Y-99402975D01*
X113343390Y-99402975D02*
X113391009Y-99450594D01*
X113391009Y-99450594D02*
X113486247Y-99498213D01*
X71454819Y-101101785D02*
X70454819Y-101101785D01*
X70454819Y-101101785D02*
X70454819Y-100863690D01*
X70454819Y-100863690D02*
X70502438Y-100720833D01*
X70502438Y-100720833D02*
X70597676Y-100625595D01*
X70597676Y-100625595D02*
X70692914Y-100577976D01*
X70692914Y-100577976D02*
X70883390Y-100530357D01*
X70883390Y-100530357D02*
X71026247Y-100530357D01*
X71026247Y-100530357D02*
X71216723Y-100577976D01*
X71216723Y-100577976D02*
X71311961Y-100625595D01*
X71311961Y-100625595D02*
X71407200Y-100720833D01*
X71407200Y-100720833D02*
X71454819Y-100863690D01*
X71454819Y-100863690D02*
X71454819Y-101101785D01*
X71454819Y-99577976D02*
X71454819Y-100149404D01*
X71454819Y-99863690D02*
X70454819Y-99863690D01*
X70454819Y-99863690D02*
X70597676Y-99958928D01*
X70597676Y-99958928D02*
X70692914Y-100054166D01*
X70692914Y-100054166D02*
X70740533Y-100149404D01*
X71454819Y-98625595D02*
X71454819Y-99197023D01*
X71454819Y-98911309D02*
X70454819Y-98911309D01*
X70454819Y-98911309D02*
X70597676Y-99006547D01*
X70597676Y-99006547D02*
X70692914Y-99101785D01*
X70692914Y-99101785D02*
X70740533Y-99197023D01*
X106454819Y-100525594D02*
X105454819Y-100525594D01*
X105454819Y-100525594D02*
X105454819Y-100287499D01*
X105454819Y-100287499D02*
X105502438Y-100144642D01*
X105502438Y-100144642D02*
X105597676Y-100049404D01*
X105597676Y-100049404D02*
X105692914Y-100001785D01*
X105692914Y-100001785D02*
X105883390Y-99954166D01*
X105883390Y-99954166D02*
X106026247Y-99954166D01*
X106026247Y-99954166D02*
X106216723Y-100001785D01*
X106216723Y-100001785D02*
X106311961Y-100049404D01*
X106311961Y-100049404D02*
X106407200Y-100144642D01*
X106407200Y-100144642D02*
X106454819Y-100287499D01*
X106454819Y-100287499D02*
X106454819Y-100525594D01*
X105454819Y-99620832D02*
X105454819Y-98954166D01*
X105454819Y-98954166D02*
X106454819Y-99382737D01*
X120954819Y-100625594D02*
X119954819Y-100625594D01*
X119954819Y-100625594D02*
X119954819Y-100387499D01*
X119954819Y-100387499D02*
X120002438Y-100244642D01*
X120002438Y-100244642D02*
X120097676Y-100149404D01*
X120097676Y-100149404D02*
X120192914Y-100101785D01*
X120192914Y-100101785D02*
X120383390Y-100054166D01*
X120383390Y-100054166D02*
X120526247Y-100054166D01*
X120526247Y-100054166D02*
X120716723Y-100101785D01*
X120716723Y-100101785D02*
X120811961Y-100149404D01*
X120811961Y-100149404D02*
X120907200Y-100244642D01*
X120907200Y-100244642D02*
X120954819Y-100387499D01*
X120954819Y-100387499D02*
X120954819Y-100625594D01*
X119954819Y-99149404D02*
X119954819Y-99625594D01*
X119954819Y-99625594D02*
X120431009Y-99673213D01*
X120431009Y-99673213D02*
X120383390Y-99625594D01*
X120383390Y-99625594D02*
X120335771Y-99530356D01*
X120335771Y-99530356D02*
X120335771Y-99292261D01*
X120335771Y-99292261D02*
X120383390Y-99197023D01*
X120383390Y-99197023D02*
X120431009Y-99149404D01*
X120431009Y-99149404D02*
X120526247Y-99101785D01*
X120526247Y-99101785D02*
X120764342Y-99101785D01*
X120764342Y-99101785D02*
X120859580Y-99149404D01*
X120859580Y-99149404D02*
X120907200Y-99197023D01*
X120907200Y-99197023D02*
X120954819Y-99292261D01*
X120954819Y-99292261D02*
X120954819Y-99530356D01*
X120954819Y-99530356D02*
X120907200Y-99625594D01*
X120907200Y-99625594D02*
X120859580Y-99673213D01*
X134454819Y-100338094D02*
X133454819Y-100338094D01*
X133454819Y-100338094D02*
X133454819Y-100099999D01*
X133454819Y-100099999D02*
X133502438Y-99957142D01*
X133502438Y-99957142D02*
X133597676Y-99861904D01*
X133597676Y-99861904D02*
X133692914Y-99814285D01*
X133692914Y-99814285D02*
X133883390Y-99766666D01*
X133883390Y-99766666D02*
X134026247Y-99766666D01*
X134026247Y-99766666D02*
X134216723Y-99814285D01*
X134216723Y-99814285D02*
X134311961Y-99861904D01*
X134311961Y-99861904D02*
X134407200Y-99957142D01*
X134407200Y-99957142D02*
X134454819Y-100099999D01*
X134454819Y-100099999D02*
X134454819Y-100338094D01*
X133454819Y-99433332D02*
X133454819Y-98814285D01*
X133454819Y-98814285D02*
X133835771Y-99147618D01*
X133835771Y-99147618D02*
X133835771Y-99004761D01*
X133835771Y-99004761D02*
X133883390Y-98909523D01*
X133883390Y-98909523D02*
X133931009Y-98861904D01*
X133931009Y-98861904D02*
X134026247Y-98814285D01*
X134026247Y-98814285D02*
X134264342Y-98814285D01*
X134264342Y-98814285D02*
X134359580Y-98861904D01*
X134359580Y-98861904D02*
X134407200Y-98909523D01*
X134407200Y-98909523D02*
X134454819Y-99004761D01*
X134454819Y-99004761D02*
X134454819Y-99290475D01*
X134454819Y-99290475D02*
X134407200Y-99385713D01*
X134407200Y-99385713D02*
X134359580Y-99433332D01*
X77104819Y-89842857D02*
X76628628Y-90176190D01*
X77104819Y-90414285D02*
X76104819Y-90414285D01*
X76104819Y-90414285D02*
X76104819Y-90033333D01*
X76104819Y-90033333D02*
X76152438Y-89938095D01*
X76152438Y-89938095D02*
X76200057Y-89890476D01*
X76200057Y-89890476D02*
X76295295Y-89842857D01*
X76295295Y-89842857D02*
X76438152Y-89842857D01*
X76438152Y-89842857D02*
X76533390Y-89890476D01*
X76533390Y-89890476D02*
X76581009Y-89938095D01*
X76581009Y-89938095D02*
X76628628Y-90033333D01*
X76628628Y-90033333D02*
X76628628Y-90414285D01*
X77104819Y-88890476D02*
X77104819Y-89461904D01*
X77104819Y-89176190D02*
X76104819Y-89176190D01*
X76104819Y-89176190D02*
X76247676Y-89271428D01*
X76247676Y-89271428D02*
X76342914Y-89366666D01*
X76342914Y-89366666D02*
X76390533Y-89461904D01*
X77104819Y-87938095D02*
X77104819Y-88509523D01*
X77104819Y-88223809D02*
X76104819Y-88223809D01*
X76104819Y-88223809D02*
X76247676Y-88319047D01*
X76247676Y-88319047D02*
X76342914Y-88414285D01*
X76342914Y-88414285D02*
X76390533Y-88509523D01*
X139054819Y-108666666D02*
X138578628Y-108999999D01*
X139054819Y-109238094D02*
X138054819Y-109238094D01*
X138054819Y-109238094D02*
X138054819Y-108857142D01*
X138054819Y-108857142D02*
X138102438Y-108761904D01*
X138102438Y-108761904D02*
X138150057Y-108714285D01*
X138150057Y-108714285D02*
X138245295Y-108666666D01*
X138245295Y-108666666D02*
X138388152Y-108666666D01*
X138388152Y-108666666D02*
X138483390Y-108714285D01*
X138483390Y-108714285D02*
X138531009Y-108761904D01*
X138531009Y-108761904D02*
X138578628Y-108857142D01*
X138578628Y-108857142D02*
X138578628Y-109238094D01*
X138150057Y-108285713D02*
X138102438Y-108238094D01*
X138102438Y-108238094D02*
X138054819Y-108142856D01*
X138054819Y-108142856D02*
X138054819Y-107904761D01*
X138054819Y-107904761D02*
X138102438Y-107809523D01*
X138102438Y-107809523D02*
X138150057Y-107761904D01*
X138150057Y-107761904D02*
X138245295Y-107714285D01*
X138245295Y-107714285D02*
X138340533Y-107714285D01*
X138340533Y-107714285D02*
X138483390Y-107761904D01*
X138483390Y-107761904D02*
X139054819Y-108333332D01*
X139054819Y-108333332D02*
X139054819Y-107714285D01*
X80954819Y-101014285D02*
X79954819Y-101014285D01*
X79954819Y-101014285D02*
X79954819Y-100776190D01*
X79954819Y-100776190D02*
X80002438Y-100633333D01*
X80002438Y-100633333D02*
X80097676Y-100538095D01*
X80097676Y-100538095D02*
X80192914Y-100490476D01*
X80192914Y-100490476D02*
X80383390Y-100442857D01*
X80383390Y-100442857D02*
X80526247Y-100442857D01*
X80526247Y-100442857D02*
X80716723Y-100490476D01*
X80716723Y-100490476D02*
X80811961Y-100538095D01*
X80811961Y-100538095D02*
X80907200Y-100633333D01*
X80907200Y-100633333D02*
X80954819Y-100776190D01*
X80954819Y-100776190D02*
X80954819Y-101014285D01*
X80954819Y-99490476D02*
X80954819Y-100061904D01*
X80954819Y-99776190D02*
X79954819Y-99776190D01*
X79954819Y-99776190D02*
X80097676Y-99871428D01*
X80097676Y-99871428D02*
X80192914Y-99966666D01*
X80192914Y-99966666D02*
X80240533Y-100061904D01*
X79954819Y-98871428D02*
X79954819Y-98776190D01*
X79954819Y-98776190D02*
X80002438Y-98680952D01*
X80002438Y-98680952D02*
X80050057Y-98633333D01*
X80050057Y-98633333D02*
X80145295Y-98585714D01*
X80145295Y-98585714D02*
X80335771Y-98538095D01*
X80335771Y-98538095D02*
X80573866Y-98538095D01*
X80573866Y-98538095D02*
X80764342Y-98585714D01*
X80764342Y-98585714D02*
X80859580Y-98633333D01*
X80859580Y-98633333D02*
X80907200Y-98680952D01*
X80907200Y-98680952D02*
X80954819Y-98776190D01*
X80954819Y-98776190D02*
X80954819Y-98871428D01*
X80954819Y-98871428D02*
X80907200Y-98966666D01*
X80907200Y-98966666D02*
X80859580Y-99014285D01*
X80859580Y-99014285D02*
X80764342Y-99061904D01*
X80764342Y-99061904D02*
X80573866Y-99109523D01*
X80573866Y-99109523D02*
X80335771Y-99109523D01*
X80335771Y-99109523D02*
X80145295Y-99061904D01*
X80145295Y-99061904D02*
X80050057Y-99014285D01*
X80050057Y-99014285D02*
X80002438Y-98966666D01*
X80002438Y-98966666D02*
X79954819Y-98871428D01*
X88833333Y-84454819D02*
X88500000Y-83978628D01*
X88261905Y-84454819D02*
X88261905Y-83454819D01*
X88261905Y-83454819D02*
X88642857Y-83454819D01*
X88642857Y-83454819D02*
X88738095Y-83502438D01*
X88738095Y-83502438D02*
X88785714Y-83550057D01*
X88785714Y-83550057D02*
X88833333Y-83645295D01*
X88833333Y-83645295D02*
X88833333Y-83788152D01*
X88833333Y-83788152D02*
X88785714Y-83883390D01*
X88785714Y-83883390D02*
X88738095Y-83931009D01*
X88738095Y-83931009D02*
X88642857Y-83978628D01*
X88642857Y-83978628D02*
X88261905Y-83978628D01*
X89309524Y-84454819D02*
X89500000Y-84454819D01*
X89500000Y-84454819D02*
X89595238Y-84407200D01*
X89595238Y-84407200D02*
X89642857Y-84359580D01*
X89642857Y-84359580D02*
X89738095Y-84216723D01*
X89738095Y-84216723D02*
X89785714Y-84026247D01*
X89785714Y-84026247D02*
X89785714Y-83645295D01*
X89785714Y-83645295D02*
X89738095Y-83550057D01*
X89738095Y-83550057D02*
X89690476Y-83502438D01*
X89690476Y-83502438D02*
X89595238Y-83454819D01*
X89595238Y-83454819D02*
X89404762Y-83454819D01*
X89404762Y-83454819D02*
X89309524Y-83502438D01*
X89309524Y-83502438D02*
X89261905Y-83550057D01*
X89261905Y-83550057D02*
X89214286Y-83645295D01*
X89214286Y-83645295D02*
X89214286Y-83883390D01*
X89214286Y-83883390D02*
X89261905Y-83978628D01*
X89261905Y-83978628D02*
X89309524Y-84026247D01*
X89309524Y-84026247D02*
X89404762Y-84073866D01*
X89404762Y-84073866D02*
X89595238Y-84073866D01*
X89595238Y-84073866D02*
X89690476Y-84026247D01*
X89690476Y-84026247D02*
X89738095Y-83978628D01*
X89738095Y-83978628D02*
X89785714Y-83883390D01*
X141554819Y-100250594D02*
X140554819Y-100250594D01*
X140554819Y-100250594D02*
X140554819Y-100012499D01*
X140554819Y-100012499D02*
X140602438Y-99869642D01*
X140602438Y-99869642D02*
X140697676Y-99774404D01*
X140697676Y-99774404D02*
X140792914Y-99726785D01*
X140792914Y-99726785D02*
X140983390Y-99679166D01*
X140983390Y-99679166D02*
X141126247Y-99679166D01*
X141126247Y-99679166D02*
X141316723Y-99726785D01*
X141316723Y-99726785D02*
X141411961Y-99774404D01*
X141411961Y-99774404D02*
X141507200Y-99869642D01*
X141507200Y-99869642D02*
X141554819Y-100012499D01*
X141554819Y-100012499D02*
X141554819Y-100250594D01*
X140650057Y-99298213D02*
X140602438Y-99250594D01*
X140602438Y-99250594D02*
X140554819Y-99155356D01*
X140554819Y-99155356D02*
X140554819Y-98917261D01*
X140554819Y-98917261D02*
X140602438Y-98822023D01*
X140602438Y-98822023D02*
X140650057Y-98774404D01*
X140650057Y-98774404D02*
X140745295Y-98726785D01*
X140745295Y-98726785D02*
X140840533Y-98726785D01*
X140840533Y-98726785D02*
X140983390Y-98774404D01*
X140983390Y-98774404D02*
X141554819Y-99345832D01*
X141554819Y-99345832D02*
X141554819Y-98726785D01*
X82357142Y-85454819D02*
X82023809Y-84978628D01*
X81785714Y-85454819D02*
X81785714Y-84454819D01*
X81785714Y-84454819D02*
X82166666Y-84454819D01*
X82166666Y-84454819D02*
X82261904Y-84502438D01*
X82261904Y-84502438D02*
X82309523Y-84550057D01*
X82309523Y-84550057D02*
X82357142Y-84645295D01*
X82357142Y-84645295D02*
X82357142Y-84788152D01*
X82357142Y-84788152D02*
X82309523Y-84883390D01*
X82309523Y-84883390D02*
X82261904Y-84931009D01*
X82261904Y-84931009D02*
X82166666Y-84978628D01*
X82166666Y-84978628D02*
X81785714Y-84978628D01*
X83309523Y-85454819D02*
X82738095Y-85454819D01*
X83023809Y-85454819D02*
X83023809Y-84454819D01*
X83023809Y-84454819D02*
X82928571Y-84597676D01*
X82928571Y-84597676D02*
X82833333Y-84692914D01*
X82833333Y-84692914D02*
X82738095Y-84740533D01*
X83928571Y-84454819D02*
X84023809Y-84454819D01*
X84023809Y-84454819D02*
X84119047Y-84502438D01*
X84119047Y-84502438D02*
X84166666Y-84550057D01*
X84166666Y-84550057D02*
X84214285Y-84645295D01*
X84214285Y-84645295D02*
X84261904Y-84835771D01*
X84261904Y-84835771D02*
X84261904Y-85073866D01*
X84261904Y-85073866D02*
X84214285Y-85264342D01*
X84214285Y-85264342D02*
X84166666Y-85359580D01*
X84166666Y-85359580D02*
X84119047Y-85407200D01*
X84119047Y-85407200D02*
X84023809Y-85454819D01*
X84023809Y-85454819D02*
X83928571Y-85454819D01*
X83928571Y-85454819D02*
X83833333Y-85407200D01*
X83833333Y-85407200D02*
X83785714Y-85359580D01*
X83785714Y-85359580D02*
X83738095Y-85264342D01*
X83738095Y-85264342D02*
X83690476Y-85073866D01*
X83690476Y-85073866D02*
X83690476Y-84835771D01*
X83690476Y-84835771D02*
X83738095Y-84645295D01*
X83738095Y-84645295D02*
X83785714Y-84550057D01*
X83785714Y-84550057D02*
X83833333Y-84502438D01*
X83833333Y-84502438D02*
X83928571Y-84454819D01*
X111604819Y-109066666D02*
X111128628Y-109399999D01*
X111604819Y-109638094D02*
X110604819Y-109638094D01*
X110604819Y-109638094D02*
X110604819Y-109257142D01*
X110604819Y-109257142D02*
X110652438Y-109161904D01*
X110652438Y-109161904D02*
X110700057Y-109114285D01*
X110700057Y-109114285D02*
X110795295Y-109066666D01*
X110795295Y-109066666D02*
X110938152Y-109066666D01*
X110938152Y-109066666D02*
X111033390Y-109114285D01*
X111033390Y-109114285D02*
X111081009Y-109161904D01*
X111081009Y-109161904D02*
X111128628Y-109257142D01*
X111128628Y-109257142D02*
X111128628Y-109638094D01*
X110604819Y-108209523D02*
X110604819Y-108399999D01*
X110604819Y-108399999D02*
X110652438Y-108495237D01*
X110652438Y-108495237D02*
X110700057Y-108542856D01*
X110700057Y-108542856D02*
X110842914Y-108638094D01*
X110842914Y-108638094D02*
X111033390Y-108685713D01*
X111033390Y-108685713D02*
X111414342Y-108685713D01*
X111414342Y-108685713D02*
X111509580Y-108638094D01*
X111509580Y-108638094D02*
X111557200Y-108590475D01*
X111557200Y-108590475D02*
X111604819Y-108495237D01*
X111604819Y-108495237D02*
X111604819Y-108304761D01*
X111604819Y-108304761D02*
X111557200Y-108209523D01*
X111557200Y-108209523D02*
X111509580Y-108161904D01*
X111509580Y-108161904D02*
X111414342Y-108114285D01*
X111414342Y-108114285D02*
X111176247Y-108114285D01*
X111176247Y-108114285D02*
X111081009Y-108161904D01*
X111081009Y-108161904D02*
X111033390Y-108209523D01*
X111033390Y-108209523D02*
X110985771Y-108304761D01*
X110985771Y-108304761D02*
X110985771Y-108495237D01*
X110985771Y-108495237D02*
X111033390Y-108590475D01*
X111033390Y-108590475D02*
X111081009Y-108638094D01*
X111081009Y-108638094D02*
X111176247Y-108685713D01*
X87254819Y-100425594D02*
X86254819Y-100425594D01*
X86254819Y-100425594D02*
X86254819Y-100187499D01*
X86254819Y-100187499D02*
X86302438Y-100044642D01*
X86302438Y-100044642D02*
X86397676Y-99949404D01*
X86397676Y-99949404D02*
X86492914Y-99901785D01*
X86492914Y-99901785D02*
X86683390Y-99854166D01*
X86683390Y-99854166D02*
X86826247Y-99854166D01*
X86826247Y-99854166D02*
X87016723Y-99901785D01*
X87016723Y-99901785D02*
X87111961Y-99949404D01*
X87111961Y-99949404D02*
X87207200Y-100044642D01*
X87207200Y-100044642D02*
X87254819Y-100187499D01*
X87254819Y-100187499D02*
X87254819Y-100425594D01*
X87254819Y-99377975D02*
X87254819Y-99187499D01*
X87254819Y-99187499D02*
X87207200Y-99092261D01*
X87207200Y-99092261D02*
X87159580Y-99044642D01*
X87159580Y-99044642D02*
X87016723Y-98949404D01*
X87016723Y-98949404D02*
X86826247Y-98901785D01*
X86826247Y-98901785D02*
X86445295Y-98901785D01*
X86445295Y-98901785D02*
X86350057Y-98949404D01*
X86350057Y-98949404D02*
X86302438Y-98997023D01*
X86302438Y-98997023D02*
X86254819Y-99092261D01*
X86254819Y-99092261D02*
X86254819Y-99282737D01*
X86254819Y-99282737D02*
X86302438Y-99377975D01*
X86302438Y-99377975D02*
X86350057Y-99425594D01*
X86350057Y-99425594D02*
X86445295Y-99473213D01*
X86445295Y-99473213D02*
X86683390Y-99473213D01*
X86683390Y-99473213D02*
X86778628Y-99425594D01*
X86778628Y-99425594D02*
X86826247Y-99377975D01*
X86826247Y-99377975D02*
X86873866Y-99282737D01*
X86873866Y-99282737D02*
X86873866Y-99092261D01*
X86873866Y-99092261D02*
X86826247Y-98997023D01*
X86826247Y-98997023D02*
X86778628Y-98949404D01*
X86778628Y-98949404D02*
X86683390Y-98901785D01*
X145804819Y-108541666D02*
X145328628Y-108874999D01*
X145804819Y-109113094D02*
X144804819Y-109113094D01*
X144804819Y-109113094D02*
X144804819Y-108732142D01*
X144804819Y-108732142D02*
X144852438Y-108636904D01*
X144852438Y-108636904D02*
X144900057Y-108589285D01*
X144900057Y-108589285D02*
X144995295Y-108541666D01*
X144995295Y-108541666D02*
X145138152Y-108541666D01*
X145138152Y-108541666D02*
X145233390Y-108589285D01*
X145233390Y-108589285D02*
X145281009Y-108636904D01*
X145281009Y-108636904D02*
X145328628Y-108732142D01*
X145328628Y-108732142D02*
X145328628Y-109113094D01*
X145804819Y-107589285D02*
X145804819Y-108160713D01*
X145804819Y-107874999D02*
X144804819Y-107874999D01*
X144804819Y-107874999D02*
X144947676Y-107970237D01*
X144947676Y-107970237D02*
X145042914Y-108065475D01*
X145042914Y-108065475D02*
X145090533Y-108160713D01*
X125404819Y-108641666D02*
X124928628Y-108974999D01*
X125404819Y-109213094D02*
X124404819Y-109213094D01*
X124404819Y-109213094D02*
X124404819Y-108832142D01*
X124404819Y-108832142D02*
X124452438Y-108736904D01*
X124452438Y-108736904D02*
X124500057Y-108689285D01*
X124500057Y-108689285D02*
X124595295Y-108641666D01*
X124595295Y-108641666D02*
X124738152Y-108641666D01*
X124738152Y-108641666D02*
X124833390Y-108689285D01*
X124833390Y-108689285D02*
X124881009Y-108736904D01*
X124881009Y-108736904D02*
X124928628Y-108832142D01*
X124928628Y-108832142D02*
X124928628Y-109213094D01*
X124738152Y-107784523D02*
X125404819Y-107784523D01*
X124357200Y-108022618D02*
X125071485Y-108260713D01*
X125071485Y-108260713D02*
X125071485Y-107641666D01*
X148454819Y-100338094D02*
X147454819Y-100338094D01*
X147454819Y-100338094D02*
X147454819Y-100099999D01*
X147454819Y-100099999D02*
X147502438Y-99957142D01*
X147502438Y-99957142D02*
X147597676Y-99861904D01*
X147597676Y-99861904D02*
X147692914Y-99814285D01*
X147692914Y-99814285D02*
X147883390Y-99766666D01*
X147883390Y-99766666D02*
X148026247Y-99766666D01*
X148026247Y-99766666D02*
X148216723Y-99814285D01*
X148216723Y-99814285D02*
X148311961Y-99861904D01*
X148311961Y-99861904D02*
X148407200Y-99957142D01*
X148407200Y-99957142D02*
X148454819Y-100099999D01*
X148454819Y-100099999D02*
X148454819Y-100338094D01*
X148454819Y-98814285D02*
X148454819Y-99385713D01*
X148454819Y-99099999D02*
X147454819Y-99099999D01*
X147454819Y-99099999D02*
X147597676Y-99195237D01*
X147597676Y-99195237D02*
X147692914Y-99290475D01*
X147692914Y-99290475D02*
X147740533Y-99385713D01*
X93634819Y-100313094D02*
X92634819Y-100313094D01*
X92634819Y-100313094D02*
X92634819Y-100074999D01*
X92634819Y-100074999D02*
X92682438Y-99932142D01*
X92682438Y-99932142D02*
X92777676Y-99836904D01*
X92777676Y-99836904D02*
X92872914Y-99789285D01*
X92872914Y-99789285D02*
X93063390Y-99741666D01*
X93063390Y-99741666D02*
X93206247Y-99741666D01*
X93206247Y-99741666D02*
X93396723Y-99789285D01*
X93396723Y-99789285D02*
X93491961Y-99836904D01*
X93491961Y-99836904D02*
X93587200Y-99932142D01*
X93587200Y-99932142D02*
X93634819Y-100074999D01*
X93634819Y-100074999D02*
X93634819Y-100313094D01*
X93063390Y-99170237D02*
X93015771Y-99265475D01*
X93015771Y-99265475D02*
X92968152Y-99313094D01*
X92968152Y-99313094D02*
X92872914Y-99360713D01*
X92872914Y-99360713D02*
X92825295Y-99360713D01*
X92825295Y-99360713D02*
X92730057Y-99313094D01*
X92730057Y-99313094D02*
X92682438Y-99265475D01*
X92682438Y-99265475D02*
X92634819Y-99170237D01*
X92634819Y-99170237D02*
X92634819Y-98979761D01*
X92634819Y-98979761D02*
X92682438Y-98884523D01*
X92682438Y-98884523D02*
X92730057Y-98836904D01*
X92730057Y-98836904D02*
X92825295Y-98789285D01*
X92825295Y-98789285D02*
X92872914Y-98789285D01*
X92872914Y-98789285D02*
X92968152Y-98836904D01*
X92968152Y-98836904D02*
X93015771Y-98884523D01*
X93015771Y-98884523D02*
X93063390Y-98979761D01*
X93063390Y-98979761D02*
X93063390Y-99170237D01*
X93063390Y-99170237D02*
X93111009Y-99265475D01*
X93111009Y-99265475D02*
X93158628Y-99313094D01*
X93158628Y-99313094D02*
X93253866Y-99360713D01*
X93253866Y-99360713D02*
X93444342Y-99360713D01*
X93444342Y-99360713D02*
X93539580Y-99313094D01*
X93539580Y-99313094D02*
X93587200Y-99265475D01*
X93587200Y-99265475D02*
X93634819Y-99170237D01*
X93634819Y-99170237D02*
X93634819Y-98979761D01*
X93634819Y-98979761D02*
X93587200Y-98884523D01*
X93587200Y-98884523D02*
X93539580Y-98836904D01*
X93539580Y-98836904D02*
X93444342Y-98789285D01*
X93444342Y-98789285D02*
X93253866Y-98789285D01*
X93253866Y-98789285D02*
X93158628Y-98836904D01*
X93158628Y-98836904D02*
X93111009Y-98884523D01*
X93111009Y-98884523D02*
X93063390Y-98979761D01*
X226105176Y-99113483D02*
X224702798Y-99113483D01*
X224702798Y-99113483D02*
X226105176Y-98312124D01*
X226105176Y-98312124D02*
X224702798Y-98312124D01*
X225170258Y-97043306D02*
X226105176Y-97043306D01*
X225170258Y-97644325D02*
X225904837Y-97644325D01*
X225904837Y-97644325D02*
X226038397Y-97577545D01*
X226038397Y-97577545D02*
X226105176Y-97443985D01*
X226105176Y-97443985D02*
X226105176Y-97243646D01*
X226105176Y-97243646D02*
X226038397Y-97110086D01*
X226038397Y-97110086D02*
X225971617Y-97043306D01*
X226038397Y-95774488D02*
X226105176Y-95908048D01*
X226105176Y-95908048D02*
X226105176Y-96175167D01*
X226105176Y-96175167D02*
X226038397Y-96308727D01*
X226038397Y-96308727D02*
X225971617Y-96375507D01*
X225971617Y-96375507D02*
X225838057Y-96442287D01*
X225838057Y-96442287D02*
X225437377Y-96442287D01*
X225437377Y-96442287D02*
X225303818Y-96375507D01*
X225303818Y-96375507D02*
X225237038Y-96308727D01*
X225237038Y-96308727D02*
X225170258Y-96175167D01*
X225170258Y-96175167D02*
X225170258Y-95908048D01*
X225170258Y-95908048D02*
X225237038Y-95774488D01*
X226105176Y-94973129D02*
X226038397Y-95106689D01*
X226038397Y-95106689D02*
X225904837Y-95173469D01*
X225904837Y-95173469D02*
X224702798Y-95173469D01*
X226038397Y-93904651D02*
X226105176Y-94038211D01*
X226105176Y-94038211D02*
X226105176Y-94305330D01*
X226105176Y-94305330D02*
X226038397Y-94438890D01*
X226038397Y-94438890D02*
X225904837Y-94505670D01*
X225904837Y-94505670D02*
X225370597Y-94505670D01*
X225370597Y-94505670D02*
X225237038Y-94438890D01*
X225237038Y-94438890D02*
X225170258Y-94305330D01*
X225170258Y-94305330D02*
X225170258Y-94038211D01*
X225170258Y-94038211D02*
X225237038Y-93904651D01*
X225237038Y-93904651D02*
X225370597Y-93837871D01*
X225370597Y-93837871D02*
X225504157Y-93837871D01*
X225504157Y-93837871D02*
X225637717Y-94505670D01*
X226105176Y-93036512D02*
X226038397Y-93170072D01*
X226038397Y-93170072D02*
X225971617Y-93236852D01*
X225971617Y-93236852D02*
X225838057Y-93303632D01*
X225838057Y-93303632D02*
X225437377Y-93303632D01*
X225437377Y-93303632D02*
X225303818Y-93236852D01*
X225303818Y-93236852D02*
X225237038Y-93170072D01*
X225237038Y-93170072D02*
X225170258Y-93036512D01*
X225170258Y-93036512D02*
X225170258Y-92836173D01*
X225170258Y-92836173D02*
X225237038Y-92702613D01*
X225237038Y-92702613D02*
X225303818Y-92635833D01*
X225303818Y-92635833D02*
X225437377Y-92569053D01*
X225437377Y-92569053D02*
X225838057Y-92569053D01*
X225838057Y-92569053D02*
X225971617Y-92635833D01*
X225971617Y-92635833D02*
X226038397Y-92702613D01*
X226038397Y-92702613D02*
X226105176Y-92836173D01*
X226105176Y-92836173D02*
X226105176Y-93036512D01*
X224836358Y-92034814D02*
X224769578Y-91968034D01*
X224769578Y-91968034D02*
X224702798Y-91834474D01*
X224702798Y-91834474D02*
X224702798Y-91500575D01*
X224702798Y-91500575D02*
X224769578Y-91367015D01*
X224769578Y-91367015D02*
X224836358Y-91300235D01*
X224836358Y-91300235D02*
X224969918Y-91233455D01*
X224969918Y-91233455D02*
X225103478Y-91233455D01*
X225103478Y-91233455D02*
X225303818Y-91300235D01*
X225303818Y-91300235D02*
X226105176Y-92101594D01*
X226105176Y-92101594D02*
X226105176Y-91233455D01*
D12*
%TO.C,D4*%
X122565000Y-95690000D02*
X122565000Y-102850000D01*
X126435000Y-95690000D02*
X122565000Y-95690000D01*
X126435000Y-102850000D02*
X126435000Y-95690000D01*
%TO.C,R8*%
X92290000Y-87713748D02*
X92290000Y-90486252D01*
X95710000Y-87713748D02*
X95710000Y-90486252D01*
%TO.C,R5*%
X118990000Y-110261252D02*
X118990000Y-107488748D01*
X122410000Y-110261252D02*
X122410000Y-107488748D01*
%TO.C,R3*%
X132590000Y-110186252D02*
X132590000Y-107413748D01*
X136010000Y-110186252D02*
X136010000Y-107413748D01*
%TO.C,R7*%
X105490000Y-110586252D02*
X105490000Y-107813748D01*
X108910000Y-110586252D02*
X108910000Y-107813748D01*
%TO.C,D6*%
X108365000Y-95690000D02*
X108365000Y-102850000D01*
X112235000Y-95690000D02*
X108365000Y-95690000D01*
X112235000Y-102850000D02*
X112235000Y-95690000D01*
%TO.C,D11*%
X71965000Y-96737500D02*
X71965000Y-103897500D01*
X71965000Y-103897500D02*
X75835000Y-103897500D01*
X75835000Y-103897500D02*
X75835000Y-96737500D01*
%TO.C,D7*%
X101265000Y-95777500D02*
X101265000Y-102937500D01*
X105135000Y-95777500D02*
X101265000Y-95777500D01*
X105135000Y-102937500D02*
X105135000Y-95777500D01*
%TO.C,D5*%
X115765000Y-95877500D02*
X115765000Y-103037500D01*
X119635000Y-95877500D02*
X115765000Y-95877500D01*
X119635000Y-103037500D02*
X119635000Y-95877500D01*
%TO.C,D3*%
X129265000Y-95590000D02*
X129265000Y-102750000D01*
X133135000Y-95590000D02*
X129265000Y-95590000D01*
X133135000Y-102750000D02*
X133135000Y-95590000D01*
%TO.C,R11*%
X72290000Y-87813748D02*
X72290000Y-90586252D01*
X75710000Y-87813748D02*
X75710000Y-90586252D01*
%TO.C,R2*%
X139790000Y-109861252D02*
X139790000Y-107088748D01*
X143210000Y-109861252D02*
X143210000Y-107088748D01*
%TO.C,D10*%
X81265000Y-96650000D02*
X81265000Y-103810000D01*
X81265000Y-103810000D02*
X85135000Y-103810000D01*
X85135000Y-103810000D02*
X85135000Y-96650000D01*
%TO.C,R9*%
X87340000Y-87713748D02*
X87340000Y-90486252D01*
X90760000Y-87713748D02*
X90760000Y-90486252D01*
%TO.C,D2*%
X136265000Y-95590000D02*
X136265000Y-102750000D01*
X140135000Y-95590000D02*
X136265000Y-95590000D01*
X140135000Y-102750000D02*
X140135000Y-95590000D01*
%TO.C,R10*%
X82390000Y-87713748D02*
X82390000Y-90486252D01*
X85810000Y-87713748D02*
X85810000Y-90486252D01*
%TO.C,R6*%
X112090000Y-110286252D02*
X112090000Y-107513748D01*
X115510000Y-110286252D02*
X115510000Y-107513748D01*
%TO.C,J3*%
X91910000Y-108620000D02*
X91910000Y-118900000D01*
X91910000Y-108620000D02*
X100540000Y-108620000D01*
X91910000Y-108740000D02*
X100540000Y-108740000D01*
X91910000Y-108858095D02*
X100540000Y-108858095D01*
X91910000Y-108976190D02*
X100540000Y-108976190D01*
X91910000Y-109094285D02*
X100540000Y-109094285D01*
X91910000Y-109212380D02*
X100540000Y-109212380D01*
X91910000Y-109330475D02*
X100540000Y-109330475D01*
X91910000Y-109448570D02*
X100540000Y-109448570D01*
X91910000Y-109566665D02*
X100540000Y-109566665D01*
X91910000Y-109684760D02*
X100540000Y-109684760D01*
X91910000Y-109802855D02*
X100540000Y-109802855D01*
X91910000Y-109920950D02*
X100540000Y-109920950D01*
X91910000Y-110039045D02*
X100540000Y-110039045D01*
X91910000Y-110157140D02*
X100540000Y-110157140D01*
X91910000Y-110275235D02*
X100540000Y-110275235D01*
X91910000Y-110393330D02*
X100540000Y-110393330D01*
X91910000Y-110511425D02*
X100540000Y-110511425D01*
X91910000Y-110629520D02*
X100540000Y-110629520D01*
X91910000Y-110747615D02*
X100540000Y-110747615D01*
X91910000Y-110865710D02*
X100540000Y-110865710D01*
X91910000Y-110983805D02*
X100540000Y-110983805D01*
X91910000Y-111101900D02*
X100540000Y-111101900D01*
X91910000Y-111220000D02*
X100540000Y-111220000D01*
X91910000Y-113760000D02*
X100540000Y-113760000D01*
X91910000Y-116300000D02*
X100540000Y-116300000D01*
X91910000Y-118900000D02*
X100540000Y-118900000D01*
X100540000Y-108620000D02*
X100540000Y-118900000D01*
X100540000Y-109590000D02*
X100890000Y-109590000D01*
X100540000Y-110310000D02*
X100890000Y-110310000D01*
X100540000Y-112130000D02*
X100950000Y-112130000D01*
X100540000Y-112850000D02*
X100950000Y-112850000D01*
X100540000Y-114670000D02*
X100950000Y-114670000D01*
X100540000Y-115390000D02*
X100950000Y-115390000D01*
X100540000Y-117210000D02*
X100950000Y-117210000D01*
X100540000Y-117930000D02*
X100950000Y-117930000D01*
X102000000Y-108620000D02*
X103110000Y-108620000D01*
X103110000Y-108620000D02*
X103110000Y-109950000D01*
%TO.C,D9*%
X87565000Y-96537500D02*
X87565000Y-103697500D01*
X87565000Y-103697500D02*
X91435000Y-103697500D01*
X91435000Y-103697500D02*
X91435000Y-96537500D01*
%TO.C,R1*%
X146290000Y-109761252D02*
X146290000Y-106988748D01*
X149710000Y-109761252D02*
X149710000Y-106988748D01*
%TO.C,R4*%
X125890000Y-109861252D02*
X125890000Y-107088748D01*
X129310000Y-109861252D02*
X129310000Y-107088748D01*
%TO.C,D1*%
X143165000Y-95590000D02*
X143165000Y-102750000D01*
X147035000Y-95590000D02*
X143165000Y-95590000D01*
X147035000Y-102750000D02*
X147035000Y-95590000D01*
%TO.C,D8*%
X94245000Y-96637500D02*
X94245000Y-103797500D01*
X94245000Y-103797500D02*
X98115000Y-103797500D01*
X98115000Y-103797500D02*
X98115000Y-96637500D01*
D13*
%TO.C,Nucleo2*%
X173635000Y-90750000D02*
X223925000Y-90750000D01*
X173635000Y-109290000D02*
X173635000Y-90750000D01*
X223925000Y-90750000D02*
X223925000Y-109290000D01*
X223925000Y-109290000D02*
X173635000Y-109290000D01*
D14*
X216760000Y-89860000D02*
G75*
G02*
X216360000Y-89860000I-200000J0D01*
G01*
X216360000Y-89860000D02*
G75*
G02*
X216760000Y-89860000I200000J0D01*
G01*
%TD*%
M02*
