M48
; DRILL file {KiCad 8.0.8} date 2025-04-10T10:17:49+0200
; FORMAT={-:-/ absolute / metric / decimal}
; #@! TF.CreationDate,2025-04-10T10:17:49+02:00
; #@! TF.GenerationSoftware,Kicad,Pcbnew,8.0.8
; #@! TF.FileFunction,Plated,1,2,PTH
FMAT,2
METRIC
; #@! TA.AperFunction,Plated,PTH,ViaDrill
T1C0.300
; #@! TA.AperFunction,Plated,PTH,ComponentDrill
T2C1.000
; #@! TA.AperFunction,Plated,PTH,ComponentDrill
T3C1.020
%
G90
G05
T1
X141.7Y-112.4
X142.5Y-87.5
T2
X102.0Y-109.95
X102.0Y-112.49
X102.0Y-115.03
X102.0Y-117.57
T3
X181.0Y-92.4
X181.0Y-107.64
X183.54Y-92.4
X183.54Y-107.64
X186.08Y-92.4
X186.08Y-107.64
X188.62Y-92.4
X188.62Y-107.64
X191.16Y-92.4
X191.16Y-107.64
X193.7Y-92.4
X193.7Y-107.64
X196.24Y-92.4
X196.24Y-107.64
X198.78Y-92.4
X198.78Y-107.64
X201.32Y-92.4
X201.32Y-107.64
X203.86Y-92.4
X203.86Y-107.64
X206.4Y-92.4
X206.4Y-107.64
X208.94Y-92.4
X208.94Y-107.64
X211.48Y-92.4
X211.48Y-107.64
X214.02Y-92.4
X214.02Y-107.64
X216.56Y-92.4
X216.56Y-107.64
M30
