%TF.GenerationSoftware,KiCad,Pcbnew,8.0.8*%
%TF.CreationDate,2025-04-10T10:16:36+02:00*%
%TF.ProjectId,Projet S6,50726f6a-6574-4205-9336-2e6b69636164,rev?*%
%TF.SameCoordinates,Original*%
%TF.FileFunction,Copper,L1,Top*%
%TF.FilePolarity,Positive*%
%FSLAX46Y46*%
G04 Gerber Fmt 4.6, Leading zero omitted, Abs format (unit mm)*
G04 Created by KiCad (PCBNEW 8.0.8) date 2025-04-10 10:16:36*
%MOMM*%
%LPD*%
G01*
G04 APERTURE LIST*
G04 Aperture macros list*
%AMRoundRect*
0 Rectangle with rounded corners*
0 $1 Rounding radius*
0 $2 $3 $4 $5 $6 $7 $8 $9 X,Y pos of 4 corners*
0 Add a 4 corners polygon primitive as box body*
4,1,4,$2,$3,$4,$5,$6,$7,$8,$9,$2,$3,0*
0 Add four circle primitives for the rounded corners*
1,1,$1+$1,$2,$3*
1,1,$1+$1,$4,$5*
1,1,$1+$1,$6,$7*
1,1,$1+$1,$8,$9*
0 Add four rect primitives between the rounded corners*
20,1,$1+$1,$2,$3,$4,$5,0*
20,1,$1+$1,$4,$5,$6,$7,0*
20,1,$1+$1,$6,$7,$8,$9,0*
20,1,$1+$1,$8,$9,$2,$3,0*%
G04 Aperture macros list end*
%TA.AperFunction,SMDPad,CuDef*%
%ADD10RoundRect,0.249999X-1.425001X0.512501X-1.425001X-0.512501X1.425001X-0.512501X1.425001X0.512501X0*%
%TD*%
%TA.AperFunction,SMDPad,CuDef*%
%ADD11RoundRect,0.250000X-1.450000X0.400000X-1.450000X-0.400000X1.450000X-0.400000X1.450000X0.400000X0*%
%TD*%
%TA.AperFunction,SMDPad,CuDef*%
%ADD12RoundRect,0.250000X1.450000X-0.400000X1.450000X0.400000X-1.450000X0.400000X-1.450000X-0.400000X0*%
%TD*%
%TA.AperFunction,SMDPad,CuDef*%
%ADD13RoundRect,0.249999X1.425001X-0.512501X1.425001X0.512501X-1.425001X0.512501X-1.425001X-0.512501X0*%
%TD*%
%TA.AperFunction,ComponentPad*%
%ADD14R,1.700000X1.700000*%
%TD*%
%TA.AperFunction,ComponentPad*%
%ADD15O,1.700000X1.700000*%
%TD*%
%TA.AperFunction,ComponentPad*%
%ADD16R,1.530000X1.530000*%
%TD*%
%TA.AperFunction,ComponentPad*%
%ADD17C,1.530000*%
%TD*%
%TA.AperFunction,ViaPad*%
%ADD18C,0.600000*%
%TD*%
%TA.AperFunction,Conductor*%
%ADD19C,0.200000*%
%TD*%
G04 APERTURE END LIST*
D10*
%TO.P,D4,1,K*%
%TO.N,GND*%
X124500000Y-96712500D03*
%TO.P,D4,2,A*%
%TO.N,Net-(D4-A)*%
X124500000Y-102687500D03*
%TD*%
D11*
%TO.P,R8,1*%
%TO.N,LED 8*%
X94000000Y-86875000D03*
%TO.P,R8,2*%
%TO.N,Net-(D8-A)*%
X94000000Y-91325000D03*
%TD*%
D12*
%TO.P,R5,1*%
%TO.N,LED 5*%
X120700000Y-111100000D03*
%TO.P,R5,2*%
%TO.N,Net-(D5-A)*%
X120700000Y-106650000D03*
%TD*%
%TO.P,R3,1*%
%TO.N,LED 3*%
X134300000Y-111025000D03*
%TO.P,R3,2*%
%TO.N,Net-(D3-A)*%
X134300000Y-106575000D03*
%TD*%
%TO.P,R7,1*%
%TO.N,LED 7*%
X107200000Y-111425000D03*
%TO.P,R7,2*%
%TO.N,Net-(D7-A)*%
X107200000Y-106975000D03*
%TD*%
D10*
%TO.P,D6,1,K*%
%TO.N,GND*%
X110300000Y-96712500D03*
%TO.P,D6,2,A*%
%TO.N,Net-(D6-A)*%
X110300000Y-102687500D03*
%TD*%
D13*
%TO.P,D11,1,K*%
%TO.N,GND*%
X73900000Y-102875000D03*
%TO.P,D11,2,A*%
%TO.N,Net-(D11-A)*%
X73900000Y-96900000D03*
%TD*%
D10*
%TO.P,D7,1,K*%
%TO.N,GND*%
X103200000Y-96800000D03*
%TO.P,D7,2,A*%
%TO.N,Net-(D7-A)*%
X103200000Y-102775000D03*
%TD*%
%TO.P,D5,1,K*%
%TO.N,GND*%
X117700000Y-96900000D03*
%TO.P,D5,2,A*%
%TO.N,Net-(D5-A)*%
X117700000Y-102875000D03*
%TD*%
%TO.P,D3,1,K*%
%TO.N,GND*%
X131200000Y-96612500D03*
%TO.P,D3,2,A*%
%TO.N,Net-(D3-A)*%
X131200000Y-102587500D03*
%TD*%
D11*
%TO.P,R11,1*%
%TO.N,LED 11*%
X74000000Y-86975000D03*
%TO.P,R11,2*%
%TO.N,Net-(D11-A)*%
X74000000Y-91425000D03*
%TD*%
D12*
%TO.P,R2,1*%
%TO.N,LED 2*%
X141500000Y-110700000D03*
%TO.P,R2,2*%
%TO.N,Net-(D2-A)*%
X141500000Y-106250000D03*
%TD*%
D13*
%TO.P,D10,1,K*%
%TO.N,GND*%
X83200000Y-102787500D03*
%TO.P,D10,2,A*%
%TO.N,Net-(D10-A)*%
X83200000Y-96812500D03*
%TD*%
D11*
%TO.P,R9,1*%
%TO.N,LED 9*%
X89050000Y-86875000D03*
%TO.P,R9,2*%
%TO.N,Net-(D9-A)*%
X89050000Y-91325000D03*
%TD*%
D10*
%TO.P,D2,1,K*%
%TO.N,GND*%
X138200000Y-96612500D03*
%TO.P,D2,2,A*%
%TO.N,Net-(D2-A)*%
X138200000Y-102587500D03*
%TD*%
D11*
%TO.P,R10,1*%
%TO.N,LED 10*%
X84100000Y-86875000D03*
%TO.P,R10,2*%
%TO.N,Net-(D10-A)*%
X84100000Y-91325000D03*
%TD*%
D12*
%TO.P,R6,1*%
%TO.N,LED 6*%
X113800000Y-111125000D03*
%TO.P,R6,2*%
%TO.N,Net-(D6-A)*%
X113800000Y-106675000D03*
%TD*%
D14*
%TO.P,J3,1,Pin_1*%
%TO.N,unconnected-(J3-Pin_1-Pad1)*%
X102000000Y-109950000D03*
D15*
%TO.P,J3,2,Pin_2*%
%TO.N,GND*%
X102000000Y-112490000D03*
%TO.P,J3,3,Pin_3*%
%TO.N,Alim Hall*%
X102000000Y-115030000D03*
%TO.P,J3,4,Pin_4*%
%TO.N,DO*%
X102000000Y-117570000D03*
%TD*%
D13*
%TO.P,D9,1,K*%
%TO.N,GND*%
X89500000Y-102675000D03*
%TO.P,D9,2,A*%
%TO.N,Net-(D9-A)*%
X89500000Y-96700000D03*
%TD*%
D12*
%TO.P,R1,1*%
%TO.N,LED 1*%
X148000000Y-110600000D03*
%TO.P,R1,2*%
%TO.N,Net-(D1-A)*%
X148000000Y-106150000D03*
%TD*%
%TO.P,R4,1*%
%TO.N,LED 4*%
X127600000Y-110700000D03*
%TO.P,R4,2*%
%TO.N,Net-(D4-A)*%
X127600000Y-106250000D03*
%TD*%
D10*
%TO.P,D1,1,K*%
%TO.N,GND*%
X145100000Y-96612500D03*
%TO.P,D1,2,A*%
%TO.N,Net-(D1-A)*%
X145100000Y-102587500D03*
%TD*%
D13*
%TO.P,D8,1,K*%
%TO.N,GND*%
X96180000Y-102775000D03*
%TO.P,D8,2,A*%
%TO.N,Net-(D8-A)*%
X96180000Y-96800000D03*
%TD*%
D16*
%TO.P,Nucleo2,3_1,PA9*%
%TO.N,LED 9*%
X216560000Y-92400000D03*
D17*
%TO.P,Nucleo2,3_2,PA10*%
%TO.N,LED 10*%
X214020000Y-92400000D03*
%TO.P,Nucleo2,3_3,NRST*%
%TO.N,unconnected-(Nucleo2-NRST-Pad3_3)*%
X211480000Y-92400000D03*
%TO.P,Nucleo2,3_4,GND*%
%TO.N,GND*%
X208940000Y-92400000D03*
%TO.P,Nucleo2,3_5,PA12*%
%TO.N,unconnected-(Nucleo2-PA12-Pad3_5)*%
X206400000Y-92400000D03*
%TO.P,Nucleo2,3_6,PB0*%
%TO.N,unconnected-(Nucleo2-PB0-Pad3_6)*%
X203860000Y-92400000D03*
%TO.P,Nucleo2,3_7,PB7*%
%TO.N,unconnected-(Nucleo2-PB7-Pad3_7)*%
X201320000Y-92400000D03*
%TO.P,Nucleo2,3_8,PA15*%
%TO.N,unconnected-(Nucleo2-PA15-Pad3_8)*%
X198780000Y-92400000D03*
%TO.P,Nucleo2,3_9,PB6*%
%TO.N,unconnected-(Nucleo2-PB6-Pad3_9)*%
X196240000Y-92400000D03*
%TO.P,Nucleo2,3_10,PF0*%
%TO.N,unconnected-(Nucleo2-PF0-Pad3_10)*%
X193700000Y-92400000D03*
%TO.P,Nucleo2,3_11,PF1*%
%TO.N,unconnected-(Nucleo2-PF1-Pad3_11)*%
X191160000Y-92400000D03*
%TO.P,Nucleo2,3_12,PA8*%
%TO.N,LED 8*%
X188620000Y-92400000D03*
%TO.P,Nucleo2,3_13,PA11*%
%TO.N,LED 11*%
X186080000Y-92400000D03*
%TO.P,Nucleo2,3_14,PB5*%
%TO.N,unconnected-(Nucleo2-PB5-Pad3_14)*%
X183540000Y-92400000D03*
%TO.P,Nucleo2,3_15,PB4*%
%TO.N,unconnected-(Nucleo2-PB4-Pad3_15)*%
X181000000Y-92400000D03*
D16*
%TO.P,Nucleo2,4_1,VIN*%
%TO.N,unconnected-(Nucleo2-VIN-Pad4_1)*%
X216560000Y-107640000D03*
D17*
%TO.P,Nucleo2,4_2,GND*%
%TO.N,unconnected-(Nucleo2-GND-Pad4_2)*%
X214020000Y-107640000D03*
%TO.P,Nucleo2,4_3*%
%TO.N,N/C*%
X211480000Y-107640000D03*
%TO.P,Nucleo2,4_4,+5V*%
%TO.N,unconnected-(Nucleo2-+5V-Pad4_4)*%
X208940000Y-107640000D03*
%TO.P,Nucleo2,4_5,PA2*%
%TO.N,LED 2*%
X206400000Y-107640000D03*
%TO.P,Nucleo2,4_6,PA7*%
%TO.N,LED 7*%
X203860000Y-107640000D03*
%TO.P,Nucleo2,4_7,PA6*%
%TO.N,LED 6*%
X201320000Y-107640000D03*
%TO.P,Nucleo2,4_8,PA5*%
%TO.N,LED 5*%
X198780000Y-107640000D03*
%TO.P,Nucleo2,4_9,PA4*%
%TO.N,LED 4*%
X196240000Y-107640000D03*
%TO.P,Nucleo2,4_10,PA3*%
%TO.N,LED 3*%
X193700000Y-107640000D03*
%TO.P,Nucleo2,4_11,PA1*%
%TO.N,LED 1*%
X191160000Y-107640000D03*
%TO.P,Nucleo2,4_12,PA0*%
%TO.N,DO*%
X188620000Y-107640000D03*
%TO.P,Nucleo2,4_13,AVDD*%
%TO.N,unconnected-(Nucleo2-AVDD-Pad4_13)*%
X186080000Y-107640000D03*
%TO.P,Nucleo2,4_14,+3V3*%
%TO.N,Alim Hall*%
X183540000Y-107640000D03*
%TO.P,Nucleo2,4_15,PB3*%
%TO.N,unconnected-(Nucleo2-PB3-Pad4_15)*%
X181000000Y-107640000D03*
%TD*%
D18*
%TO.N,LED 9*%
X142500000Y-87500000D03*
%TO.N,LED 2*%
X141700000Y-112400000D03*
%TD*%
D19*
%TO.N,LED 9*%
X142175000Y-87825000D02*
X142500000Y-87500000D01*
X90000000Y-87825000D02*
X142175000Y-87825000D01*
%TO.N,Net-(D1-A)*%
X145100000Y-103250000D02*
X145100000Y-102587500D01*
X148000000Y-106150000D02*
X145100000Y-103250000D01*
%TO.N,Net-(D2-A)*%
X141500000Y-106250000D02*
X138200000Y-102950000D01*
X138200000Y-102950000D02*
X138200000Y-102587500D01*
%TO.N,Net-(D3-A)*%
X131200000Y-103475000D02*
X131200000Y-102587500D01*
X134300000Y-106575000D02*
X131200000Y-103475000D01*
%TO.N,Net-(D4-A)*%
X127600000Y-106250000D02*
X124500000Y-103150000D01*
X124500000Y-103150000D02*
X124500000Y-102687500D01*
%TO.N,Net-(D5-A)*%
X117700000Y-103650000D02*
X117700000Y-102875000D01*
X120700000Y-106650000D02*
X117700000Y-103650000D01*
%TO.N,Net-(D6-A)*%
X113800000Y-106675000D02*
X110300000Y-103175000D01*
X110300000Y-103175000D02*
X110300000Y-102687500D01*
%TO.N,Net-(D7-A)*%
X107200000Y-106975000D02*
X103200000Y-102975000D01*
X103200000Y-102975000D02*
X103200000Y-102775000D01*
%TO.N,Net-(D8-A)*%
X94000000Y-94620000D02*
X94000000Y-91325000D01*
X96180000Y-96800000D02*
X94000000Y-94620000D01*
%TO.N,Net-(D9-A)*%
X89500000Y-91775000D02*
X89050000Y-91325000D01*
X89500000Y-96700000D02*
X89500000Y-91775000D01*
%TO.N,Net-(D10-A)*%
X83200000Y-96812500D02*
X84100000Y-95912500D01*
X84100000Y-95912500D02*
X84100000Y-91325000D01*
%TO.N,Net-(D11-A)*%
X74000000Y-91425000D02*
X74000000Y-96800000D01*
X74000000Y-96800000D02*
X73900000Y-96900000D01*
%TO.N,LED 1*%
X188200000Y-110600000D02*
X191160000Y-107640000D01*
X148000000Y-110600000D02*
X188200000Y-110600000D01*
%TO.N,LED 2*%
X141500000Y-112200000D02*
X141700000Y-112400000D01*
X141500000Y-110700000D02*
X141500000Y-112200000D01*
%TO.N,LED 3*%
X134300000Y-111025000D02*
X136275000Y-113000000D01*
X188340000Y-113000000D02*
X193700000Y-107640000D01*
X136275000Y-113000000D02*
X188340000Y-113000000D01*
%TO.N,LED 4*%
X190480000Y-113400000D02*
X196240000Y-107640000D01*
X127600000Y-110700000D02*
X130300000Y-113400000D01*
X130300000Y-113400000D02*
X190480000Y-113400000D01*
%TO.N,LED 5*%
X192620000Y-113800000D02*
X198780000Y-107640000D01*
X123400000Y-113800000D02*
X192620000Y-113800000D01*
X120700000Y-111100000D02*
X123400000Y-113800000D01*
%TO.N,LED 6*%
X194760000Y-114200000D02*
X201320000Y-107640000D01*
X113800000Y-111125000D02*
X116875000Y-114200000D01*
X116875000Y-114200000D02*
X194760000Y-114200000D01*
%TO.N,LED 7*%
X196900000Y-114600000D02*
X203860000Y-107640000D01*
X107200000Y-111425000D02*
X110375000Y-114600000D01*
X110375000Y-114600000D02*
X196900000Y-114600000D01*
%TO.N,LED 8*%
X94000000Y-86875000D02*
X183095000Y-86875000D01*
X183095000Y-86875000D02*
X188620000Y-92400000D01*
%TO.N,LED 9*%
X89050000Y-86875000D02*
X90000000Y-87825000D01*
%TO.N,LED 10*%
X207120000Y-85500000D02*
X214020000Y-92400000D01*
X85475000Y-85500000D02*
X207120000Y-85500000D01*
X84100000Y-86875000D02*
X85475000Y-85500000D01*
%TO.N,LED 11*%
X74000000Y-86975000D02*
X77400000Y-90375000D01*
X77400000Y-90375000D02*
X184055000Y-90375000D01*
X184055000Y-90375000D02*
X186080000Y-92400000D01*
%TD*%
%TA.AperFunction,Conductor*%
%TO.N,GND*%
G36*
X206886942Y-86120185D02*
G01*
X206907584Y-86136819D01*
X211699837Y-90929073D01*
X211733322Y-90990396D01*
X211728338Y-91060088D01*
X211686466Y-91116021D01*
X211621002Y-91140438D01*
X211601349Y-91140282D01*
X211480002Y-91129666D01*
X211479998Y-91129666D01*
X211259414Y-91148964D01*
X211259407Y-91148965D01*
X211045524Y-91206275D01*
X211045513Y-91206279D01*
X210844836Y-91299856D01*
X210844834Y-91299857D01*
X210663444Y-91426868D01*
X210506868Y-91583444D01*
X210379857Y-91764833D01*
X210322106Y-91888683D01*
X210275934Y-91941122D01*
X210208740Y-91960274D01*
X210141859Y-91940058D01*
X210097342Y-91888683D01*
X210039707Y-91765084D01*
X209993894Y-91699657D01*
X209431128Y-92262424D01*
X209415245Y-92203147D01*
X209348102Y-92086853D01*
X209253147Y-91991898D01*
X209136853Y-91924755D01*
X209077574Y-91908871D01*
X209640341Y-91346104D01*
X209640341Y-91346103D01*
X209574920Y-91300295D01*
X209574916Y-91300293D01*
X209374309Y-91206749D01*
X209374300Y-91206745D01*
X209160509Y-91149461D01*
X209160499Y-91149459D01*
X208940001Y-91130168D01*
X208939999Y-91130168D01*
X208719500Y-91149459D01*
X208719490Y-91149461D01*
X208505699Y-91206745D01*
X208505690Y-91206749D01*
X208305080Y-91300295D01*
X208239658Y-91346103D01*
X208239657Y-91346104D01*
X208802425Y-91908871D01*
X208743147Y-91924755D01*
X208626853Y-91991898D01*
X208531898Y-92086853D01*
X208464755Y-92203147D01*
X208448871Y-92262424D01*
X207886104Y-91699657D01*
X207886103Y-91699658D01*
X207840294Y-91765080D01*
X207782657Y-91888683D01*
X207736484Y-91941122D01*
X207669290Y-91960274D01*
X207602409Y-91940058D01*
X207557893Y-91888682D01*
X207500142Y-91764833D01*
X207373132Y-91583445D01*
X207216555Y-91426868D01*
X207035167Y-91299858D01*
X207035163Y-91299856D01*
X206834486Y-91206279D01*
X206834475Y-91206275D01*
X206620592Y-91148965D01*
X206620585Y-91148964D01*
X206400002Y-91129666D01*
X206399998Y-91129666D01*
X206179414Y-91148964D01*
X206179407Y-91148965D01*
X205965524Y-91206275D01*
X205965513Y-91206279D01*
X205764836Y-91299856D01*
X205764834Y-91299857D01*
X205583444Y-91426868D01*
X205426868Y-91583444D01*
X205299857Y-91764834D01*
X205299856Y-91764836D01*
X205242382Y-91888091D01*
X205196210Y-91940531D01*
X205129017Y-91959683D01*
X205062135Y-91939467D01*
X205017618Y-91888091D01*
X204989050Y-91826828D01*
X204960142Y-91764833D01*
X204833132Y-91583445D01*
X204676555Y-91426868D01*
X204495167Y-91299858D01*
X204495163Y-91299856D01*
X204294486Y-91206279D01*
X204294475Y-91206275D01*
X204080592Y-91148965D01*
X204080585Y-91148964D01*
X203860002Y-91129666D01*
X203859998Y-91129666D01*
X203639414Y-91148964D01*
X203639407Y-91148965D01*
X203425524Y-91206275D01*
X203425513Y-91206279D01*
X203224836Y-91299856D01*
X203224834Y-91299857D01*
X203043444Y-91426868D01*
X202886868Y-91583444D01*
X202759857Y-91764834D01*
X202759856Y-91764836D01*
X202702382Y-91888091D01*
X202656210Y-91940531D01*
X202589017Y-91959683D01*
X202522135Y-91939467D01*
X202477618Y-91888091D01*
X202449050Y-91826828D01*
X202420142Y-91764833D01*
X202293132Y-91583445D01*
X202136555Y-91426868D01*
X201955167Y-91299858D01*
X201955163Y-91299856D01*
X201754486Y-91206279D01*
X201754475Y-91206275D01*
X201540592Y-91148965D01*
X201540585Y-91148964D01*
X201320002Y-91129666D01*
X201319998Y-91129666D01*
X201099414Y-91148964D01*
X201099407Y-91148965D01*
X200885524Y-91206275D01*
X200885513Y-91206279D01*
X200684836Y-91299856D01*
X200684834Y-91299857D01*
X200503444Y-91426868D01*
X200346868Y-91583444D01*
X200219857Y-91764834D01*
X200219856Y-91764836D01*
X200162382Y-91888091D01*
X200116210Y-91940531D01*
X200049017Y-91959683D01*
X199982135Y-91939467D01*
X199937618Y-91888091D01*
X199909050Y-91826828D01*
X199880142Y-91764833D01*
X199753132Y-91583445D01*
X199596555Y-91426868D01*
X199415167Y-91299858D01*
X199415163Y-91299856D01*
X199214486Y-91206279D01*
X199214475Y-91206275D01*
X199000592Y-91148965D01*
X199000585Y-91148964D01*
X198780002Y-91129666D01*
X198779998Y-91129666D01*
X198559414Y-91148964D01*
X198559407Y-91148965D01*
X198345524Y-91206275D01*
X198345513Y-91206279D01*
X198144836Y-91299856D01*
X198144834Y-91299857D01*
X197963444Y-91426868D01*
X197806868Y-91583444D01*
X197679857Y-91764834D01*
X197679856Y-91764836D01*
X197622382Y-91888091D01*
X197576210Y-91940531D01*
X197509017Y-91959683D01*
X197442135Y-91939467D01*
X197397618Y-91888091D01*
X197369050Y-91826828D01*
X197340142Y-91764833D01*
X197213132Y-91583445D01*
X197056555Y-91426868D01*
X196875167Y-91299858D01*
X196875163Y-91299856D01*
X196674486Y-91206279D01*
X196674475Y-91206275D01*
X196460592Y-91148965D01*
X196460585Y-91148964D01*
X196240002Y-91129666D01*
X196239998Y-91129666D01*
X196019414Y-91148964D01*
X196019407Y-91148965D01*
X195805524Y-91206275D01*
X195805513Y-91206279D01*
X195604836Y-91299856D01*
X195604834Y-91299857D01*
X195423444Y-91426868D01*
X195266868Y-91583444D01*
X195139857Y-91764834D01*
X195139856Y-91764836D01*
X195082382Y-91888091D01*
X195036210Y-91940531D01*
X194969017Y-91959683D01*
X194902135Y-91939467D01*
X194857618Y-91888091D01*
X194829050Y-91826828D01*
X194800142Y-91764833D01*
X194673132Y-91583445D01*
X194516555Y-91426868D01*
X194335167Y-91299858D01*
X194335163Y-91299856D01*
X194134486Y-91206279D01*
X194134475Y-91206275D01*
X193920592Y-91148965D01*
X193920585Y-91148964D01*
X193700002Y-91129666D01*
X193699998Y-91129666D01*
X193479414Y-91148964D01*
X193479407Y-91148965D01*
X193265524Y-91206275D01*
X193265513Y-91206279D01*
X193064836Y-91299856D01*
X193064834Y-91299857D01*
X192883444Y-91426868D01*
X192726868Y-91583444D01*
X192599857Y-91764834D01*
X192599856Y-91764836D01*
X192542382Y-91888091D01*
X192496210Y-91940531D01*
X192429017Y-91959683D01*
X192362135Y-91939467D01*
X192317618Y-91888091D01*
X192289050Y-91826828D01*
X192260142Y-91764833D01*
X192133132Y-91583445D01*
X191976555Y-91426868D01*
X191795167Y-91299858D01*
X191795163Y-91299856D01*
X191594486Y-91206279D01*
X191594475Y-91206275D01*
X191380592Y-91148965D01*
X191380585Y-91148964D01*
X191160002Y-91129666D01*
X191159998Y-91129666D01*
X190939414Y-91148964D01*
X190939407Y-91148965D01*
X190725524Y-91206275D01*
X190725513Y-91206279D01*
X190524836Y-91299856D01*
X190524834Y-91299857D01*
X190343444Y-91426868D01*
X190186868Y-91583444D01*
X190059857Y-91764834D01*
X190059856Y-91764836D01*
X190002382Y-91888091D01*
X189956210Y-91940531D01*
X189889017Y-91959683D01*
X189822135Y-91939467D01*
X189777618Y-91888091D01*
X189749050Y-91826828D01*
X189720142Y-91764833D01*
X189593132Y-91583445D01*
X189436555Y-91426868D01*
X189255167Y-91299858D01*
X189255163Y-91299856D01*
X189054486Y-91206279D01*
X189054475Y-91206275D01*
X188840592Y-91148965D01*
X188840585Y-91148964D01*
X188620002Y-91129666D01*
X188619998Y-91129666D01*
X188399414Y-91148964D01*
X188399400Y-91148967D01*
X188325643Y-91168729D01*
X188255793Y-91167065D01*
X188205870Y-91136635D01*
X183582590Y-86513355D01*
X183582588Y-86513352D01*
X183463717Y-86394481D01*
X183463716Y-86394480D01*
X183376904Y-86344360D01*
X183376904Y-86344359D01*
X183376902Y-86344359D01*
X183355299Y-86331886D01*
X183307084Y-86281320D01*
X183293862Y-86212713D01*
X183319830Y-86147848D01*
X183376744Y-86107320D01*
X183417300Y-86100500D01*
X206819903Y-86100500D01*
X206886942Y-86120185D01*
G37*
%TD.AperFunction*%
%TA.AperFunction,Conductor*%
G36*
X229592539Y-79970185D02*
G01*
X229638294Y-80022989D01*
X229649500Y-80074500D01*
X229649500Y-119325500D01*
X229629815Y-119392539D01*
X229577011Y-119438294D01*
X229525500Y-119449500D01*
X70274500Y-119449500D01*
X70207461Y-119429815D01*
X70161706Y-119377011D01*
X70150500Y-119325500D01*
X70150500Y-115029999D01*
X100644341Y-115029999D01*
X100644341Y-115030000D01*
X100664936Y-115265403D01*
X100664938Y-115265413D01*
X100726094Y-115493655D01*
X100726096Y-115493659D01*
X100726097Y-115493663D01*
X100825965Y-115707830D01*
X100825967Y-115707834D01*
X100961501Y-115901395D01*
X100961506Y-115901402D01*
X101128597Y-116068493D01*
X101128603Y-116068498D01*
X101314158Y-116198425D01*
X101357783Y-116253002D01*
X101364977Y-116322500D01*
X101333454Y-116384855D01*
X101314158Y-116401575D01*
X101128597Y-116531505D01*
X100961505Y-116698597D01*
X100825965Y-116892169D01*
X100825964Y-116892171D01*
X100726098Y-117106335D01*
X100726094Y-117106344D01*
X100664938Y-117334586D01*
X100664936Y-117334596D01*
X100644341Y-117569999D01*
X100644341Y-117570000D01*
X100664936Y-117805403D01*
X100664938Y-117805413D01*
X100726094Y-118033655D01*
X100726096Y-118033659D01*
X100726097Y-118033663D01*
X100825965Y-118247830D01*
X100825967Y-118247834D01*
X100934281Y-118402521D01*
X100961505Y-118441401D01*
X101128599Y-118608495D01*
X101225384Y-118676265D01*
X101322165Y-118744032D01*
X101322167Y-118744033D01*
X101322170Y-118744035D01*
X101536337Y-118843903D01*
X101764592Y-118905063D01*
X101952918Y-118921539D01*
X101999999Y-118925659D01*
X102000000Y-118925659D01*
X102000001Y-118925659D01*
X102039234Y-118922226D01*
X102235408Y-118905063D01*
X102463663Y-118843903D01*
X102677830Y-118744035D01*
X102871401Y-118608495D01*
X103038495Y-118441401D01*
X103174035Y-118247830D01*
X103273903Y-118033663D01*
X103335063Y-117805408D01*
X103355659Y-117570000D01*
X103335063Y-117334592D01*
X103273903Y-117106337D01*
X103174035Y-116892171D01*
X103038495Y-116698599D01*
X103038494Y-116698597D01*
X102871402Y-116531506D01*
X102871396Y-116531501D01*
X102685842Y-116401575D01*
X102642217Y-116346998D01*
X102635023Y-116277500D01*
X102666546Y-116215145D01*
X102685842Y-116198425D01*
X102708026Y-116182891D01*
X102871401Y-116068495D01*
X103038495Y-115901401D01*
X103174035Y-115707830D01*
X103273903Y-115493663D01*
X103335063Y-115265408D01*
X103355659Y-115030000D01*
X103335063Y-114794592D01*
X103273903Y-114566337D01*
X103174035Y-114352171D01*
X103038495Y-114158599D01*
X103038494Y-114158597D01*
X102871402Y-113991506D01*
X102871401Y-113991505D01*
X102685405Y-113861269D01*
X102641781Y-113806692D01*
X102634588Y-113737193D01*
X102666110Y-113674839D01*
X102685405Y-113658119D01*
X102871082Y-113528105D01*
X103038105Y-113361082D01*
X103173600Y-113167578D01*
X103273429Y-112953492D01*
X103273432Y-112953486D01*
X103330636Y-112740000D01*
X102433012Y-112740000D01*
X102465925Y-112682993D01*
X102500000Y-112555826D01*
X102500000Y-112424174D01*
X102465925Y-112297007D01*
X102433012Y-112240000D01*
X103330636Y-112240000D01*
X103330635Y-112239999D01*
X103273432Y-112026513D01*
X103273429Y-112026507D01*
X103173600Y-111812422D01*
X103173599Y-111812420D01*
X103038113Y-111618926D01*
X103038108Y-111618920D01*
X102916053Y-111496865D01*
X102882568Y-111435542D01*
X102887552Y-111365850D01*
X102929424Y-111309917D01*
X102960400Y-111293002D01*
X103068201Y-111252796D01*
X103092326Y-111243798D01*
X103092326Y-111243797D01*
X103092331Y-111243796D01*
X103207546Y-111157546D01*
X103293796Y-111042331D01*
X103318915Y-110974983D01*
X104999500Y-110974983D01*
X104999500Y-111875001D01*
X104999501Y-111875019D01*
X105010000Y-111977796D01*
X105010001Y-111977799D01*
X105065185Y-112144331D01*
X105065187Y-112144336D01*
X105077932Y-112164999D01*
X105157288Y-112293656D01*
X105281344Y-112417712D01*
X105430666Y-112509814D01*
X105597203Y-112564999D01*
X105699991Y-112575500D01*
X107449902Y-112575499D01*
X107516941Y-112595184D01*
X107537583Y-112611818D01*
X109890139Y-114964374D01*
X109890149Y-114964385D01*
X109894479Y-114968715D01*
X109894480Y-114968716D01*
X110006284Y-115080520D01*
X110089460Y-115128541D01*
X110143211Y-115159575D01*
X110143215Y-115159577D01*
X110295943Y-115200500D01*
X196813331Y-115200500D01*
X196813347Y-115200501D01*
X196820943Y-115200501D01*
X196979054Y-115200501D01*
X196979057Y-115200501D01*
X197131785Y-115159577D01*
X197146348Y-115151168D01*
X197185517Y-115128555D01*
X197185528Y-115128547D01*
X197185540Y-115128541D01*
X197268716Y-115080520D01*
X197380520Y-114968716D01*
X197380520Y-114968714D01*
X197390724Y-114958511D01*
X197390728Y-114958506D01*
X203445872Y-108903361D01*
X203507193Y-108869878D01*
X203565646Y-108871270D01*
X203639401Y-108891033D01*
X203639402Y-108891033D01*
X203639409Y-108891035D01*
X203827148Y-108907459D01*
X203859998Y-108910334D01*
X203860000Y-108910334D01*
X203860002Y-108910334D01*
X203915276Y-108905498D01*
X204080591Y-108891035D01*
X204294480Y-108833723D01*
X204495167Y-108740142D01*
X204676555Y-108613132D01*
X204833132Y-108456555D01*
X204960142Y-108275167D01*
X205017618Y-108151907D01*
X205063790Y-108099468D01*
X205130983Y-108080316D01*
X205197864Y-108100531D01*
X205242381Y-108151907D01*
X205299858Y-108275167D01*
X205426868Y-108456555D01*
X205583445Y-108613132D01*
X205764833Y-108740142D01*
X205848296Y-108779061D01*
X205965513Y-108833720D01*
X205965515Y-108833720D01*
X205965520Y-108833723D01*
X206179409Y-108891035D01*
X206336974Y-108904820D01*
X206399998Y-108910334D01*
X206400000Y-108910334D01*
X206400002Y-108910334D01*
X206455276Y-108905498D01*
X206620591Y-108891035D01*
X206834480Y-108833723D01*
X207035167Y-108740142D01*
X207216555Y-108613132D01*
X207373132Y-108456555D01*
X207500142Y-108275167D01*
X207557618Y-108151907D01*
X207603790Y-108099468D01*
X207670983Y-108080316D01*
X207737864Y-108100531D01*
X207782381Y-108151907D01*
X207839858Y-108275167D01*
X207966868Y-108456555D01*
X208123445Y-108613132D01*
X208304833Y-108740142D01*
X208388296Y-108779061D01*
X208505513Y-108833720D01*
X208505515Y-108833720D01*
X208505520Y-108833723D01*
X208719409Y-108891035D01*
X208876974Y-108904820D01*
X208939998Y-108910334D01*
X208940000Y-108910334D01*
X208940002Y-108910334D01*
X208995276Y-108905498D01*
X209160591Y-108891035D01*
X209374480Y-108833723D01*
X209575167Y-108740142D01*
X209756555Y-108613132D01*
X209913132Y-108456555D01*
X210040142Y-108275167D01*
X210097618Y-108151907D01*
X210143790Y-108099468D01*
X210210983Y-108080316D01*
X210277864Y-108100531D01*
X210322381Y-108151907D01*
X210379858Y-108275167D01*
X210506868Y-108456555D01*
X210663445Y-108613132D01*
X210844833Y-108740142D01*
X210928296Y-108779061D01*
X211045513Y-108833720D01*
X211045515Y-108833720D01*
X211045520Y-108833723D01*
X211259409Y-108891035D01*
X211416974Y-108904820D01*
X211479998Y-108910334D01*
X211480000Y-108910334D01*
X211480002Y-108910334D01*
X211535276Y-108905498D01*
X211700591Y-108891035D01*
X211914480Y-108833723D01*
X212115167Y-108740142D01*
X212296555Y-108613132D01*
X212453132Y-108456555D01*
X212580142Y-108275167D01*
X212637618Y-108151907D01*
X212683790Y-108099468D01*
X212750983Y-108080316D01*
X212817864Y-108100531D01*
X212862381Y-108151907D01*
X212919858Y-108275167D01*
X213046868Y-108456555D01*
X213203445Y-108613132D01*
X213384833Y-108740142D01*
X213468296Y-108779061D01*
X213585513Y-108833720D01*
X213585515Y-108833720D01*
X213585520Y-108833723D01*
X213799409Y-108891035D01*
X213956974Y-108904820D01*
X214019998Y-108910334D01*
X214020000Y-108910334D01*
X214020002Y-108910334D01*
X214075276Y-108905498D01*
X214240591Y-108891035D01*
X214454480Y-108833723D01*
X214655167Y-108740142D01*
X214836555Y-108613132D01*
X214993132Y-108456555D01*
X215068928Y-108348307D01*
X215123501Y-108304685D01*
X215193000Y-108297491D01*
X215255355Y-108329013D01*
X215290769Y-108389243D01*
X215294500Y-108419430D01*
X215294500Y-108452868D01*
X215294501Y-108452876D01*
X215300908Y-108512483D01*
X215351202Y-108647328D01*
X215351206Y-108647335D01*
X215437452Y-108762544D01*
X215437455Y-108762547D01*
X215552664Y-108848793D01*
X215552671Y-108848797D01*
X215687517Y-108899091D01*
X215687516Y-108899091D01*
X215693339Y-108899717D01*
X215747127Y-108905500D01*
X217372872Y-108905499D01*
X217432483Y-108899091D01*
X217567331Y-108848796D01*
X217682546Y-108762546D01*
X217768796Y-108647331D01*
X217819091Y-108512483D01*
X217825500Y-108452873D01*
X217825499Y-106827128D01*
X217819091Y-106767517D01*
X217794951Y-106702795D01*
X217768797Y-106632671D01*
X217768793Y-106632664D01*
X217682547Y-106517455D01*
X217682544Y-106517452D01*
X217567335Y-106431206D01*
X217567328Y-106431202D01*
X217432482Y-106380908D01*
X217432483Y-106380908D01*
X217372883Y-106374501D01*
X217372881Y-106374500D01*
X217372873Y-106374500D01*
X217372864Y-106374500D01*
X215747129Y-106374500D01*
X215747123Y-106374501D01*
X215687516Y-106380908D01*
X215552671Y-106431202D01*
X215552664Y-106431206D01*
X215437455Y-106517452D01*
X215437452Y-106517455D01*
X215351206Y-106632664D01*
X215351202Y-106632671D01*
X215300908Y-106767517D01*
X215294896Y-106823441D01*
X215294501Y-106827123D01*
X215294500Y-106827135D01*
X215294500Y-106860564D01*
X215274815Y-106927603D01*
X215222011Y-106973358D01*
X215152853Y-106983302D01*
X215089297Y-106954277D01*
X215068926Y-106931688D01*
X214993137Y-106823452D01*
X214993136Y-106823451D01*
X214993132Y-106823445D01*
X214836555Y-106666868D01*
X214655167Y-106539858D01*
X214655163Y-106539856D01*
X214454486Y-106446279D01*
X214454475Y-106446275D01*
X214240592Y-106388965D01*
X214240585Y-106388964D01*
X214020002Y-106369666D01*
X214019998Y-106369666D01*
X213799414Y-106388964D01*
X213799407Y-106388965D01*
X213585524Y-106446275D01*
X213585513Y-106446279D01*
X213384836Y-106539856D01*
X213384834Y-106539857D01*
X213203444Y-106666868D01*
X213046868Y-106823444D01*
X212919857Y-107004834D01*
X212919856Y-107004836D01*
X212862382Y-107128091D01*
X212816210Y-107180531D01*
X212749017Y-107199683D01*
X212682135Y-107179467D01*
X212637618Y-107128091D01*
X212589550Y-107025009D01*
X212580142Y-107004833D01*
X212453132Y-106823445D01*
X212296555Y-106666868D01*
X212115167Y-106539858D01*
X212115163Y-106539856D01*
X211914486Y-106446279D01*
X211914475Y-106446275D01*
X211700592Y-106388965D01*
X211700585Y-106388964D01*
X211480002Y-106369666D01*
X211479998Y-106369666D01*
X211259414Y-106388964D01*
X211259407Y-106388965D01*
X211045524Y-106446275D01*
X211045513Y-106446279D01*
X210844836Y-106539856D01*
X210844834Y-106539857D01*
X210663444Y-106666868D01*
X210506868Y-106823444D01*
X210379857Y-107004834D01*
X210379856Y-107004836D01*
X210322382Y-107128091D01*
X210276210Y-107180531D01*
X210209017Y-107199683D01*
X210142135Y-107179467D01*
X210097618Y-107128091D01*
X210049550Y-107025009D01*
X210040142Y-107004833D01*
X209913132Y-106823445D01*
X209756555Y-106666868D01*
X209575167Y-106539858D01*
X209575163Y-106539856D01*
X209374486Y-106446279D01*
X209374475Y-106446275D01*
X209160592Y-106388965D01*
X209160585Y-106388964D01*
X208940002Y-106369666D01*
X208939998Y-106369666D01*
X208719414Y-106388964D01*
X208719407Y-106388965D01*
X208505524Y-106446275D01*
X208505513Y-106446279D01*
X208304836Y-106539856D01*
X208304834Y-106539857D01*
X208123444Y-106666868D01*
X207966868Y-106823444D01*
X207839857Y-107004834D01*
X207839856Y-107004836D01*
X207782382Y-107128091D01*
X207736210Y-107180531D01*
X207669017Y-107199683D01*
X207602135Y-107179467D01*
X207557618Y-107128091D01*
X207509550Y-107025009D01*
X207500142Y-107004833D01*
X207373132Y-106823445D01*
X207216555Y-106666868D01*
X207035167Y-106539858D01*
X207035163Y-106539856D01*
X206834486Y-106446279D01*
X206834475Y-106446275D01*
X206620592Y-106388965D01*
X206620585Y-106388964D01*
X206400002Y-106369666D01*
X206399998Y-106369666D01*
X206179414Y-106388964D01*
X206179407Y-106388965D01*
X205965524Y-106446275D01*
X205965513Y-106446279D01*
X205764836Y-106539856D01*
X205764834Y-106539857D01*
X205583444Y-106666868D01*
X205426868Y-106823444D01*
X205299857Y-107004834D01*
X205299856Y-107004836D01*
X205242382Y-107128091D01*
X205196210Y-107180531D01*
X205129017Y-107199683D01*
X205062135Y-107179467D01*
X205017618Y-107128091D01*
X204969550Y-107025009D01*
X204960142Y-107004833D01*
X204833132Y-106823445D01*
X204676555Y-106666868D01*
X204495167Y-106539858D01*
X204495163Y-106539856D01*
X204294486Y-106446279D01*
X204294475Y-106446275D01*
X204080592Y-106388965D01*
X204080585Y-106388964D01*
X203860002Y-106369666D01*
X203859998Y-106369666D01*
X203639414Y-106388964D01*
X203639407Y-106388965D01*
X203425524Y-106446275D01*
X203425513Y-106446279D01*
X203224836Y-106539856D01*
X203224834Y-106539857D01*
X203043444Y-106666868D01*
X202886868Y-106823444D01*
X202759857Y-107004834D01*
X202759856Y-107004836D01*
X202702382Y-107128091D01*
X202656210Y-107180531D01*
X202589017Y-107199683D01*
X202522135Y-107179467D01*
X202477618Y-107128091D01*
X202429550Y-107025009D01*
X202420142Y-107004833D01*
X202293132Y-106823445D01*
X202136555Y-106666868D01*
X201955167Y-106539858D01*
X201955163Y-106539856D01*
X201754486Y-106446279D01*
X201754475Y-106446275D01*
X201540592Y-106388965D01*
X201540585Y-106388964D01*
X201320002Y-106369666D01*
X201319998Y-106369666D01*
X201099414Y-106388964D01*
X201099407Y-106388965D01*
X200885524Y-106446275D01*
X200885513Y-106446279D01*
X200684836Y-106539856D01*
X200684834Y-106539857D01*
X200503444Y-106666868D01*
X200346868Y-106823444D01*
X200219857Y-107004834D01*
X200219856Y-107004836D01*
X200162382Y-107128091D01*
X200116210Y-107180531D01*
X200049017Y-107199683D01*
X199982135Y-107179467D01*
X199937618Y-107128091D01*
X199889550Y-107025009D01*
X199880142Y-107004833D01*
X199753132Y-106823445D01*
X199596555Y-106666868D01*
X199415167Y-106539858D01*
X199415163Y-106539856D01*
X199214486Y-106446279D01*
X199214475Y-106446275D01*
X199000592Y-106388965D01*
X199000585Y-106388964D01*
X198780002Y-106369666D01*
X198779998Y-106369666D01*
X198559414Y-106388964D01*
X198559407Y-106388965D01*
X198345524Y-106446275D01*
X198345513Y-106446279D01*
X198144836Y-106539856D01*
X198144834Y-106539857D01*
X197963444Y-106666868D01*
X197806868Y-106823444D01*
X197679857Y-107004834D01*
X197679856Y-107004836D01*
X197622382Y-107128091D01*
X197576210Y-107180531D01*
X197509017Y-107199683D01*
X197442135Y-107179467D01*
X197397618Y-107128091D01*
X197349550Y-107025009D01*
X197340142Y-107004833D01*
X197213132Y-106823445D01*
X197056555Y-106666868D01*
X196875167Y-106539858D01*
X196875163Y-106539856D01*
X196674486Y-106446279D01*
X196674475Y-106446275D01*
X196460592Y-106388965D01*
X196460585Y-106388964D01*
X196240002Y-106369666D01*
X196239998Y-106369666D01*
X196019414Y-106388964D01*
X196019407Y-106388965D01*
X195805524Y-106446275D01*
X195805513Y-106446279D01*
X195604836Y-106539856D01*
X195604834Y-106539857D01*
X195423444Y-106666868D01*
X195266868Y-106823444D01*
X195139857Y-107004834D01*
X195139856Y-107004836D01*
X195082382Y-107128091D01*
X195036210Y-107180531D01*
X194969017Y-107199683D01*
X194902135Y-107179467D01*
X194857618Y-107128091D01*
X194809550Y-107025009D01*
X194800142Y-107004833D01*
X194673132Y-106823445D01*
X194516555Y-106666868D01*
X194335167Y-106539858D01*
X194335163Y-106539856D01*
X194134486Y-106446279D01*
X194134475Y-106446275D01*
X193920592Y-106388965D01*
X193920585Y-106388964D01*
X193700002Y-106369666D01*
X193699998Y-106369666D01*
X193479414Y-106388964D01*
X193479407Y-106388965D01*
X193265524Y-106446275D01*
X193265513Y-106446279D01*
X193064836Y-106539856D01*
X193064834Y-106539857D01*
X192883444Y-106666868D01*
X192726868Y-106823444D01*
X192599857Y-107004834D01*
X192599856Y-107004836D01*
X192542382Y-107128091D01*
X192496210Y-107180531D01*
X192429017Y-107199683D01*
X192362135Y-107179467D01*
X192317618Y-107128091D01*
X192269550Y-107025009D01*
X192260142Y-107004833D01*
X192133132Y-106823445D01*
X191976555Y-106666868D01*
X191795167Y-106539858D01*
X191795163Y-106539856D01*
X191594486Y-106446279D01*
X191594475Y-106446275D01*
X191380592Y-106388965D01*
X191380585Y-106388964D01*
X191160002Y-106369666D01*
X191159998Y-106369666D01*
X190939414Y-106388964D01*
X190939407Y-106388965D01*
X190725524Y-106446275D01*
X190725513Y-106446279D01*
X190524836Y-106539856D01*
X190524834Y-106539857D01*
X190343444Y-106666868D01*
X190186868Y-106823444D01*
X190059857Y-107004834D01*
X190059856Y-107004836D01*
X190002382Y-107128091D01*
X189956210Y-107180531D01*
X189889017Y-107199683D01*
X189822135Y-107179467D01*
X189777618Y-107128091D01*
X189729550Y-107025009D01*
X189720142Y-107004833D01*
X189593132Y-106823445D01*
X189436555Y-106666868D01*
X189255167Y-106539858D01*
X189255163Y-106539856D01*
X189054486Y-106446279D01*
X189054475Y-106446275D01*
X188840592Y-106388965D01*
X188840585Y-106388964D01*
X188620002Y-106369666D01*
X188619998Y-106369666D01*
X188399414Y-106388964D01*
X188399407Y-106388965D01*
X188185524Y-106446275D01*
X188185513Y-106446279D01*
X187984836Y-106539856D01*
X187984834Y-106539857D01*
X187803444Y-106666868D01*
X187646868Y-106823444D01*
X187519857Y-107004834D01*
X187519856Y-107004836D01*
X187462382Y-107128091D01*
X187416210Y-107180531D01*
X187349017Y-107199683D01*
X187282135Y-107179467D01*
X187237618Y-107128091D01*
X187189550Y-107025009D01*
X187180142Y-107004833D01*
X187053132Y-106823445D01*
X186896555Y-106666868D01*
X186715167Y-106539858D01*
X186715163Y-106539856D01*
X186514486Y-106446279D01*
X186514475Y-106446275D01*
X186300592Y-106388965D01*
X186300585Y-106388964D01*
X186080002Y-106369666D01*
X186079998Y-106369666D01*
X185859414Y-106388964D01*
X185859407Y-106388965D01*
X185645524Y-106446275D01*
X185645513Y-106446279D01*
X185444836Y-106539856D01*
X185444834Y-106539857D01*
X185263444Y-106666868D01*
X185106868Y-106823444D01*
X184979857Y-107004834D01*
X184979856Y-107004836D01*
X184922382Y-107128091D01*
X184876210Y-107180531D01*
X184809017Y-107199683D01*
X184742135Y-107179467D01*
X184697618Y-107128091D01*
X184649550Y-107025009D01*
X184640142Y-107004833D01*
X184513132Y-106823445D01*
X184356555Y-106666868D01*
X184175167Y-106539858D01*
X184175163Y-106539856D01*
X183974486Y-106446279D01*
X183974475Y-106446275D01*
X183760592Y-106388965D01*
X183760585Y-106388964D01*
X183540002Y-106369666D01*
X183539998Y-106369666D01*
X183319414Y-106388964D01*
X183319407Y-106388965D01*
X183105524Y-106446275D01*
X183105513Y-106446279D01*
X182904836Y-106539856D01*
X182904834Y-106539857D01*
X182723444Y-106666868D01*
X182566868Y-106823444D01*
X182439857Y-107004834D01*
X182439856Y-107004836D01*
X182382382Y-107128091D01*
X182336210Y-107180531D01*
X182269017Y-107199683D01*
X182202135Y-107179467D01*
X182157618Y-107128091D01*
X182109550Y-107025009D01*
X182100142Y-107004833D01*
X181973132Y-106823445D01*
X181816555Y-106666868D01*
X181635167Y-106539858D01*
X181635163Y-106539856D01*
X181434486Y-106446279D01*
X181434475Y-106446275D01*
X181220592Y-106388965D01*
X181220585Y-106388964D01*
X181000002Y-106369666D01*
X180999998Y-106369666D01*
X180779414Y-106388964D01*
X180779407Y-106388965D01*
X180565524Y-106446275D01*
X180565513Y-106446279D01*
X180364836Y-106539856D01*
X180364834Y-106539857D01*
X180183444Y-106666868D01*
X180026868Y-106823444D01*
X179899857Y-107004834D01*
X179899856Y-107004836D01*
X179806279Y-107205513D01*
X179806275Y-107205524D01*
X179748965Y-107419407D01*
X179748964Y-107419414D01*
X179729666Y-107639998D01*
X179729666Y-107640001D01*
X179748964Y-107860585D01*
X179748965Y-107860592D01*
X179806275Y-108074475D01*
X179806279Y-108074486D01*
X179860938Y-108191702D01*
X179899858Y-108275167D01*
X180026868Y-108456555D01*
X180183445Y-108613132D01*
X180364833Y-108740142D01*
X180448296Y-108779061D01*
X180565513Y-108833720D01*
X180565515Y-108833720D01*
X180565520Y-108833723D01*
X180779409Y-108891035D01*
X180936974Y-108904820D01*
X180999998Y-108910334D01*
X181000000Y-108910334D01*
X181000002Y-108910334D01*
X181055276Y-108905498D01*
X181220591Y-108891035D01*
X181434480Y-108833723D01*
X181635167Y-108740142D01*
X181816555Y-108613132D01*
X181973132Y-108456555D01*
X182100142Y-108275167D01*
X182157618Y-108151907D01*
X182203790Y-108099468D01*
X182270983Y-108080316D01*
X182337864Y-108100531D01*
X182382381Y-108151907D01*
X182439858Y-108275167D01*
X182566868Y-108456555D01*
X182723445Y-108613132D01*
X182904833Y-108740142D01*
X182988296Y-108779061D01*
X183105513Y-108833720D01*
X183105515Y-108833720D01*
X183105520Y-108833723D01*
X183319409Y-108891035D01*
X183476974Y-108904820D01*
X183539998Y-108910334D01*
X183540000Y-108910334D01*
X183540002Y-108910334D01*
X183595276Y-108905498D01*
X183760591Y-108891035D01*
X183974480Y-108833723D01*
X184175167Y-108740142D01*
X184356555Y-108613132D01*
X184513132Y-108456555D01*
X184640142Y-108275167D01*
X184697618Y-108151907D01*
X184743790Y-108099468D01*
X184810983Y-108080316D01*
X184877864Y-108100531D01*
X184922381Y-108151907D01*
X184979858Y-108275167D01*
X185106868Y-108456555D01*
X185263445Y-108613132D01*
X185444833Y-108740142D01*
X185528296Y-108779061D01*
X185645513Y-108833720D01*
X185645515Y-108833720D01*
X185645520Y-108833723D01*
X185859409Y-108891035D01*
X186016974Y-108904820D01*
X186079998Y-108910334D01*
X186080000Y-108910334D01*
X186080002Y-108910334D01*
X186135276Y-108905498D01*
X186300591Y-108891035D01*
X186514480Y-108833723D01*
X186715167Y-108740142D01*
X186896555Y-108613132D01*
X187053132Y-108456555D01*
X187180142Y-108275167D01*
X187237618Y-108151907D01*
X187283790Y-108099468D01*
X187350983Y-108080316D01*
X187417864Y-108100531D01*
X187462381Y-108151907D01*
X187519858Y-108275167D01*
X187646868Y-108456555D01*
X187803445Y-108613132D01*
X187984833Y-108740142D01*
X188068296Y-108779061D01*
X188185513Y-108833720D01*
X188185515Y-108833720D01*
X188185520Y-108833723D01*
X188399409Y-108891035D01*
X188556974Y-108904820D01*
X188619998Y-108910334D01*
X188620000Y-108910334D01*
X188620001Y-108910334D01*
X188636861Y-108908858D01*
X188741349Y-108899717D01*
X188809848Y-108913483D01*
X188860031Y-108962098D01*
X188875965Y-109030127D01*
X188852590Y-109095971D01*
X188839837Y-109110926D01*
X187987584Y-109963181D01*
X187926261Y-109996666D01*
X187899903Y-109999500D01*
X150263733Y-109999500D01*
X150196694Y-109979815D01*
X150150939Y-109927011D01*
X150146028Y-109914506D01*
X150136250Y-109885000D01*
X150134814Y-109880666D01*
X150042712Y-109731344D01*
X149918656Y-109607288D01*
X149769334Y-109515186D01*
X149602797Y-109460001D01*
X149602795Y-109460000D01*
X149500010Y-109449500D01*
X146499998Y-109449500D01*
X146499981Y-109449501D01*
X146397203Y-109460000D01*
X146397200Y-109460001D01*
X146230668Y-109515185D01*
X146230663Y-109515187D01*
X146081342Y-109607289D01*
X145957289Y-109731342D01*
X145865187Y-109880663D01*
X145865185Y-109880668D01*
X145849829Y-109927011D01*
X145810001Y-110047203D01*
X145810001Y-110047204D01*
X145810000Y-110047204D01*
X145799500Y-110149983D01*
X145799500Y-111050001D01*
X145799501Y-111050019D01*
X145810000Y-111152796D01*
X145810001Y-111152799D01*
X145865184Y-111319328D01*
X145865186Y-111319334D01*
X145957288Y-111468656D01*
X146081344Y-111592712D01*
X146230666Y-111684814D01*
X146397203Y-111739999D01*
X146499991Y-111750500D01*
X149500008Y-111750499D01*
X149602797Y-111739999D01*
X149769334Y-111684814D01*
X149918656Y-111592712D01*
X150042712Y-111468656D01*
X150134814Y-111319334D01*
X150146028Y-111285494D01*
X150185801Y-111228050D01*
X150250317Y-111201228D01*
X150263733Y-111200500D01*
X188113331Y-111200500D01*
X188113347Y-111200501D01*
X188120943Y-111200501D01*
X188279054Y-111200501D01*
X188279057Y-111200501D01*
X188431785Y-111159577D01*
X188481904Y-111130639D01*
X188568716Y-111080520D01*
X188680520Y-110968716D01*
X188680520Y-110968714D01*
X188690728Y-110958507D01*
X188690730Y-110958504D01*
X190745872Y-108903361D01*
X190807193Y-108869878D01*
X190865646Y-108871270D01*
X190939401Y-108891033D01*
X190939402Y-108891033D01*
X190939409Y-108891035D01*
X191127148Y-108907459D01*
X191159998Y-108910334D01*
X191160000Y-108910334D01*
X191160001Y-108910334D01*
X191174804Y-108909038D01*
X191281349Y-108899717D01*
X191349847Y-108913483D01*
X191400030Y-108962098D01*
X191415964Y-109030127D01*
X191392589Y-109095971D01*
X191379836Y-109110926D01*
X188127584Y-112363181D01*
X188066261Y-112396666D01*
X188039903Y-112399500D01*
X142616322Y-112399500D01*
X142549283Y-112379815D01*
X142503528Y-112327011D01*
X142493102Y-112289383D01*
X142485369Y-112220750D01*
X142485368Y-112220748D01*
X142485368Y-112220745D01*
X142425789Y-112050478D01*
X142423588Y-112046975D01*
X142419503Y-112040473D01*
X142400501Y-111973237D01*
X142420867Y-111906401D01*
X142474134Y-111861186D01*
X142524495Y-111850499D01*
X143000002Y-111850499D01*
X143000008Y-111850499D01*
X143102797Y-111839999D01*
X143269334Y-111784814D01*
X143418656Y-111692712D01*
X143542712Y-111568656D01*
X143634814Y-111419334D01*
X143689999Y-111252797D01*
X143700500Y-111150009D01*
X143700499Y-110249992D01*
X143689999Y-110147203D01*
X143634814Y-109980666D01*
X143542712Y-109831344D01*
X143418656Y-109707288D01*
X143269334Y-109615186D01*
X143102797Y-109560001D01*
X143102795Y-109560000D01*
X143000010Y-109549500D01*
X139999998Y-109549500D01*
X139999981Y-109549501D01*
X139897203Y-109560000D01*
X139897200Y-109560001D01*
X139730668Y-109615185D01*
X139730663Y-109615187D01*
X139581342Y-109707289D01*
X139457289Y-109831342D01*
X139365187Y-109980663D01*
X139365185Y-109980668D01*
X139353747Y-110015186D01*
X139310001Y-110147203D01*
X139310001Y-110147204D01*
X139310000Y-110147204D01*
X139299500Y-110249983D01*
X139299500Y-111150001D01*
X139299501Y-111150019D01*
X139310000Y-111252796D01*
X139310001Y-111252799D01*
X139337198Y-111334873D01*
X139365186Y-111419334D01*
X139457288Y-111568656D01*
X139581344Y-111692712D01*
X139730666Y-111784814D01*
X139897203Y-111839999D01*
X139999991Y-111850500D01*
X140775500Y-111850499D01*
X140842539Y-111870183D01*
X140888294Y-111922987D01*
X140899500Y-111974499D01*
X140899500Y-112113330D01*
X140899499Y-112113348D01*
X140899499Y-112275500D01*
X140879814Y-112342539D01*
X140827010Y-112388294D01*
X140775499Y-112399500D01*
X136575098Y-112399500D01*
X136508059Y-112379815D01*
X136487417Y-112363181D01*
X136267983Y-112143747D01*
X136234498Y-112082424D01*
X136239482Y-112012732D01*
X136267983Y-111968385D01*
X136342712Y-111893656D01*
X136434814Y-111744334D01*
X136489999Y-111577797D01*
X136500500Y-111475009D01*
X136500499Y-110574992D01*
X136497660Y-110547204D01*
X136489999Y-110472203D01*
X136489998Y-110472200D01*
X136459667Y-110380668D01*
X136434814Y-110305666D01*
X136342712Y-110156344D01*
X136218656Y-110032288D01*
X136106615Y-109963181D01*
X136069336Y-109940187D01*
X136069331Y-109940185D01*
X136067862Y-109939698D01*
X135902797Y-109885001D01*
X135902795Y-109885000D01*
X135800010Y-109874500D01*
X132799998Y-109874500D01*
X132799981Y-109874501D01*
X132697203Y-109885000D01*
X132697200Y-109885001D01*
X132530668Y-109940185D01*
X132530663Y-109940187D01*
X132381342Y-110032289D01*
X132257289Y-110156342D01*
X132165187Y-110305663D01*
X132165185Y-110305668D01*
X132153747Y-110340186D01*
X132110001Y-110472203D01*
X132110001Y-110472204D01*
X132110000Y-110472204D01*
X132099500Y-110574983D01*
X132099500Y-111475001D01*
X132099501Y-111475019D01*
X132110000Y-111577796D01*
X132110001Y-111577799D01*
X132165185Y-111744331D01*
X132165187Y-111744336D01*
X132168989Y-111750500D01*
X132257288Y-111893656D01*
X132381344Y-112017712D01*
X132530666Y-112109814D01*
X132697203Y-112164999D01*
X132799991Y-112175500D01*
X134549901Y-112175499D01*
X134616940Y-112195184D01*
X134637582Y-112211818D01*
X135013583Y-112587819D01*
X135047068Y-112649142D01*
X135042084Y-112718834D01*
X135000212Y-112774767D01*
X134934748Y-112799184D01*
X134925902Y-112799500D01*
X130600098Y-112799500D01*
X130533059Y-112779815D01*
X130512417Y-112763181D01*
X129567983Y-111818747D01*
X129534498Y-111757424D01*
X129539482Y-111687732D01*
X129567983Y-111643385D01*
X129592448Y-111618920D01*
X129642712Y-111568656D01*
X129734814Y-111419334D01*
X129789999Y-111252797D01*
X129800500Y-111150009D01*
X129800499Y-110249992D01*
X129789999Y-110147203D01*
X129734814Y-109980666D01*
X129642712Y-109831344D01*
X129518656Y-109707288D01*
X129369334Y-109615186D01*
X129202797Y-109560001D01*
X129202795Y-109560000D01*
X129100010Y-109549500D01*
X126099998Y-109549500D01*
X126099981Y-109549501D01*
X125997203Y-109560000D01*
X125997200Y-109560001D01*
X125830668Y-109615185D01*
X125830663Y-109615187D01*
X125681342Y-109707289D01*
X125557289Y-109831342D01*
X125465187Y-109980663D01*
X125465185Y-109980668D01*
X125453747Y-110015186D01*
X125410001Y-110147203D01*
X125410001Y-110147204D01*
X125410000Y-110147204D01*
X125399500Y-110249983D01*
X125399500Y-111150001D01*
X125399501Y-111150019D01*
X125410000Y-111252796D01*
X125410001Y-111252799D01*
X125437198Y-111334873D01*
X125465186Y-111419334D01*
X125557288Y-111568656D01*
X125681344Y-111692712D01*
X125830666Y-111784814D01*
X125997203Y-111839999D01*
X126099991Y-111850500D01*
X127849902Y-111850499D01*
X127916941Y-111870184D01*
X127937583Y-111886818D01*
X129038583Y-112987819D01*
X129072068Y-113049142D01*
X129067084Y-113118834D01*
X129025212Y-113174767D01*
X128959748Y-113199184D01*
X128950902Y-113199500D01*
X123700098Y-113199500D01*
X123633059Y-113179815D01*
X123612417Y-113163181D01*
X122667983Y-112218747D01*
X122634498Y-112157424D01*
X122639482Y-112087732D01*
X122667983Y-112043385D01*
X122698636Y-112012732D01*
X122742712Y-111968656D01*
X122834814Y-111819334D01*
X122889999Y-111652797D01*
X122900500Y-111550009D01*
X122900499Y-110649992D01*
X122892836Y-110574980D01*
X122889999Y-110547203D01*
X122889998Y-110547200D01*
X122834814Y-110380666D01*
X122742712Y-110231344D01*
X122618656Y-110107288D01*
X122469334Y-110015186D01*
X122302797Y-109960001D01*
X122302795Y-109960000D01*
X122200010Y-109949500D01*
X119199998Y-109949500D01*
X119199981Y-109949501D01*
X119097203Y-109960000D01*
X119097200Y-109960001D01*
X118930668Y-110015185D01*
X118930663Y-110015187D01*
X118781342Y-110107289D01*
X118657289Y-110231342D01*
X118565187Y-110380663D01*
X118565186Y-110380666D01*
X118510001Y-110547203D01*
X118510001Y-110547204D01*
X118510000Y-110547204D01*
X118499500Y-110649983D01*
X118499500Y-111550001D01*
X118499501Y-111550019D01*
X118510000Y-111652796D01*
X118510001Y-111652799D01*
X118565185Y-111819331D01*
X118565187Y-111819336D01*
X118577932Y-111839999D01*
X118657288Y-111968656D01*
X118781344Y-112092712D01*
X118930666Y-112184814D01*
X119097203Y-112239999D01*
X119199991Y-112250500D01*
X120949902Y-112250499D01*
X121016941Y-112270184D01*
X121037583Y-112286818D01*
X122138583Y-113387819D01*
X122172068Y-113449142D01*
X122167084Y-113518834D01*
X122125212Y-113574767D01*
X122059748Y-113599184D01*
X122050902Y-113599500D01*
X117175098Y-113599500D01*
X117108059Y-113579815D01*
X117087417Y-113563181D01*
X115767983Y-112243747D01*
X115734498Y-112182424D01*
X115739482Y-112112732D01*
X115767983Y-112068385D01*
X115795895Y-112040473D01*
X115842712Y-111993656D01*
X115934814Y-111844334D01*
X115989999Y-111677797D01*
X116000500Y-111575009D01*
X116000499Y-110674992D01*
X115989999Y-110572203D01*
X115934814Y-110405666D01*
X115842712Y-110256344D01*
X115718656Y-110132288D01*
X115580712Y-110047204D01*
X115569336Y-110040187D01*
X115569331Y-110040185D01*
X115545499Y-110032288D01*
X115402797Y-109985001D01*
X115402795Y-109985000D01*
X115300010Y-109974500D01*
X112299998Y-109974500D01*
X112299981Y-109974501D01*
X112197203Y-109985000D01*
X112197200Y-109985001D01*
X112030668Y-110040185D01*
X112030663Y-110040187D01*
X111881342Y-110132289D01*
X111757289Y-110256342D01*
X111665187Y-110405663D01*
X111665186Y-110405666D01*
X111610001Y-110572203D01*
X111610001Y-110572204D01*
X111610000Y-110572204D01*
X111599500Y-110674983D01*
X111599500Y-111575001D01*
X111599501Y-111575019D01*
X111610000Y-111677796D01*
X111610001Y-111677799D01*
X111665185Y-111844331D01*
X111665187Y-111844336D01*
X111691390Y-111886818D01*
X111757288Y-111993656D01*
X111881344Y-112117712D01*
X112030666Y-112209814D01*
X112197203Y-112264999D01*
X112299991Y-112275500D01*
X114049902Y-112275499D01*
X114116941Y-112295184D01*
X114137583Y-112311818D01*
X115613583Y-113787819D01*
X115647068Y-113849142D01*
X115642084Y-113918834D01*
X115600212Y-113974767D01*
X115534748Y-113999184D01*
X115525902Y-113999500D01*
X110675097Y-113999500D01*
X110608058Y-113979815D01*
X110587416Y-113963181D01*
X109167982Y-112543747D01*
X109134497Y-112482424D01*
X109139481Y-112412732D01*
X109167978Y-112368389D01*
X109242712Y-112293656D01*
X109334814Y-112144334D01*
X109389999Y-111977797D01*
X109400500Y-111875009D01*
X109400499Y-110974992D01*
X109398814Y-110958501D01*
X109389999Y-110872203D01*
X109389998Y-110872200D01*
X109381934Y-110847864D01*
X109334814Y-110705666D01*
X109242712Y-110556344D01*
X109118656Y-110432288D01*
X108969334Y-110340186D01*
X108802797Y-110285001D01*
X108802795Y-110285000D01*
X108700010Y-110274500D01*
X105699998Y-110274500D01*
X105699981Y-110274501D01*
X105597203Y-110285000D01*
X105597200Y-110285001D01*
X105430668Y-110340185D01*
X105430663Y-110340187D01*
X105281342Y-110432289D01*
X105157289Y-110556342D01*
X105065187Y-110705663D01*
X105065186Y-110705666D01*
X105010001Y-110872203D01*
X105010001Y-110872204D01*
X105010000Y-110872204D01*
X104999500Y-110974983D01*
X103318915Y-110974983D01*
X103344091Y-110907483D01*
X103350500Y-110847873D01*
X103350499Y-109052128D01*
X103344091Y-108992517D01*
X103332745Y-108962098D01*
X103293797Y-108857671D01*
X103293793Y-108857664D01*
X103207547Y-108742455D01*
X103207544Y-108742452D01*
X103092335Y-108656206D01*
X103092328Y-108656202D01*
X102957482Y-108605908D01*
X102957483Y-108605908D01*
X102897883Y-108599501D01*
X102897881Y-108599500D01*
X102897873Y-108599500D01*
X102897864Y-108599500D01*
X101102129Y-108599500D01*
X101102123Y-108599501D01*
X101042516Y-108605908D01*
X100907671Y-108656202D01*
X100907664Y-108656206D01*
X100792455Y-108742452D01*
X100792452Y-108742455D01*
X100706206Y-108857664D01*
X100706202Y-108857671D01*
X100655908Y-108992517D01*
X100651865Y-109030127D01*
X100649501Y-109052123D01*
X100649500Y-109052135D01*
X100649500Y-110847870D01*
X100649501Y-110847876D01*
X100655908Y-110907483D01*
X100706202Y-111042328D01*
X100706206Y-111042335D01*
X100792452Y-111157544D01*
X100792455Y-111157547D01*
X100907664Y-111243793D01*
X100907671Y-111243797D01*
X100931799Y-111252796D01*
X101039598Y-111293002D01*
X101095531Y-111334873D01*
X101119949Y-111400337D01*
X101105098Y-111468610D01*
X101083947Y-111496865D01*
X100961886Y-111618926D01*
X100826400Y-111812420D01*
X100826399Y-111812422D01*
X100726570Y-112026507D01*
X100726567Y-112026513D01*
X100669364Y-112239999D01*
X100669364Y-112240000D01*
X101566988Y-112240000D01*
X101534075Y-112297007D01*
X101500000Y-112424174D01*
X101500000Y-112555826D01*
X101534075Y-112682993D01*
X101566988Y-112740000D01*
X100669364Y-112740000D01*
X100726567Y-112953486D01*
X100726570Y-112953492D01*
X100826399Y-113167578D01*
X100961894Y-113361082D01*
X101128917Y-113528105D01*
X101314595Y-113658119D01*
X101358219Y-113712696D01*
X101365412Y-113782195D01*
X101333890Y-113844549D01*
X101314595Y-113861269D01*
X101128594Y-113991508D01*
X100961505Y-114158597D01*
X100825965Y-114352169D01*
X100825964Y-114352171D01*
X100726098Y-114566335D01*
X100726094Y-114566344D01*
X100664938Y-114794586D01*
X100664936Y-114794596D01*
X100644341Y-115029999D01*
X70150500Y-115029999D01*
X70150500Y-103437486D01*
X71725001Y-103437486D01*
X71735494Y-103540196D01*
X71735494Y-103540198D01*
X71790640Y-103706619D01*
X71790645Y-103706630D01*
X71882680Y-103855840D01*
X71882683Y-103855844D01*
X72006655Y-103979816D01*
X72006659Y-103979819D01*
X72155869Y-104071854D01*
X72155880Y-104071859D01*
X72322302Y-104127005D01*
X72425020Y-104137499D01*
X73649999Y-104137499D01*
X74150000Y-104137499D01*
X75374972Y-104137499D01*
X75374986Y-104137498D01*
X75477696Y-104127005D01*
X75477698Y-104127005D01*
X75644119Y-104071859D01*
X75644130Y-104071854D01*
X75793340Y-103979819D01*
X75793344Y-103979816D01*
X75917316Y-103855844D01*
X75917319Y-103855840D01*
X76009354Y-103706630D01*
X76009359Y-103706619D01*
X76064505Y-103540197D01*
X76074999Y-103437486D01*
X76075000Y-103437473D01*
X76075000Y-103349986D01*
X81025001Y-103349986D01*
X81035494Y-103452696D01*
X81035494Y-103452698D01*
X81090640Y-103619119D01*
X81090645Y-103619130D01*
X81182680Y-103768340D01*
X81182683Y-103768344D01*
X81306655Y-103892316D01*
X81306659Y-103892319D01*
X81455869Y-103984354D01*
X81455880Y-103984359D01*
X81622302Y-104039505D01*
X81725020Y-104049999D01*
X82949999Y-104049999D01*
X83450000Y-104049999D01*
X84674972Y-104049999D01*
X84674986Y-104049998D01*
X84777696Y-104039505D01*
X84777698Y-104039505D01*
X84944119Y-103984359D01*
X84944130Y-103984354D01*
X85093340Y-103892319D01*
X85093344Y-103892316D01*
X85217316Y-103768344D01*
X85217319Y-103768340D01*
X85309354Y-103619130D01*
X85309359Y-103619119D01*
X85364505Y-103452697D01*
X85374999Y-103349986D01*
X85375000Y-103349973D01*
X85375000Y-103237486D01*
X87325001Y-103237486D01*
X87335494Y-103340196D01*
X87335494Y-103340198D01*
X87390640Y-103506619D01*
X87390645Y-103506630D01*
X87482680Y-103655840D01*
X87482683Y-103655844D01*
X87606655Y-103779816D01*
X87606659Y-103779819D01*
X87755869Y-103871854D01*
X87755880Y-103871859D01*
X87922302Y-103927005D01*
X88025020Y-103937499D01*
X89249999Y-103937499D01*
X89750000Y-103937499D01*
X90974972Y-103937499D01*
X90974986Y-103937498D01*
X91077696Y-103927005D01*
X91077698Y-103927005D01*
X91244119Y-103871859D01*
X91244130Y-103871854D01*
X91393340Y-103779819D01*
X91393344Y-103779816D01*
X91517316Y-103655844D01*
X91517319Y-103655840D01*
X91609354Y-103506630D01*
X91609359Y-103506619D01*
X91664505Y-103340197D01*
X91664782Y-103337486D01*
X94005001Y-103337486D01*
X94015494Y-103440196D01*
X94015494Y-103440198D01*
X94070640Y-103606619D01*
X94070645Y-103606630D01*
X94162680Y-103755840D01*
X94162683Y-103755844D01*
X94286655Y-103879816D01*
X94286659Y-103879819D01*
X94435869Y-103971854D01*
X94435880Y-103971859D01*
X94602302Y-104027005D01*
X94705020Y-104037499D01*
X95929999Y-104037499D01*
X96430000Y-104037499D01*
X97654972Y-104037499D01*
X97654986Y-104037498D01*
X97757696Y-104027005D01*
X97757698Y-104027005D01*
X97924119Y-103971859D01*
X97924130Y-103971854D01*
X98073340Y-103879819D01*
X98073344Y-103879816D01*
X98197316Y-103755844D01*
X98197319Y-103755840D01*
X98289354Y-103606630D01*
X98289359Y-103606619D01*
X98344505Y-103440197D01*
X98354999Y-103337486D01*
X98355000Y-103337473D01*
X98355000Y-103025000D01*
X96430000Y-103025000D01*
X96430000Y-104037499D01*
X95929999Y-104037499D01*
X95930000Y-104037498D01*
X95930000Y-103025000D01*
X94005001Y-103025000D01*
X94005001Y-103337486D01*
X91664782Y-103337486D01*
X91674999Y-103237486D01*
X91675000Y-103237473D01*
X91675000Y-102925000D01*
X89750000Y-102925000D01*
X89750000Y-103937499D01*
X89249999Y-103937499D01*
X89250000Y-103937498D01*
X89250000Y-102925000D01*
X87325001Y-102925000D01*
X87325001Y-103237486D01*
X85375000Y-103237486D01*
X85375000Y-103037500D01*
X83450000Y-103037500D01*
X83450000Y-104049999D01*
X82949999Y-104049999D01*
X82950000Y-104049998D01*
X82950000Y-103037500D01*
X81025001Y-103037500D01*
X81025001Y-103349986D01*
X76075000Y-103349986D01*
X76075000Y-103125000D01*
X74150000Y-103125000D01*
X74150000Y-104137499D01*
X73649999Y-104137499D01*
X73650000Y-104137498D01*
X73650000Y-103125000D01*
X71725001Y-103125000D01*
X71725001Y-103437486D01*
X70150500Y-103437486D01*
X70150500Y-102312513D01*
X71725000Y-102312513D01*
X71725000Y-102625000D01*
X73650000Y-102625000D01*
X74150000Y-102625000D01*
X76074999Y-102625000D01*
X76074999Y-102312528D01*
X76074998Y-102312513D01*
X76066059Y-102225013D01*
X81025000Y-102225013D01*
X81025000Y-102537500D01*
X82950000Y-102537500D01*
X83450000Y-102537500D01*
X85374999Y-102537500D01*
X85374999Y-102225028D01*
X85374998Y-102225013D01*
X85364505Y-102122303D01*
X85364505Y-102122301D01*
X85361262Y-102112513D01*
X87325000Y-102112513D01*
X87325000Y-102425000D01*
X89250000Y-102425000D01*
X89750000Y-102425000D01*
X91674999Y-102425000D01*
X91674999Y-102212513D01*
X94005000Y-102212513D01*
X94005000Y-102525000D01*
X95930000Y-102525000D01*
X96430000Y-102525000D01*
X98354999Y-102525000D01*
X98354999Y-102212528D01*
X98354998Y-102212513D01*
X98354995Y-102212482D01*
X101024500Y-102212482D01*
X101024500Y-103337517D01*
X101035000Y-103440296D01*
X101090185Y-103606832D01*
X101090187Y-103606837D01*
X101120413Y-103655840D01*
X101182288Y-103756156D01*
X101306344Y-103880212D01*
X101455665Y-103972314D01*
X101622202Y-104027499D01*
X101724990Y-104038000D01*
X103362403Y-104038000D01*
X103429442Y-104057685D01*
X103450084Y-104074319D01*
X105232017Y-105856252D01*
X105265502Y-105917575D01*
X105260518Y-105987267D01*
X105232018Y-106031614D01*
X105157287Y-106106345D01*
X105065187Y-106255663D01*
X105065186Y-106255666D01*
X105010001Y-106422203D01*
X105010001Y-106422204D01*
X105010000Y-106422204D01*
X104999500Y-106524983D01*
X104999500Y-107425001D01*
X104999501Y-107425019D01*
X105010000Y-107527796D01*
X105010001Y-107527799D01*
X105065185Y-107694331D01*
X105065187Y-107694336D01*
X105077932Y-107714999D01*
X105157288Y-107843656D01*
X105281344Y-107967712D01*
X105430666Y-108059814D01*
X105597203Y-108114999D01*
X105699991Y-108125500D01*
X108700008Y-108125499D01*
X108802797Y-108114999D01*
X108969334Y-108059814D01*
X109118656Y-107967712D01*
X109242712Y-107843656D01*
X109334814Y-107694334D01*
X109389999Y-107527797D01*
X109400500Y-107425009D01*
X109400499Y-106524992D01*
X109389999Y-106422203D01*
X109334814Y-106255666D01*
X109242712Y-106106344D01*
X109118656Y-105982288D01*
X108969334Y-105890186D01*
X108802797Y-105835001D01*
X108802795Y-105835000D01*
X108700016Y-105824500D01*
X108700009Y-105824500D01*
X106950097Y-105824500D01*
X106883058Y-105804815D01*
X106862416Y-105788181D01*
X105111732Y-104037497D01*
X105078247Y-103976174D01*
X105083231Y-103906482D01*
X105111728Y-103862139D01*
X105217712Y-103756156D01*
X105309814Y-103606835D01*
X105364999Y-103440298D01*
X105375500Y-103337510D01*
X105375500Y-102212490D01*
X105366560Y-102124982D01*
X108124500Y-102124982D01*
X108124500Y-103250017D01*
X108135000Y-103352796D01*
X108163995Y-103440296D01*
X108190186Y-103519335D01*
X108282288Y-103668656D01*
X108406344Y-103792712D01*
X108555665Y-103884814D01*
X108722202Y-103939999D01*
X108824990Y-103950500D01*
X110174903Y-103950500D01*
X110241942Y-103970185D01*
X110262584Y-103986819D01*
X111832017Y-105556252D01*
X111865502Y-105617575D01*
X111860518Y-105687267D01*
X111832018Y-105731614D01*
X111757287Y-105806345D01*
X111665187Y-105955663D01*
X111665186Y-105955666D01*
X111610001Y-106122203D01*
X111610001Y-106122204D01*
X111610000Y-106122204D01*
X111599500Y-106224983D01*
X111599500Y-107125001D01*
X111599501Y-107125019D01*
X111610000Y-107227796D01*
X111610001Y-107227799D01*
X111665185Y-107394331D01*
X111665187Y-107394336D01*
X111695608Y-107443656D01*
X111757288Y-107543656D01*
X111881344Y-107667712D01*
X112030666Y-107759814D01*
X112197203Y-107814999D01*
X112299991Y-107825500D01*
X115300008Y-107825499D01*
X115402797Y-107814999D01*
X115569334Y-107759814D01*
X115718656Y-107667712D01*
X115842712Y-107543656D01*
X115934814Y-107394334D01*
X115989999Y-107227797D01*
X116000500Y-107125009D01*
X116000499Y-106224992D01*
X115989999Y-106122203D01*
X115934814Y-105955666D01*
X115842712Y-105806344D01*
X115718656Y-105682288D01*
X115580712Y-105597204D01*
X115569336Y-105590187D01*
X115569331Y-105590185D01*
X115545499Y-105582288D01*
X115402797Y-105535001D01*
X115402795Y-105535000D01*
X115300016Y-105524500D01*
X115300009Y-105524500D01*
X113550097Y-105524500D01*
X113483058Y-105504815D01*
X113462416Y-105488181D01*
X112040626Y-104066391D01*
X112007141Y-104005068D01*
X112012125Y-103935376D01*
X112053997Y-103879443D01*
X112063197Y-103873179D01*
X112193656Y-103792712D01*
X112317712Y-103668656D01*
X112409814Y-103519335D01*
X112464999Y-103352798D01*
X112475500Y-103250010D01*
X112475500Y-102312482D01*
X115524500Y-102312482D01*
X115524500Y-103437517D01*
X115535000Y-103540296D01*
X115590185Y-103706832D01*
X115590187Y-103706837D01*
X115605557Y-103731755D01*
X115682288Y-103856156D01*
X115806344Y-103980212D01*
X115955665Y-104072314D01*
X116122202Y-104127499D01*
X116224990Y-104138000D01*
X117287403Y-104138000D01*
X117354442Y-104157685D01*
X117375083Y-104174318D01*
X118732018Y-105531254D01*
X118765502Y-105592575D01*
X118760518Y-105662267D01*
X118732018Y-105706614D01*
X118657287Y-105781345D01*
X118565187Y-105930663D01*
X118565185Y-105930668D01*
X118556903Y-105955663D01*
X118510001Y-106097203D01*
X118510001Y-106097204D01*
X118510000Y-106097204D01*
X118499500Y-106199983D01*
X118499500Y-107100001D01*
X118499501Y-107100019D01*
X118510000Y-107202796D01*
X118510001Y-107202799D01*
X118565185Y-107369331D01*
X118565187Y-107369336D01*
X118577932Y-107389999D01*
X118657288Y-107518656D01*
X118781344Y-107642712D01*
X118930666Y-107734814D01*
X119097203Y-107789999D01*
X119199991Y-107800500D01*
X122200008Y-107800499D01*
X122302797Y-107789999D01*
X122469334Y-107734814D01*
X122618656Y-107642712D01*
X122742712Y-107518656D01*
X122834814Y-107369334D01*
X122889999Y-107202797D01*
X122900500Y-107100009D01*
X122900499Y-106199992D01*
X122892836Y-106124980D01*
X122889999Y-106097203D01*
X122889998Y-106097200D01*
X122868265Y-106031614D01*
X122834814Y-105930666D01*
X122742712Y-105781344D01*
X122618656Y-105657288D01*
X122469334Y-105565186D01*
X122302797Y-105510001D01*
X122302795Y-105510000D01*
X122200016Y-105499500D01*
X122200009Y-105499500D01*
X120450098Y-105499500D01*
X120383059Y-105479815D01*
X120362417Y-105463181D01*
X119231374Y-104332139D01*
X119197889Y-104270816D01*
X119202873Y-104201124D01*
X119244745Y-104145191D01*
X119280048Y-104126753D01*
X119444335Y-104072314D01*
X119593656Y-103980212D01*
X119717712Y-103856156D01*
X119809814Y-103706835D01*
X119864999Y-103540298D01*
X119875500Y-103437510D01*
X119875500Y-102312490D01*
X119864999Y-102209702D01*
X119836926Y-102124982D01*
X122324500Y-102124982D01*
X122324500Y-103250017D01*
X122335000Y-103352796D01*
X122363995Y-103440296D01*
X122390186Y-103519335D01*
X122482288Y-103668656D01*
X122606344Y-103792712D01*
X122755665Y-103884814D01*
X122922202Y-103939999D01*
X123024990Y-103950500D01*
X124399903Y-103950500D01*
X124466942Y-103970185D01*
X124487584Y-103986819D01*
X125632017Y-105131252D01*
X125665502Y-105192575D01*
X125660518Y-105262267D01*
X125632018Y-105306614D01*
X125557287Y-105381345D01*
X125465187Y-105530663D01*
X125465185Y-105530668D01*
X125453747Y-105565186D01*
X125410001Y-105697203D01*
X125410001Y-105697204D01*
X125410000Y-105697204D01*
X125399500Y-105799983D01*
X125399500Y-106700001D01*
X125399501Y-106700019D01*
X125410000Y-106802796D01*
X125410001Y-106802799D01*
X125451358Y-106927603D01*
X125465186Y-106969334D01*
X125557288Y-107118656D01*
X125681344Y-107242712D01*
X125830666Y-107334814D01*
X125997203Y-107389999D01*
X126099991Y-107400500D01*
X129100008Y-107400499D01*
X129202797Y-107389999D01*
X129369334Y-107334814D01*
X129518656Y-107242712D01*
X129642712Y-107118656D01*
X129734814Y-106969334D01*
X129789999Y-106802797D01*
X129800500Y-106700009D01*
X129800499Y-105799992D01*
X129799292Y-105788181D01*
X129789999Y-105697203D01*
X129789998Y-105697200D01*
X129734814Y-105530666D01*
X129642712Y-105381344D01*
X129518656Y-105257288D01*
X129369334Y-105165186D01*
X129202797Y-105110001D01*
X129202795Y-105110000D01*
X129100016Y-105099500D01*
X129100009Y-105099500D01*
X127350097Y-105099500D01*
X127283058Y-105079815D01*
X127262416Y-105063181D01*
X126256088Y-104056853D01*
X126222603Y-103995530D01*
X126227587Y-103925838D01*
X126269459Y-103869905D01*
X126278655Y-103863645D01*
X126393656Y-103792712D01*
X126517712Y-103668656D01*
X126609814Y-103519335D01*
X126664999Y-103352798D01*
X126675500Y-103250010D01*
X126675500Y-102124990D01*
X126665283Y-102024982D01*
X129024500Y-102024982D01*
X129024500Y-103150017D01*
X129035000Y-103252796D01*
X129090185Y-103419332D01*
X129090187Y-103419337D01*
X129101393Y-103437504D01*
X129182288Y-103568656D01*
X129306344Y-103692712D01*
X129455665Y-103784814D01*
X129622202Y-103839999D01*
X129724990Y-103850500D01*
X130674902Y-103850500D01*
X130741941Y-103870185D01*
X130762583Y-103886819D01*
X130838349Y-103962585D01*
X130838355Y-103962590D01*
X132332017Y-105456252D01*
X132365502Y-105517575D01*
X132360518Y-105587267D01*
X132332018Y-105631614D01*
X132257287Y-105706345D01*
X132165187Y-105855663D01*
X132165185Y-105855668D01*
X132153747Y-105890186D01*
X132110001Y-106022203D01*
X132110001Y-106022204D01*
X132110000Y-106022204D01*
X132099500Y-106124983D01*
X132099500Y-107025001D01*
X132099501Y-107025019D01*
X132110000Y-107127796D01*
X132110001Y-107127799D01*
X132165185Y-107294331D01*
X132165187Y-107294336D01*
X132168989Y-107300500D01*
X132257288Y-107443656D01*
X132381344Y-107567712D01*
X132530666Y-107659814D01*
X132697203Y-107714999D01*
X132799991Y-107725500D01*
X135800008Y-107725499D01*
X135902797Y-107714999D01*
X136069334Y-107659814D01*
X136218656Y-107567712D01*
X136342712Y-107443656D01*
X136434814Y-107294334D01*
X136489999Y-107127797D01*
X136500500Y-107025009D01*
X136500499Y-106124992D01*
X136497660Y-106097204D01*
X136489999Y-106022203D01*
X136489998Y-106022200D01*
X136459667Y-105930668D01*
X136434814Y-105855666D01*
X136342712Y-105706344D01*
X136218656Y-105582288D01*
X136113739Y-105517575D01*
X136069336Y-105490187D01*
X136069331Y-105490185D01*
X136038036Y-105479815D01*
X135902797Y-105435001D01*
X135902795Y-105435000D01*
X135800016Y-105424500D01*
X135800009Y-105424500D01*
X134050097Y-105424500D01*
X133983058Y-105404815D01*
X133962416Y-105388181D01*
X132632451Y-104058216D01*
X132598966Y-103996893D01*
X132603950Y-103927201D01*
X132645822Y-103871268D01*
X132707528Y-103847177D01*
X132777798Y-103839999D01*
X132944335Y-103784814D01*
X133093656Y-103692712D01*
X133217712Y-103568656D01*
X133309814Y-103419335D01*
X133364999Y-103252798D01*
X133375500Y-103150010D01*
X133375500Y-102024990D01*
X133375499Y-102024982D01*
X136024500Y-102024982D01*
X136024500Y-103150017D01*
X136035000Y-103252796D01*
X136090185Y-103419332D01*
X136090187Y-103419337D01*
X136101393Y-103437504D01*
X136182288Y-103568656D01*
X136306344Y-103692712D01*
X136455665Y-103784814D01*
X136622202Y-103839999D01*
X136724990Y-103850500D01*
X138199903Y-103850500D01*
X138266942Y-103870185D01*
X138287583Y-103886818D01*
X139532018Y-105131254D01*
X139565502Y-105192575D01*
X139560518Y-105262267D01*
X139532018Y-105306614D01*
X139457287Y-105381345D01*
X139365187Y-105530663D01*
X139365185Y-105530668D01*
X139353747Y-105565186D01*
X139310001Y-105697203D01*
X139310001Y-105697204D01*
X139310000Y-105697204D01*
X139299500Y-105799983D01*
X139299500Y-106700001D01*
X139299501Y-106700019D01*
X139310000Y-106802796D01*
X139310001Y-106802799D01*
X139351358Y-106927603D01*
X139365186Y-106969334D01*
X139457288Y-107118656D01*
X139581344Y-107242712D01*
X139730666Y-107334814D01*
X139897203Y-107389999D01*
X139999991Y-107400500D01*
X143000008Y-107400499D01*
X143102797Y-107389999D01*
X143269334Y-107334814D01*
X143418656Y-107242712D01*
X143542712Y-107118656D01*
X143634814Y-106969334D01*
X143689999Y-106802797D01*
X143700500Y-106700009D01*
X143700499Y-105799992D01*
X143699292Y-105788181D01*
X143689999Y-105697203D01*
X143689998Y-105697200D01*
X143634814Y-105530666D01*
X143542712Y-105381344D01*
X143418656Y-105257288D01*
X143269334Y-105165186D01*
X143102797Y-105110001D01*
X143102795Y-105110000D01*
X143000016Y-105099500D01*
X143000009Y-105099500D01*
X141250098Y-105099500D01*
X141183059Y-105079815D01*
X141162417Y-105063181D01*
X140017939Y-103918703D01*
X139984454Y-103857380D01*
X139989438Y-103787688D01*
X140031310Y-103731755D01*
X140040501Y-103725497D01*
X140093656Y-103692712D01*
X140217712Y-103568656D01*
X140309814Y-103419335D01*
X140364999Y-103252798D01*
X140375500Y-103150010D01*
X140375500Y-102024990D01*
X140375499Y-102024982D01*
X142924500Y-102024982D01*
X142924500Y-103150017D01*
X142935000Y-103252796D01*
X142990185Y-103419332D01*
X142990187Y-103419337D01*
X143001393Y-103437504D01*
X143082288Y-103568656D01*
X143206344Y-103692712D01*
X143355665Y-103784814D01*
X143522202Y-103839999D01*
X143624990Y-103850500D01*
X144799903Y-103850500D01*
X144866942Y-103870185D01*
X144887584Y-103886819D01*
X146032017Y-105031252D01*
X146065502Y-105092575D01*
X146060518Y-105162267D01*
X146032018Y-105206614D01*
X145957287Y-105281345D01*
X145865187Y-105430663D01*
X145865185Y-105430668D01*
X145846127Y-105488181D01*
X145810001Y-105597203D01*
X145810001Y-105597204D01*
X145810000Y-105597204D01*
X145799500Y-105699983D01*
X145799500Y-106600001D01*
X145799501Y-106600019D01*
X145810000Y-106702796D01*
X145810001Y-106702799D01*
X145862280Y-106860564D01*
X145865186Y-106869334D01*
X145957288Y-107018656D01*
X146081344Y-107142712D01*
X146230666Y-107234814D01*
X146397203Y-107289999D01*
X146499991Y-107300500D01*
X149500008Y-107300499D01*
X149602797Y-107289999D01*
X149769334Y-107234814D01*
X149918656Y-107142712D01*
X150042712Y-107018656D01*
X150134814Y-106869334D01*
X150189999Y-106702797D01*
X150200500Y-106600009D01*
X150200499Y-105699992D01*
X150189999Y-105597203D01*
X150134814Y-105430666D01*
X150042712Y-105281344D01*
X149918656Y-105157288D01*
X149769334Y-105065186D01*
X149602797Y-105010001D01*
X149602795Y-105010000D01*
X149500016Y-104999500D01*
X149500009Y-104999500D01*
X147750097Y-104999500D01*
X147683058Y-104979815D01*
X147662416Y-104963181D01*
X146715873Y-104016638D01*
X146682388Y-103955315D01*
X146687372Y-103885623D01*
X146729244Y-103829690D01*
X146764546Y-103811253D01*
X146844335Y-103784814D01*
X146993656Y-103692712D01*
X147117712Y-103568656D01*
X147209814Y-103419335D01*
X147264999Y-103252798D01*
X147275500Y-103150010D01*
X147275500Y-102024990D01*
X147264999Y-101922202D01*
X147209814Y-101755665D01*
X147117712Y-101606344D01*
X146993656Y-101482288D01*
X146844335Y-101390186D01*
X146677798Y-101335001D01*
X146677796Y-101335000D01*
X146575017Y-101324500D01*
X146575010Y-101324500D01*
X143624990Y-101324500D01*
X143624982Y-101324500D01*
X143522203Y-101335000D01*
X143522202Y-101335001D01*
X143439669Y-101362349D01*
X143355667Y-101390185D01*
X143355662Y-101390187D01*
X143206342Y-101482289D01*
X143082289Y-101606342D01*
X142990187Y-101755662D01*
X142990185Y-101755667D01*
X142973288Y-101806659D01*
X142935001Y-101922202D01*
X142935001Y-101922203D01*
X142935000Y-101922203D01*
X142924500Y-102024982D01*
X140375499Y-102024982D01*
X140364999Y-101922202D01*
X140309814Y-101755665D01*
X140217712Y-101606344D01*
X140093656Y-101482288D01*
X139944335Y-101390186D01*
X139777798Y-101335001D01*
X139777796Y-101335000D01*
X139675017Y-101324500D01*
X139675010Y-101324500D01*
X136724990Y-101324500D01*
X136724982Y-101324500D01*
X136622203Y-101335000D01*
X136622202Y-101335001D01*
X136539669Y-101362349D01*
X136455667Y-101390185D01*
X136455662Y-101390187D01*
X136306342Y-101482289D01*
X136182289Y-101606342D01*
X136090187Y-101755662D01*
X136090185Y-101755667D01*
X136073288Y-101806659D01*
X136035001Y-101922202D01*
X136035001Y-101922203D01*
X136035000Y-101922203D01*
X136024500Y-102024982D01*
X133375499Y-102024982D01*
X133364999Y-101922202D01*
X133309814Y-101755665D01*
X133217712Y-101606344D01*
X133093656Y-101482288D01*
X132944335Y-101390186D01*
X132777798Y-101335001D01*
X132777796Y-101335000D01*
X132675017Y-101324500D01*
X132675010Y-101324500D01*
X129724990Y-101324500D01*
X129724982Y-101324500D01*
X129622203Y-101335000D01*
X129622202Y-101335001D01*
X129539669Y-101362349D01*
X129455667Y-101390185D01*
X129455662Y-101390187D01*
X129306342Y-101482289D01*
X129182289Y-101606342D01*
X129090187Y-101755662D01*
X129090185Y-101755667D01*
X129073288Y-101806659D01*
X129035001Y-101922202D01*
X129035001Y-101922203D01*
X129035000Y-101922203D01*
X129024500Y-102024982D01*
X126665283Y-102024982D01*
X126664999Y-102022202D01*
X126609814Y-101855665D01*
X126517712Y-101706344D01*
X126393656Y-101582288D01*
X126244335Y-101490186D01*
X126077798Y-101435001D01*
X126077796Y-101435000D01*
X125975017Y-101424500D01*
X125975010Y-101424500D01*
X123024990Y-101424500D01*
X123024982Y-101424500D01*
X122922203Y-101435000D01*
X122922202Y-101435001D01*
X122839669Y-101462349D01*
X122755667Y-101490185D01*
X122755662Y-101490187D01*
X122606342Y-101582289D01*
X122482289Y-101706342D01*
X122390187Y-101855662D01*
X122390185Y-101855667D01*
X122377430Y-101894159D01*
X122335001Y-102022202D01*
X122335001Y-102022203D01*
X122335000Y-102022203D01*
X122324500Y-102124982D01*
X119836926Y-102124982D01*
X119809814Y-102043165D01*
X119717712Y-101893844D01*
X119593656Y-101769788D01*
X119471042Y-101694159D01*
X119444337Y-101677687D01*
X119444332Y-101677685D01*
X119420500Y-101669788D01*
X119277798Y-101622501D01*
X119277796Y-101622500D01*
X119175017Y-101612000D01*
X119175010Y-101612000D01*
X116224990Y-101612000D01*
X116224982Y-101612000D01*
X116122203Y-101622500D01*
X116122202Y-101622501D01*
X116039669Y-101649849D01*
X115955667Y-101677685D01*
X115955662Y-101677687D01*
X115806342Y-101769789D01*
X115682289Y-101893842D01*
X115590187Y-102043162D01*
X115590185Y-102043167D01*
X115568138Y-102109702D01*
X115535001Y-102209702D01*
X115535001Y-102209703D01*
X115535000Y-102209703D01*
X115524500Y-102312482D01*
X112475500Y-102312482D01*
X112475500Y-102124990D01*
X112464999Y-102022202D01*
X112409814Y-101855665D01*
X112317712Y-101706344D01*
X112193656Y-101582288D01*
X112044335Y-101490186D01*
X111877798Y-101435001D01*
X111877796Y-101435000D01*
X111775017Y-101424500D01*
X111775010Y-101424500D01*
X108824990Y-101424500D01*
X108824982Y-101424500D01*
X108722203Y-101435000D01*
X108722202Y-101435001D01*
X108639669Y-101462349D01*
X108555667Y-101490185D01*
X108555662Y-101490187D01*
X108406342Y-101582289D01*
X108282289Y-101706342D01*
X108190187Y-101855662D01*
X108190185Y-101855667D01*
X108177430Y-101894159D01*
X108135001Y-102022202D01*
X108135001Y-102022203D01*
X108135000Y-102022203D01*
X108124500Y-102124982D01*
X105366560Y-102124982D01*
X105364999Y-102109702D01*
X105309814Y-101943165D01*
X105217712Y-101793844D01*
X105093656Y-101669788D01*
X104951796Y-101582288D01*
X104944337Y-101577687D01*
X104944332Y-101577685D01*
X104921683Y-101570180D01*
X104777798Y-101522501D01*
X104777796Y-101522500D01*
X104675017Y-101512000D01*
X104675010Y-101512000D01*
X101724990Y-101512000D01*
X101724982Y-101512000D01*
X101622203Y-101522500D01*
X101622202Y-101522501D01*
X101614661Y-101525000D01*
X101455667Y-101577685D01*
X101455662Y-101577687D01*
X101306342Y-101669789D01*
X101182289Y-101793842D01*
X101090187Y-101943162D01*
X101090185Y-101943167D01*
X101068105Y-102009801D01*
X101035001Y-102109702D01*
X101035001Y-102109703D01*
X101035000Y-102109703D01*
X101024500Y-102212482D01*
X98354995Y-102212482D01*
X98344505Y-102109803D01*
X98344505Y-102109801D01*
X98289359Y-101943380D01*
X98289354Y-101943369D01*
X98197319Y-101794159D01*
X98197316Y-101794155D01*
X98073344Y-101670183D01*
X98073340Y-101670180D01*
X97924130Y-101578145D01*
X97924119Y-101578140D01*
X97757697Y-101522994D01*
X97654986Y-101512500D01*
X96430000Y-101512500D01*
X96430000Y-102525000D01*
X95930000Y-102525000D01*
X95930000Y-101512500D01*
X94705028Y-101512500D01*
X94705012Y-101512501D01*
X94602303Y-101522994D01*
X94602301Y-101522994D01*
X94435880Y-101578140D01*
X94435869Y-101578145D01*
X94286659Y-101670180D01*
X94286655Y-101670183D01*
X94162683Y-101794155D01*
X94162680Y-101794159D01*
X94070645Y-101943369D01*
X94070640Y-101943380D01*
X94015494Y-102109802D01*
X94005000Y-102212513D01*
X91674999Y-102212513D01*
X91674999Y-102112528D01*
X91674998Y-102112513D01*
X91664505Y-102009803D01*
X91664505Y-102009801D01*
X91609359Y-101843380D01*
X91609354Y-101843369D01*
X91517319Y-101694159D01*
X91517316Y-101694155D01*
X91393344Y-101570183D01*
X91393340Y-101570180D01*
X91244130Y-101478145D01*
X91244119Y-101478140D01*
X91077697Y-101422994D01*
X90974986Y-101412500D01*
X89750000Y-101412500D01*
X89750000Y-102425000D01*
X89250000Y-102425000D01*
X89250000Y-101412500D01*
X88025028Y-101412500D01*
X88025012Y-101412501D01*
X87922303Y-101422994D01*
X87922301Y-101422994D01*
X87755880Y-101478140D01*
X87755869Y-101478145D01*
X87606659Y-101570180D01*
X87606655Y-101570183D01*
X87482683Y-101694155D01*
X87482680Y-101694159D01*
X87390645Y-101843369D01*
X87390640Y-101843380D01*
X87335494Y-102009802D01*
X87325000Y-102112513D01*
X85361262Y-102112513D01*
X85309359Y-101955880D01*
X85309354Y-101955869D01*
X85217319Y-101806659D01*
X85217316Y-101806655D01*
X85093344Y-101682683D01*
X85093340Y-101682680D01*
X84944130Y-101590645D01*
X84944119Y-101590640D01*
X84777697Y-101535494D01*
X84674986Y-101525000D01*
X83450000Y-101525000D01*
X83450000Y-102537500D01*
X82950000Y-102537500D01*
X82950000Y-101525000D01*
X81725028Y-101525000D01*
X81725012Y-101525001D01*
X81622303Y-101535494D01*
X81622301Y-101535494D01*
X81455880Y-101590640D01*
X81455869Y-101590645D01*
X81306659Y-101682680D01*
X81306655Y-101682683D01*
X81182683Y-101806655D01*
X81182680Y-101806659D01*
X81090645Y-101955869D01*
X81090640Y-101955880D01*
X81035494Y-102122302D01*
X81025000Y-102225013D01*
X76066059Y-102225013D01*
X76064505Y-102209803D01*
X76064505Y-102209801D01*
X76009359Y-102043380D01*
X76009354Y-102043369D01*
X75917319Y-101894159D01*
X75917316Y-101894155D01*
X75793344Y-101770183D01*
X75793340Y-101770180D01*
X75644130Y-101678145D01*
X75644119Y-101678140D01*
X75477697Y-101622994D01*
X75374986Y-101612500D01*
X74150000Y-101612500D01*
X74150000Y-102625000D01*
X73650000Y-102625000D01*
X73650000Y-101612500D01*
X72425028Y-101612500D01*
X72425012Y-101612501D01*
X72322303Y-101622994D01*
X72322301Y-101622994D01*
X72155880Y-101678140D01*
X72155869Y-101678145D01*
X72006659Y-101770180D01*
X72006655Y-101770183D01*
X71882683Y-101894155D01*
X71882680Y-101894159D01*
X71790645Y-102043369D01*
X71790640Y-102043380D01*
X71735494Y-102209802D01*
X71725000Y-102312513D01*
X70150500Y-102312513D01*
X70150500Y-96337482D01*
X71724500Y-96337482D01*
X71724500Y-97462517D01*
X71735000Y-97565296D01*
X71756981Y-97631630D01*
X71790186Y-97731835D01*
X71882288Y-97881156D01*
X72006344Y-98005212D01*
X72155665Y-98097314D01*
X72322202Y-98152499D01*
X72424990Y-98163000D01*
X72424995Y-98163000D01*
X75375005Y-98163000D01*
X75375010Y-98163000D01*
X75477798Y-98152499D01*
X75644335Y-98097314D01*
X75793656Y-98005212D01*
X75917712Y-97881156D01*
X76009814Y-97731835D01*
X76064999Y-97565298D01*
X76075500Y-97462510D01*
X76075500Y-96337490D01*
X76064999Y-96234702D01*
X76009814Y-96068165D01*
X75917712Y-95918844D01*
X75793656Y-95794788D01*
X75691301Y-95731655D01*
X75644337Y-95702687D01*
X75644332Y-95702685D01*
X75620500Y-95694788D01*
X75477798Y-95647501D01*
X75477796Y-95647500D01*
X75375017Y-95637000D01*
X75375010Y-95637000D01*
X74724500Y-95637000D01*
X74657461Y-95617315D01*
X74611706Y-95564511D01*
X74600500Y-95513000D01*
X74600500Y-92699499D01*
X74620185Y-92632460D01*
X74672989Y-92586705D01*
X74724500Y-92575499D01*
X75500002Y-92575499D01*
X75500008Y-92575499D01*
X75602797Y-92564999D01*
X75769334Y-92509814D01*
X75918656Y-92417712D01*
X76042712Y-92293656D01*
X76134814Y-92144334D01*
X76189999Y-91977797D01*
X76200500Y-91875009D01*
X76200499Y-90974992D01*
X76189999Y-90872203D01*
X76134814Y-90705666D01*
X76042712Y-90556344D01*
X75918656Y-90432288D01*
X75769334Y-90340186D01*
X75602797Y-90285001D01*
X75602795Y-90285000D01*
X75500010Y-90274500D01*
X72499998Y-90274500D01*
X72499981Y-90274501D01*
X72397203Y-90285000D01*
X72397200Y-90285001D01*
X72230668Y-90340185D01*
X72230663Y-90340187D01*
X72081342Y-90432289D01*
X71957289Y-90556342D01*
X71865187Y-90705663D01*
X71865185Y-90705668D01*
X71852578Y-90743713D01*
X71810001Y-90872203D01*
X71810001Y-90872204D01*
X71810000Y-90872204D01*
X71799500Y-90974983D01*
X71799500Y-91875001D01*
X71799501Y-91875019D01*
X71810000Y-91977796D01*
X71810001Y-91977799D01*
X71865185Y-92144331D01*
X71865186Y-92144334D01*
X71957288Y-92293656D01*
X72081344Y-92417712D01*
X72230666Y-92509814D01*
X72397203Y-92564999D01*
X72499991Y-92575500D01*
X73275500Y-92575499D01*
X73342539Y-92595183D01*
X73388294Y-92647987D01*
X73399500Y-92699499D01*
X73399500Y-95513000D01*
X73379815Y-95580039D01*
X73327011Y-95625794D01*
X73275500Y-95637000D01*
X72424982Y-95637000D01*
X72322203Y-95647500D01*
X72322202Y-95647501D01*
X72239669Y-95674849D01*
X72155667Y-95702685D01*
X72155662Y-95702687D01*
X72006342Y-95794789D01*
X71882289Y-95918842D01*
X71790187Y-96068162D01*
X71790185Y-96068167D01*
X71768138Y-96134702D01*
X71735001Y-96234702D01*
X71735001Y-96234703D01*
X71735000Y-96234703D01*
X71724500Y-96337482D01*
X70150500Y-96337482D01*
X70150500Y-86524983D01*
X71799500Y-86524983D01*
X71799500Y-87425001D01*
X71799501Y-87425019D01*
X71810000Y-87527796D01*
X71810001Y-87527799D01*
X71860187Y-87679249D01*
X71865186Y-87694334D01*
X71957288Y-87843656D01*
X72081344Y-87967712D01*
X72230666Y-88059814D01*
X72397203Y-88114999D01*
X72499991Y-88125500D01*
X74249902Y-88125499D01*
X74316941Y-88145184D01*
X74337583Y-88161818D01*
X76915139Y-90739374D01*
X76915149Y-90739385D01*
X76919479Y-90743715D01*
X76919480Y-90743716D01*
X77031284Y-90855520D01*
X77118095Y-90905639D01*
X77118097Y-90905641D01*
X77156151Y-90927611D01*
X77168215Y-90934577D01*
X77320943Y-90975500D01*
X81775500Y-90975500D01*
X81842539Y-90995185D01*
X81888294Y-91047989D01*
X81899500Y-91099500D01*
X81899500Y-91775001D01*
X81899501Y-91775019D01*
X81910000Y-91877796D01*
X81910001Y-91877799D01*
X81965185Y-92044331D01*
X81965187Y-92044336D01*
X81991412Y-92086853D01*
X82057288Y-92193656D01*
X82181344Y-92317712D01*
X82330666Y-92409814D01*
X82497203Y-92464999D01*
X82599991Y-92475500D01*
X83375500Y-92475499D01*
X83442539Y-92495183D01*
X83488294Y-92547987D01*
X83499500Y-92599499D01*
X83499500Y-95425500D01*
X83479815Y-95492539D01*
X83427011Y-95538294D01*
X83375500Y-95549500D01*
X81724982Y-95549500D01*
X81622203Y-95560000D01*
X81622202Y-95560001D01*
X81539669Y-95587349D01*
X81455667Y-95615185D01*
X81455662Y-95615187D01*
X81306342Y-95707289D01*
X81182289Y-95831342D01*
X81090187Y-95980662D01*
X81090185Y-95980667D01*
X81068105Y-96047301D01*
X81035001Y-96147202D01*
X81035001Y-96147203D01*
X81035000Y-96147203D01*
X81024500Y-96249982D01*
X81024500Y-97375017D01*
X81035000Y-97477796D01*
X81063995Y-97565296D01*
X81090186Y-97644335D01*
X81182288Y-97793656D01*
X81306344Y-97917712D01*
X81455665Y-98009814D01*
X81622202Y-98064999D01*
X81724990Y-98075500D01*
X81724995Y-98075500D01*
X84675005Y-98075500D01*
X84675010Y-98075500D01*
X84777798Y-98064999D01*
X84944335Y-98009814D01*
X85093656Y-97917712D01*
X85217712Y-97793656D01*
X85309814Y-97644335D01*
X85364999Y-97477798D01*
X85375500Y-97375010D01*
X85375500Y-96249990D01*
X85364999Y-96147202D01*
X85309814Y-95980665D01*
X85217712Y-95831344D01*
X85093656Y-95707288D01*
X84971042Y-95631659D01*
X84944337Y-95615187D01*
X84944332Y-95615185D01*
X84906616Y-95602687D01*
X84785495Y-95562551D01*
X84728051Y-95522779D01*
X84701228Y-95458263D01*
X84700500Y-95444846D01*
X84700500Y-92599499D01*
X84720185Y-92532460D01*
X84772989Y-92486705D01*
X84824500Y-92475499D01*
X85600002Y-92475499D01*
X85600008Y-92475499D01*
X85702797Y-92464999D01*
X85869334Y-92409814D01*
X86018656Y-92317712D01*
X86142712Y-92193656D01*
X86234814Y-92044334D01*
X86289999Y-91877797D01*
X86300500Y-91775009D01*
X86300499Y-91099499D01*
X86320183Y-91032461D01*
X86372987Y-90986706D01*
X86424499Y-90975500D01*
X86725500Y-90975500D01*
X86792539Y-90995185D01*
X86838294Y-91047989D01*
X86849500Y-91099500D01*
X86849500Y-91775001D01*
X86849501Y-91775019D01*
X86860000Y-91877796D01*
X86860001Y-91877799D01*
X86915185Y-92044331D01*
X86915187Y-92044336D01*
X86941412Y-92086853D01*
X87007288Y-92193656D01*
X87131344Y-92317712D01*
X87280666Y-92409814D01*
X87447203Y-92464999D01*
X87549991Y-92475500D01*
X88775500Y-92475499D01*
X88842539Y-92495184D01*
X88888294Y-92547987D01*
X88899500Y-92599499D01*
X88899500Y-95313000D01*
X88879815Y-95380039D01*
X88827011Y-95425794D01*
X88775500Y-95437000D01*
X88024982Y-95437000D01*
X87922203Y-95447500D01*
X87922202Y-95447501D01*
X87882992Y-95460494D01*
X87755667Y-95502685D01*
X87755662Y-95502687D01*
X87606342Y-95594789D01*
X87482289Y-95718842D01*
X87390187Y-95868162D01*
X87390185Y-95868167D01*
X87373288Y-95919159D01*
X87335001Y-96034702D01*
X87335001Y-96034703D01*
X87335000Y-96034703D01*
X87324500Y-96137482D01*
X87324500Y-97262517D01*
X87335000Y-97365296D01*
X87390185Y-97531832D01*
X87390187Y-97531837D01*
X87410763Y-97565196D01*
X87482288Y-97681156D01*
X87606344Y-97805212D01*
X87755665Y-97897314D01*
X87922202Y-97952499D01*
X88024990Y-97963000D01*
X88024995Y-97963000D01*
X90975005Y-97963000D01*
X90975010Y-97963000D01*
X91077798Y-97952499D01*
X91244335Y-97897314D01*
X91393656Y-97805212D01*
X91517712Y-97681156D01*
X91609814Y-97531835D01*
X91664999Y-97365298D01*
X91675500Y-97262510D01*
X91675500Y-96137490D01*
X91664999Y-96034702D01*
X91609814Y-95868165D01*
X91517712Y-95718844D01*
X91393656Y-95594788D01*
X91276911Y-95522779D01*
X91244337Y-95502687D01*
X91244332Y-95502685D01*
X91213713Y-95492539D01*
X91077798Y-95447501D01*
X91077796Y-95447500D01*
X90975017Y-95437000D01*
X90975010Y-95437000D01*
X90224500Y-95437000D01*
X90157461Y-95417315D01*
X90111706Y-95364511D01*
X90100500Y-95313000D01*
X90100500Y-92599499D01*
X90120185Y-92532460D01*
X90172989Y-92486705D01*
X90224500Y-92475499D01*
X90550002Y-92475499D01*
X90550008Y-92475499D01*
X90652797Y-92464999D01*
X90819334Y-92409814D01*
X90968656Y-92317712D01*
X91092712Y-92193656D01*
X91184814Y-92044334D01*
X91239999Y-91877797D01*
X91250500Y-91775009D01*
X91250499Y-91099499D01*
X91270183Y-91032461D01*
X91322987Y-90986706D01*
X91374499Y-90975500D01*
X91675500Y-90975500D01*
X91742539Y-90995185D01*
X91788294Y-91047989D01*
X91799500Y-91099500D01*
X91799500Y-91775001D01*
X91799501Y-91775019D01*
X91810000Y-91877796D01*
X91810001Y-91877799D01*
X91865185Y-92044331D01*
X91865187Y-92044336D01*
X91891412Y-92086853D01*
X91957288Y-92193656D01*
X92081344Y-92317712D01*
X92230666Y-92409814D01*
X92397203Y-92464999D01*
X92499991Y-92475500D01*
X93275500Y-92475499D01*
X93342539Y-92495183D01*
X93388294Y-92547987D01*
X93399500Y-92599499D01*
X93399500Y-94533330D01*
X93399499Y-94533348D01*
X93399499Y-94699054D01*
X93399498Y-94699054D01*
X93440423Y-94851785D01*
X93469358Y-94901900D01*
X93469359Y-94901904D01*
X93469360Y-94901904D01*
X93519479Y-94988714D01*
X93519481Y-94988717D01*
X93638349Y-95107585D01*
X93638355Y-95107590D01*
X94168267Y-95637502D01*
X94201752Y-95698825D01*
X94196768Y-95768517D01*
X94168271Y-95812860D01*
X94162290Y-95818841D01*
X94162289Y-95818841D01*
X94070187Y-95968162D01*
X94070185Y-95968167D01*
X94066045Y-95980662D01*
X94015001Y-96134702D01*
X94015001Y-96134703D01*
X94015000Y-96134703D01*
X94004500Y-96237482D01*
X94004500Y-97362517D01*
X94015000Y-97465296D01*
X94015001Y-97465298D01*
X94070186Y-97631835D01*
X94162288Y-97781156D01*
X94286344Y-97905212D01*
X94435665Y-97997314D01*
X94602202Y-98052499D01*
X94704990Y-98063000D01*
X94704995Y-98063000D01*
X97655005Y-98063000D01*
X97655010Y-98063000D01*
X97757798Y-98052499D01*
X97924335Y-97997314D01*
X98073656Y-97905212D01*
X98197712Y-97781156D01*
X98289814Y-97631835D01*
X98344999Y-97465298D01*
X98355500Y-97362510D01*
X98355500Y-97362486D01*
X101025001Y-97362486D01*
X101035494Y-97465196D01*
X101035494Y-97465198D01*
X101090640Y-97631619D01*
X101090645Y-97631630D01*
X101182680Y-97780840D01*
X101182683Y-97780844D01*
X101306655Y-97904816D01*
X101306659Y-97904819D01*
X101455869Y-97996854D01*
X101455880Y-97996859D01*
X101622302Y-98052005D01*
X101725020Y-98062499D01*
X102949999Y-98062499D01*
X103450000Y-98062499D01*
X104674972Y-98062499D01*
X104674986Y-98062498D01*
X104777696Y-98052005D01*
X104777698Y-98052005D01*
X104944119Y-97996859D01*
X104944130Y-97996854D01*
X105093340Y-97904819D01*
X105093344Y-97904816D01*
X105217316Y-97780844D01*
X105217319Y-97780840D01*
X105309354Y-97631630D01*
X105309359Y-97631619D01*
X105364505Y-97465197D01*
X105374999Y-97362486D01*
X105375000Y-97362473D01*
X105375000Y-97274986D01*
X108125001Y-97274986D01*
X108135494Y-97377696D01*
X108135494Y-97377698D01*
X108190640Y-97544119D01*
X108190645Y-97544130D01*
X108282680Y-97693340D01*
X108282683Y-97693344D01*
X108406655Y-97817316D01*
X108406659Y-97817319D01*
X108555869Y-97909354D01*
X108555880Y-97909359D01*
X108722302Y-97964505D01*
X108825020Y-97974999D01*
X110049999Y-97974999D01*
X110550000Y-97974999D01*
X111774972Y-97974999D01*
X111774986Y-97974998D01*
X111877696Y-97964505D01*
X111877698Y-97964505D01*
X112044119Y-97909359D01*
X112044130Y-97909354D01*
X112193340Y-97817319D01*
X112193344Y-97817316D01*
X112317316Y-97693344D01*
X112317319Y-97693340D01*
X112409354Y-97544130D01*
X112409359Y-97544119D01*
X112436409Y-97462486D01*
X115525001Y-97462486D01*
X115535494Y-97565196D01*
X115535494Y-97565198D01*
X115590640Y-97731619D01*
X115590645Y-97731630D01*
X115682680Y-97880840D01*
X115682683Y-97880844D01*
X115806655Y-98004816D01*
X115806659Y-98004819D01*
X115955869Y-98096854D01*
X115955880Y-98096859D01*
X116122302Y-98152005D01*
X116225020Y-98162499D01*
X117449999Y-98162499D01*
X117950000Y-98162499D01*
X119174972Y-98162499D01*
X119174986Y-98162498D01*
X119277696Y-98152005D01*
X119277698Y-98152005D01*
X119444119Y-98096859D01*
X119444130Y-98096854D01*
X119593340Y-98004819D01*
X119593344Y-98004816D01*
X119717316Y-97880844D01*
X119717319Y-97880840D01*
X119809354Y-97731630D01*
X119809359Y-97731619D01*
X119864505Y-97565197D01*
X119874999Y-97462486D01*
X119875000Y-97462473D01*
X119875000Y-97274986D01*
X122325001Y-97274986D01*
X122335494Y-97377696D01*
X122335494Y-97377698D01*
X122390640Y-97544119D01*
X122390645Y-97544130D01*
X122482680Y-97693340D01*
X122482683Y-97693344D01*
X122606655Y-97817316D01*
X122606659Y-97817319D01*
X122755869Y-97909354D01*
X122755880Y-97909359D01*
X122922302Y-97964505D01*
X123025020Y-97974999D01*
X124249999Y-97974999D01*
X124750000Y-97974999D01*
X125974972Y-97974999D01*
X125974986Y-97974998D01*
X126077696Y-97964505D01*
X126077698Y-97964505D01*
X126244119Y-97909359D01*
X126244130Y-97909354D01*
X126393340Y-97817319D01*
X126393344Y-97817316D01*
X126517316Y-97693344D01*
X126517319Y-97693340D01*
X126609354Y-97544130D01*
X126609359Y-97544119D01*
X126664505Y-97377697D01*
X126674999Y-97274986D01*
X126675000Y-97274973D01*
X126675000Y-97174986D01*
X129025001Y-97174986D01*
X129035494Y-97277696D01*
X129035494Y-97277698D01*
X129090640Y-97444119D01*
X129090645Y-97444130D01*
X129182680Y-97593340D01*
X129182683Y-97593344D01*
X129306655Y-97717316D01*
X129306659Y-97717319D01*
X129455869Y-97809354D01*
X129455880Y-97809359D01*
X129622302Y-97864505D01*
X129725020Y-97874999D01*
X130949999Y-97874999D01*
X131450000Y-97874999D01*
X132674972Y-97874999D01*
X132674986Y-97874998D01*
X132777696Y-97864505D01*
X132777698Y-97864505D01*
X132944119Y-97809359D01*
X132944130Y-97809354D01*
X133093340Y-97717319D01*
X133093344Y-97717316D01*
X133217316Y-97593344D01*
X133217319Y-97593340D01*
X133309354Y-97444130D01*
X133309359Y-97444119D01*
X133364505Y-97277697D01*
X133374999Y-97174986D01*
X136025001Y-97174986D01*
X136035494Y-97277696D01*
X136035494Y-97277698D01*
X136090640Y-97444119D01*
X136090645Y-97444130D01*
X136182680Y-97593340D01*
X136182683Y-97593344D01*
X136306655Y-97717316D01*
X136306659Y-97717319D01*
X136455869Y-97809354D01*
X136455880Y-97809359D01*
X136622302Y-97864505D01*
X136725020Y-97874999D01*
X137949999Y-97874999D01*
X138450000Y-97874999D01*
X139674972Y-97874999D01*
X139674986Y-97874998D01*
X139777696Y-97864505D01*
X139777698Y-97864505D01*
X139944119Y-97809359D01*
X139944130Y-97809354D01*
X140093340Y-97717319D01*
X140093344Y-97717316D01*
X140217316Y-97593344D01*
X140217319Y-97593340D01*
X140309354Y-97444130D01*
X140309359Y-97444119D01*
X140364505Y-97277697D01*
X140374999Y-97174986D01*
X142925001Y-97174986D01*
X142935494Y-97277696D01*
X142935494Y-97277698D01*
X142990640Y-97444119D01*
X142990645Y-97444130D01*
X143082680Y-97593340D01*
X143082683Y-97593344D01*
X143206655Y-97717316D01*
X143206659Y-97717319D01*
X143355869Y-97809354D01*
X143355880Y-97809359D01*
X143522302Y-97864505D01*
X143625020Y-97874999D01*
X144849999Y-97874999D01*
X145350000Y-97874999D01*
X146574972Y-97874999D01*
X146574986Y-97874998D01*
X146677696Y-97864505D01*
X146677698Y-97864505D01*
X146844119Y-97809359D01*
X146844130Y-97809354D01*
X146993340Y-97717319D01*
X146993344Y-97717316D01*
X147117316Y-97593344D01*
X147117319Y-97593340D01*
X147209354Y-97444130D01*
X147209359Y-97444119D01*
X147264505Y-97277697D01*
X147274999Y-97174986D01*
X147275000Y-97174973D01*
X147275000Y-96862500D01*
X145350000Y-96862500D01*
X145350000Y-97874999D01*
X144849999Y-97874999D01*
X144850000Y-97874998D01*
X144850000Y-96862500D01*
X142925001Y-96862500D01*
X142925001Y-97174986D01*
X140374999Y-97174986D01*
X140375000Y-97174973D01*
X140375000Y-96862500D01*
X138450000Y-96862500D01*
X138450000Y-97874999D01*
X137949999Y-97874999D01*
X137950000Y-97874998D01*
X137950000Y-96862500D01*
X136025001Y-96862500D01*
X136025001Y-97174986D01*
X133374999Y-97174986D01*
X133375000Y-97174973D01*
X133375000Y-96862500D01*
X131450000Y-96862500D01*
X131450000Y-97874999D01*
X130949999Y-97874999D01*
X130950000Y-97874998D01*
X130950000Y-96862500D01*
X129025001Y-96862500D01*
X129025001Y-97174986D01*
X126675000Y-97174986D01*
X126675000Y-96962500D01*
X124750000Y-96962500D01*
X124750000Y-97974999D01*
X124249999Y-97974999D01*
X124250000Y-97974998D01*
X124250000Y-96962500D01*
X122325001Y-96962500D01*
X122325001Y-97274986D01*
X119875000Y-97274986D01*
X119875000Y-97150000D01*
X117950000Y-97150000D01*
X117950000Y-98162499D01*
X117449999Y-98162499D01*
X117450000Y-98162498D01*
X117450000Y-97150000D01*
X115525001Y-97150000D01*
X115525001Y-97462486D01*
X112436409Y-97462486D01*
X112464505Y-97377697D01*
X112474999Y-97274986D01*
X112475000Y-97274973D01*
X112475000Y-96962500D01*
X110550000Y-96962500D01*
X110550000Y-97974999D01*
X110049999Y-97974999D01*
X110050000Y-97974998D01*
X110050000Y-96962500D01*
X108125001Y-96962500D01*
X108125001Y-97274986D01*
X105375000Y-97274986D01*
X105375000Y-97050000D01*
X103450000Y-97050000D01*
X103450000Y-98062499D01*
X102949999Y-98062499D01*
X102950000Y-98062498D01*
X102950000Y-97050000D01*
X101025001Y-97050000D01*
X101025001Y-97362486D01*
X98355500Y-97362486D01*
X98355500Y-96237513D01*
X101025000Y-96237513D01*
X101025000Y-96550000D01*
X102950000Y-96550000D01*
X103450000Y-96550000D01*
X105374999Y-96550000D01*
X105374999Y-96237528D01*
X105374998Y-96237513D01*
X105366059Y-96150013D01*
X108125000Y-96150013D01*
X108125000Y-96462500D01*
X110050000Y-96462500D01*
X110550000Y-96462500D01*
X112474999Y-96462500D01*
X112474999Y-96337513D01*
X115525000Y-96337513D01*
X115525000Y-96650000D01*
X117450000Y-96650000D01*
X117950000Y-96650000D01*
X119874999Y-96650000D01*
X119874999Y-96337528D01*
X119874998Y-96337513D01*
X119864505Y-96234803D01*
X119864505Y-96234801D01*
X119836409Y-96150013D01*
X122325000Y-96150013D01*
X122325000Y-96462500D01*
X124250000Y-96462500D01*
X124750000Y-96462500D01*
X126674999Y-96462500D01*
X126674999Y-96150028D01*
X126674998Y-96150013D01*
X126664782Y-96050013D01*
X129025000Y-96050013D01*
X129025000Y-96362500D01*
X130950000Y-96362500D01*
X131450000Y-96362500D01*
X133374999Y-96362500D01*
X133374999Y-96050028D01*
X133374998Y-96050013D01*
X136025000Y-96050013D01*
X136025000Y-96362500D01*
X137950000Y-96362500D01*
X138450000Y-96362500D01*
X140374999Y-96362500D01*
X140374999Y-96050028D01*
X140374998Y-96050013D01*
X142925000Y-96050013D01*
X142925000Y-96362500D01*
X144850000Y-96362500D01*
X145350000Y-96362500D01*
X147274999Y-96362500D01*
X147274999Y-96050028D01*
X147274998Y-96050013D01*
X147264505Y-95947303D01*
X147264505Y-95947301D01*
X147209359Y-95780880D01*
X147209354Y-95780869D01*
X147117319Y-95631659D01*
X147117316Y-95631655D01*
X146993344Y-95507683D01*
X146993340Y-95507680D01*
X146844130Y-95415645D01*
X146844119Y-95415640D01*
X146677697Y-95360494D01*
X146574986Y-95350000D01*
X145350000Y-95350000D01*
X145350000Y-96362500D01*
X144850000Y-96362500D01*
X144850000Y-95350000D01*
X143625028Y-95350000D01*
X143625012Y-95350001D01*
X143522303Y-95360494D01*
X143522301Y-95360494D01*
X143355880Y-95415640D01*
X143355869Y-95415645D01*
X143206659Y-95507680D01*
X143206655Y-95507683D01*
X143082683Y-95631655D01*
X143082680Y-95631659D01*
X142990645Y-95780869D01*
X142990640Y-95780880D01*
X142935494Y-95947302D01*
X142925000Y-96050013D01*
X140374998Y-96050013D01*
X140364505Y-95947303D01*
X140364505Y-95947301D01*
X140309359Y-95780880D01*
X140309354Y-95780869D01*
X140217319Y-95631659D01*
X140217316Y-95631655D01*
X140093344Y-95507683D01*
X140093340Y-95507680D01*
X139944130Y-95415645D01*
X139944119Y-95415640D01*
X139777697Y-95360494D01*
X139674986Y-95350000D01*
X138450000Y-95350000D01*
X138450000Y-96362500D01*
X137950000Y-96362500D01*
X137950000Y-95350000D01*
X136725028Y-95350000D01*
X136725012Y-95350001D01*
X136622303Y-95360494D01*
X136622301Y-95360494D01*
X136455880Y-95415640D01*
X136455869Y-95415645D01*
X136306659Y-95507680D01*
X136306655Y-95507683D01*
X136182683Y-95631655D01*
X136182680Y-95631659D01*
X136090645Y-95780869D01*
X136090640Y-95780880D01*
X136035494Y-95947302D01*
X136025000Y-96050013D01*
X133374998Y-96050013D01*
X133364505Y-95947303D01*
X133364505Y-95947301D01*
X133309359Y-95780880D01*
X133309354Y-95780869D01*
X133217319Y-95631659D01*
X133217316Y-95631655D01*
X133093344Y-95507683D01*
X133093340Y-95507680D01*
X132944130Y-95415645D01*
X132944119Y-95415640D01*
X132777697Y-95360494D01*
X132674986Y-95350000D01*
X131450000Y-95350000D01*
X131450000Y-96362500D01*
X130950000Y-96362500D01*
X130950000Y-95350000D01*
X129725028Y-95350000D01*
X129725012Y-95350001D01*
X129622303Y-95360494D01*
X129622301Y-95360494D01*
X129455880Y-95415640D01*
X129455869Y-95415645D01*
X129306659Y-95507680D01*
X129306655Y-95507683D01*
X129182683Y-95631655D01*
X129182680Y-95631659D01*
X129090645Y-95780869D01*
X129090640Y-95780880D01*
X129035494Y-95947302D01*
X129025000Y-96050013D01*
X126664782Y-96050013D01*
X126664505Y-96047303D01*
X126664505Y-96047301D01*
X126609359Y-95880880D01*
X126609354Y-95880869D01*
X126517319Y-95731659D01*
X126517316Y-95731655D01*
X126393344Y-95607683D01*
X126393340Y-95607680D01*
X126244130Y-95515645D01*
X126244119Y-95515640D01*
X126077697Y-95460494D01*
X125974986Y-95450000D01*
X124750000Y-95450000D01*
X124750000Y-96462500D01*
X124250000Y-96462500D01*
X124250000Y-95450000D01*
X123025028Y-95450000D01*
X123025012Y-95450001D01*
X122922303Y-95460494D01*
X122922301Y-95460494D01*
X122755880Y-95515640D01*
X122755869Y-95515645D01*
X122606659Y-95607680D01*
X122606655Y-95607683D01*
X122482683Y-95731655D01*
X122482680Y-95731659D01*
X122390645Y-95880869D01*
X122390640Y-95880880D01*
X122335494Y-96047302D01*
X122325000Y-96150013D01*
X119836409Y-96150013D01*
X119809359Y-96068380D01*
X119809354Y-96068369D01*
X119717319Y-95919159D01*
X119717316Y-95919155D01*
X119593344Y-95795183D01*
X119593340Y-95795180D01*
X119444130Y-95703145D01*
X119444119Y-95703140D01*
X119277697Y-95647994D01*
X119174986Y-95637500D01*
X117950000Y-95637500D01*
X117950000Y-96650000D01*
X117450000Y-96650000D01*
X117450000Y-95637500D01*
X116225028Y-95637500D01*
X116225012Y-95637501D01*
X116122303Y-95647994D01*
X116122301Y-95647994D01*
X115955880Y-95703140D01*
X115955869Y-95703145D01*
X115806659Y-95795180D01*
X115806655Y-95795183D01*
X115682683Y-95919155D01*
X115682680Y-95919159D01*
X115590645Y-96068369D01*
X115590640Y-96068380D01*
X115535494Y-96234802D01*
X115525000Y-96337513D01*
X112474999Y-96337513D01*
X112474999Y-96150028D01*
X112474998Y-96150013D01*
X112464505Y-96047303D01*
X112464505Y-96047301D01*
X112409359Y-95880880D01*
X112409354Y-95880869D01*
X112317319Y-95731659D01*
X112317316Y-95731655D01*
X112193344Y-95607683D01*
X112193340Y-95607680D01*
X112044130Y-95515645D01*
X112044119Y-95515640D01*
X111877697Y-95460494D01*
X111774986Y-95450000D01*
X110550000Y-95450000D01*
X110550000Y-96462500D01*
X110050000Y-96462500D01*
X110050000Y-95450000D01*
X108825028Y-95450000D01*
X108825012Y-95450001D01*
X108722303Y-95460494D01*
X108722301Y-95460494D01*
X108555880Y-95515640D01*
X108555869Y-95515645D01*
X108406659Y-95607680D01*
X108406655Y-95607683D01*
X108282683Y-95731655D01*
X108282680Y-95731659D01*
X108190645Y-95880869D01*
X108190640Y-95880880D01*
X108135494Y-96047302D01*
X108125000Y-96150013D01*
X105366059Y-96150013D01*
X105364505Y-96134803D01*
X105364505Y-96134801D01*
X105309359Y-95968380D01*
X105309354Y-95968369D01*
X105217319Y-95819159D01*
X105217316Y-95819155D01*
X105093344Y-95695183D01*
X105093340Y-95695180D01*
X104944130Y-95603145D01*
X104944119Y-95603140D01*
X104777697Y-95547994D01*
X104674986Y-95537500D01*
X103450000Y-95537500D01*
X103450000Y-96550000D01*
X102950000Y-96550000D01*
X102950000Y-95537500D01*
X101725028Y-95537500D01*
X101725012Y-95537501D01*
X101622303Y-95547994D01*
X101622301Y-95547994D01*
X101455880Y-95603140D01*
X101455869Y-95603145D01*
X101306659Y-95695180D01*
X101306655Y-95695183D01*
X101182683Y-95819155D01*
X101182680Y-95819159D01*
X101090645Y-95968369D01*
X101090640Y-95968380D01*
X101035494Y-96134802D01*
X101025000Y-96237513D01*
X98355500Y-96237513D01*
X98355500Y-96237490D01*
X98344999Y-96134702D01*
X98289814Y-95968165D01*
X98197712Y-95818844D01*
X98073656Y-95694788D01*
X97961799Y-95625794D01*
X97924337Y-95602687D01*
X97924332Y-95602685D01*
X97900500Y-95594788D01*
X97757798Y-95547501D01*
X97757796Y-95547500D01*
X97655017Y-95537000D01*
X97655010Y-95537000D01*
X95817598Y-95537000D01*
X95750559Y-95517315D01*
X95729917Y-95500681D01*
X94636819Y-94407583D01*
X94603334Y-94346260D01*
X94600500Y-94319902D01*
X94600500Y-92599499D01*
X94620185Y-92532460D01*
X94672989Y-92486705D01*
X94724500Y-92475499D01*
X95500002Y-92475499D01*
X95500008Y-92475499D01*
X95602797Y-92464999D01*
X95769334Y-92409814D01*
X95918656Y-92317712D01*
X96042712Y-92193656D01*
X96134814Y-92044334D01*
X96189999Y-91877797D01*
X96200500Y-91775009D01*
X96200499Y-91099499D01*
X96220183Y-91032461D01*
X96272987Y-90986706D01*
X96324499Y-90975500D01*
X180501095Y-90975500D01*
X180568134Y-90995185D01*
X180613889Y-91047989D01*
X180623833Y-91117147D01*
X180594808Y-91180703D01*
X180553499Y-91211882D01*
X180364836Y-91299856D01*
X180364834Y-91299857D01*
X180183444Y-91426868D01*
X180026868Y-91583444D01*
X179899857Y-91764834D01*
X179899856Y-91764836D01*
X179806279Y-91965513D01*
X179806275Y-91965524D01*
X179748965Y-92179407D01*
X179748964Y-92179414D01*
X179729666Y-92399998D01*
X179729666Y-92400001D01*
X179748964Y-92620585D01*
X179748965Y-92620592D01*
X179806275Y-92834475D01*
X179806279Y-92834486D01*
X179899741Y-93034916D01*
X179899858Y-93035167D01*
X180026868Y-93216555D01*
X180183445Y-93373132D01*
X180364833Y-93500142D01*
X180485572Y-93556443D01*
X180565513Y-93593720D01*
X180565515Y-93593720D01*
X180565520Y-93593723D01*
X180779409Y-93651035D01*
X180936974Y-93664820D01*
X180999998Y-93670334D01*
X181000000Y-93670334D01*
X181000002Y-93670334D01*
X181055276Y-93665498D01*
X181220591Y-93651035D01*
X181434480Y-93593723D01*
X181635167Y-93500142D01*
X181816555Y-93373132D01*
X181973132Y-93216555D01*
X182100142Y-93035167D01*
X182157618Y-92911907D01*
X182203790Y-92859468D01*
X182270983Y-92840316D01*
X182337864Y-92860531D01*
X182382382Y-92911908D01*
X182439738Y-93034911D01*
X182439858Y-93035167D01*
X182566868Y-93216555D01*
X182723445Y-93373132D01*
X182904833Y-93500142D01*
X183025572Y-93556443D01*
X183105513Y-93593720D01*
X183105515Y-93593720D01*
X183105520Y-93593723D01*
X183319409Y-93651035D01*
X183476974Y-93664820D01*
X183539998Y-93670334D01*
X183540000Y-93670334D01*
X183540002Y-93670334D01*
X183595276Y-93665498D01*
X183760591Y-93651035D01*
X183974480Y-93593723D01*
X184175167Y-93500142D01*
X184356555Y-93373132D01*
X184513132Y-93216555D01*
X184640142Y-93035167D01*
X184697618Y-92911907D01*
X184743790Y-92859468D01*
X184810983Y-92840316D01*
X184877864Y-92860531D01*
X184922382Y-92911908D01*
X184979738Y-93034911D01*
X184979858Y-93035167D01*
X185106868Y-93216555D01*
X185263445Y-93373132D01*
X185444833Y-93500142D01*
X185565572Y-93556443D01*
X185645513Y-93593720D01*
X185645515Y-93593720D01*
X185645520Y-93593723D01*
X185859409Y-93651035D01*
X186016974Y-93664820D01*
X186079998Y-93670334D01*
X186080000Y-93670334D01*
X186080002Y-93670334D01*
X186135276Y-93665498D01*
X186300591Y-93651035D01*
X186514480Y-93593723D01*
X186715167Y-93500142D01*
X186896555Y-93373132D01*
X187053132Y-93216555D01*
X187180142Y-93035167D01*
X187237618Y-92911907D01*
X187283790Y-92859468D01*
X187350983Y-92840316D01*
X187417864Y-92860531D01*
X187462382Y-92911908D01*
X187519738Y-93034911D01*
X187519858Y-93035167D01*
X187646868Y-93216555D01*
X187803445Y-93373132D01*
X187984833Y-93500142D01*
X188105572Y-93556443D01*
X188185513Y-93593720D01*
X188185515Y-93593720D01*
X188185520Y-93593723D01*
X188399409Y-93651035D01*
X188556974Y-93664820D01*
X188619998Y-93670334D01*
X188620000Y-93670334D01*
X188620002Y-93670334D01*
X188675276Y-93665498D01*
X188840591Y-93651035D01*
X189054480Y-93593723D01*
X189255167Y-93500142D01*
X189436555Y-93373132D01*
X189593132Y-93216555D01*
X189720142Y-93035167D01*
X189777618Y-92911907D01*
X189823790Y-92859468D01*
X189890983Y-92840316D01*
X189957864Y-92860531D01*
X190002382Y-92911908D01*
X190059738Y-93034911D01*
X190059858Y-93035167D01*
X190186868Y-93216555D01*
X190343445Y-93373132D01*
X190524833Y-93500142D01*
X190645572Y-93556443D01*
X190725513Y-93593720D01*
X190725515Y-93593720D01*
X190725520Y-93593723D01*
X190939409Y-93651035D01*
X191096974Y-93664820D01*
X191159998Y-93670334D01*
X191160000Y-93670334D01*
X191160002Y-93670334D01*
X191215276Y-93665498D01*
X191380591Y-93651035D01*
X191594480Y-93593723D01*
X191795167Y-93500142D01*
X191976555Y-93373132D01*
X192133132Y-93216555D01*
X192260142Y-93035167D01*
X192317618Y-92911907D01*
X192363790Y-92859468D01*
X192430983Y-92840316D01*
X192497864Y-92860531D01*
X192542382Y-92911908D01*
X192599738Y-93034911D01*
X192599858Y-93035167D01*
X192726868Y-93216555D01*
X192883445Y-93373132D01*
X193064833Y-93500142D01*
X193185572Y-93556443D01*
X193265513Y-93593720D01*
X193265515Y-93593720D01*
X193265520Y-93593723D01*
X193479409Y-93651035D01*
X193636974Y-93664820D01*
X193699998Y-93670334D01*
X193700000Y-93670334D01*
X193700002Y-93670334D01*
X193755276Y-93665498D01*
X193920591Y-93651035D01*
X194134480Y-93593723D01*
X194335167Y-93500142D01*
X194516555Y-93373132D01*
X194673132Y-93216555D01*
X194800142Y-93035167D01*
X194857618Y-92911907D01*
X194903790Y-92859468D01*
X194970983Y-92840316D01*
X195037864Y-92860531D01*
X195082382Y-92911908D01*
X195139738Y-93034911D01*
X195139858Y-93035167D01*
X195266868Y-93216555D01*
X195423445Y-93373132D01*
X195604833Y-93500142D01*
X195725572Y-93556443D01*
X195805513Y-93593720D01*
X195805515Y-93593720D01*
X195805520Y-93593723D01*
X196019409Y-93651035D01*
X196176974Y-93664820D01*
X196239998Y-93670334D01*
X196240000Y-93670334D01*
X196240002Y-93670334D01*
X196295276Y-93665498D01*
X196460591Y-93651035D01*
X196674480Y-93593723D01*
X196875167Y-93500142D01*
X197056555Y-93373132D01*
X197213132Y-93216555D01*
X197340142Y-93035167D01*
X197397618Y-92911907D01*
X197443790Y-92859468D01*
X197510983Y-92840316D01*
X197577864Y-92860531D01*
X197622382Y-92911908D01*
X197679738Y-93034911D01*
X197679858Y-93035167D01*
X197806868Y-93216555D01*
X197963445Y-93373132D01*
X198144833Y-93500142D01*
X198265572Y-93556443D01*
X198345513Y-93593720D01*
X198345515Y-93593720D01*
X198345520Y-93593723D01*
X198559409Y-93651035D01*
X198716974Y-93664820D01*
X198779998Y-93670334D01*
X198780000Y-93670334D01*
X198780002Y-93670334D01*
X198835276Y-93665498D01*
X199000591Y-93651035D01*
X199214480Y-93593723D01*
X199415167Y-93500142D01*
X199596555Y-93373132D01*
X199753132Y-93216555D01*
X199880142Y-93035167D01*
X199937618Y-92911907D01*
X199983790Y-92859468D01*
X200050983Y-92840316D01*
X200117864Y-92860531D01*
X200162382Y-92911908D01*
X200219738Y-93034911D01*
X200219858Y-93035167D01*
X200346868Y-93216555D01*
X200503445Y-93373132D01*
X200684833Y-93500142D01*
X200805572Y-93556443D01*
X200885513Y-93593720D01*
X200885515Y-93593720D01*
X200885520Y-93593723D01*
X201099409Y-93651035D01*
X201256974Y-93664820D01*
X201319998Y-93670334D01*
X201320000Y-93670334D01*
X201320002Y-93670334D01*
X201375276Y-93665498D01*
X201540591Y-93651035D01*
X201754480Y-93593723D01*
X201955167Y-93500142D01*
X202136555Y-93373132D01*
X202293132Y-93216555D01*
X202420142Y-93035167D01*
X202477618Y-92911907D01*
X202523790Y-92859468D01*
X202590983Y-92840316D01*
X202657864Y-92860531D01*
X202702382Y-92911908D01*
X202759738Y-93034911D01*
X202759858Y-93035167D01*
X202886868Y-93216555D01*
X203043445Y-93373132D01*
X203224833Y-93500142D01*
X203345572Y-93556443D01*
X203425513Y-93593720D01*
X203425515Y-93593720D01*
X203425520Y-93593723D01*
X203639409Y-93651035D01*
X203796974Y-93664820D01*
X203859998Y-93670334D01*
X203860000Y-93670334D01*
X203860002Y-93670334D01*
X203915276Y-93665498D01*
X204080591Y-93651035D01*
X204294480Y-93593723D01*
X204495167Y-93500142D01*
X204676555Y-93373132D01*
X204833132Y-93216555D01*
X204960142Y-93035167D01*
X205017618Y-92911907D01*
X205063790Y-92859468D01*
X205130983Y-92840316D01*
X205197864Y-92860531D01*
X205242382Y-92911908D01*
X205299738Y-93034911D01*
X205299858Y-93035167D01*
X205426868Y-93216555D01*
X205583445Y-93373132D01*
X205764833Y-93500142D01*
X205885572Y-93556443D01*
X205965513Y-93593720D01*
X205965515Y-93593720D01*
X205965520Y-93593723D01*
X206179409Y-93651035D01*
X206336974Y-93664820D01*
X206399998Y-93670334D01*
X206400000Y-93670334D01*
X206400002Y-93670334D01*
X206455276Y-93665498D01*
X206620591Y-93651035D01*
X206834480Y-93593723D01*
X207035167Y-93500142D01*
X207216555Y-93373132D01*
X207373132Y-93216555D01*
X207500142Y-93035167D01*
X207557895Y-92911312D01*
X207604064Y-92858878D01*
X207671258Y-92839725D01*
X207738139Y-92859940D01*
X207782657Y-92911316D01*
X207840293Y-93034916D01*
X207840295Y-93034920D01*
X207886103Y-93100341D01*
X207886104Y-93100341D01*
X208448871Y-92537574D01*
X208464755Y-92596853D01*
X208531898Y-92713147D01*
X208626853Y-92808102D01*
X208743147Y-92875245D01*
X208802425Y-92891128D01*
X208239657Y-93453894D01*
X208305084Y-93499706D01*
X208505690Y-93593250D01*
X208505699Y-93593254D01*
X208719490Y-93650538D01*
X208719500Y-93650540D01*
X208939999Y-93669832D01*
X208940001Y-93669832D01*
X209160499Y-93650540D01*
X209160509Y-93650538D01*
X209374300Y-93593254D01*
X209374314Y-93593249D01*
X209574911Y-93499709D01*
X209574919Y-93499705D01*
X209640341Y-93453895D01*
X209077574Y-92891128D01*
X209136853Y-92875245D01*
X209253147Y-92808102D01*
X209348102Y-92713147D01*
X209415245Y-92596853D01*
X209431128Y-92537574D01*
X209993895Y-93100341D01*
X210039705Y-93034919D01*
X210039709Y-93034911D01*
X210097342Y-92911317D01*
X210143514Y-92858877D01*
X210210707Y-92839725D01*
X210277588Y-92859940D01*
X210322106Y-92911317D01*
X210379741Y-93034916D01*
X210379858Y-93035167D01*
X210506868Y-93216555D01*
X210663445Y-93373132D01*
X210844833Y-93500142D01*
X210965572Y-93556443D01*
X211045513Y-93593720D01*
X211045515Y-93593720D01*
X211045520Y-93593723D01*
X211259409Y-93651035D01*
X211416974Y-93664820D01*
X211479998Y-93670334D01*
X211480000Y-93670334D01*
X211480002Y-93670334D01*
X211535276Y-93665498D01*
X211700591Y-93651035D01*
X211914480Y-93593723D01*
X212115167Y-93500142D01*
X212296555Y-93373132D01*
X212453132Y-93216555D01*
X212580142Y-93035167D01*
X212637618Y-92911907D01*
X212683790Y-92859468D01*
X212750983Y-92840316D01*
X212817864Y-92860531D01*
X212862382Y-92911908D01*
X212919738Y-93034911D01*
X212919858Y-93035167D01*
X213046868Y-93216555D01*
X213203445Y-93373132D01*
X213384833Y-93500142D01*
X213505572Y-93556443D01*
X213585513Y-93593720D01*
X213585515Y-93593720D01*
X213585520Y-93593723D01*
X213799409Y-93651035D01*
X213956974Y-93664820D01*
X214019998Y-93670334D01*
X214020000Y-93670334D01*
X214020002Y-93670334D01*
X214075276Y-93665498D01*
X214240591Y-93651035D01*
X214454480Y-93593723D01*
X214655167Y-93500142D01*
X214836555Y-93373132D01*
X214993132Y-93216555D01*
X215068928Y-93108307D01*
X215123501Y-93064685D01*
X215193000Y-93057491D01*
X215255355Y-93089013D01*
X215290769Y-93149243D01*
X215294500Y-93179430D01*
X215294500Y-93212868D01*
X215294501Y-93212876D01*
X215300908Y-93272483D01*
X215351202Y-93407328D01*
X215351206Y-93407335D01*
X215437452Y-93522544D01*
X215437455Y-93522547D01*
X215552664Y-93608793D01*
X215552671Y-93608797D01*
X215687517Y-93659091D01*
X215687516Y-93659091D01*
X215694444Y-93659835D01*
X215747127Y-93665500D01*
X217372872Y-93665499D01*
X217432483Y-93659091D01*
X217567331Y-93608796D01*
X217682546Y-93522546D01*
X217768796Y-93407331D01*
X217819091Y-93272483D01*
X217825500Y-93212873D01*
X217825499Y-91587128D01*
X217819091Y-91527517D01*
X217781551Y-91426868D01*
X217768797Y-91392671D01*
X217768793Y-91392664D01*
X217682547Y-91277455D01*
X217682544Y-91277452D01*
X217567335Y-91191206D01*
X217567328Y-91191202D01*
X217432482Y-91140908D01*
X217432483Y-91140908D01*
X217372883Y-91134501D01*
X217372881Y-91134500D01*
X217372873Y-91134500D01*
X217372864Y-91134500D01*
X215747129Y-91134500D01*
X215747123Y-91134501D01*
X215687516Y-91140908D01*
X215552671Y-91191202D01*
X215552664Y-91191206D01*
X215437455Y-91277452D01*
X215437452Y-91277455D01*
X215351206Y-91392664D01*
X215351202Y-91392671D01*
X215300908Y-91527517D01*
X215294896Y-91583441D01*
X215294501Y-91587123D01*
X215294500Y-91587135D01*
X215294500Y-91620564D01*
X215274815Y-91687603D01*
X215222011Y-91733358D01*
X215152853Y-91743302D01*
X215089297Y-91714277D01*
X215068926Y-91691688D01*
X214993137Y-91583452D01*
X214993136Y-91583451D01*
X214993132Y-91583445D01*
X214836555Y-91426868D01*
X214655167Y-91299858D01*
X214655163Y-91299856D01*
X214454486Y-91206279D01*
X214454475Y-91206275D01*
X214240592Y-91148965D01*
X214240585Y-91148964D01*
X214020002Y-91129666D01*
X214019998Y-91129666D01*
X213799414Y-91148964D01*
X213799400Y-91148967D01*
X213725643Y-91168729D01*
X213655793Y-91167065D01*
X213605870Y-91136635D01*
X207607590Y-85138355D01*
X207607588Y-85138352D01*
X207488717Y-85019481D01*
X207488716Y-85019480D01*
X207401904Y-84969360D01*
X207401904Y-84969359D01*
X207401900Y-84969358D01*
X207351785Y-84940423D01*
X207199057Y-84899499D01*
X207040943Y-84899499D01*
X207033347Y-84899499D01*
X207033331Y-84899500D01*
X85561670Y-84899500D01*
X85561654Y-84899499D01*
X85554058Y-84899499D01*
X85395943Y-84899499D01*
X85319579Y-84919961D01*
X85243214Y-84940423D01*
X85243209Y-84940426D01*
X85106290Y-85019475D01*
X85106282Y-85019481D01*
X84437582Y-85688181D01*
X84376259Y-85721666D01*
X84349901Y-85724500D01*
X82599998Y-85724500D01*
X82599981Y-85724501D01*
X82497203Y-85735000D01*
X82497200Y-85735001D01*
X82330668Y-85790185D01*
X82330663Y-85790187D01*
X82181342Y-85882289D01*
X82057289Y-86006342D01*
X81965187Y-86155663D01*
X81965185Y-86155668D01*
X81952591Y-86193676D01*
X81910001Y-86322203D01*
X81910001Y-86322204D01*
X81910000Y-86322204D01*
X81899500Y-86424983D01*
X81899500Y-87325001D01*
X81899501Y-87325019D01*
X81910000Y-87427796D01*
X81910001Y-87427799D01*
X81943137Y-87527795D01*
X81965186Y-87594334D01*
X82057288Y-87743656D01*
X82181344Y-87867712D01*
X82330666Y-87959814D01*
X82497203Y-88014999D01*
X82599991Y-88025500D01*
X85600008Y-88025499D01*
X85702797Y-88014999D01*
X85869334Y-87959814D01*
X86018656Y-87867712D01*
X86142712Y-87743656D01*
X86234814Y-87594334D01*
X86289999Y-87427797D01*
X86300500Y-87325009D01*
X86300499Y-86424992D01*
X86289999Y-86322203D01*
X86270547Y-86263503D01*
X86268146Y-86193676D01*
X86303878Y-86133634D01*
X86366398Y-86102441D01*
X86388254Y-86100500D01*
X86761746Y-86100500D01*
X86828785Y-86120185D01*
X86874540Y-86172989D01*
X86884484Y-86242147D01*
X86879452Y-86263503D01*
X86860001Y-86322200D01*
X86860000Y-86322204D01*
X86849500Y-86424983D01*
X86849500Y-87325001D01*
X86849501Y-87325019D01*
X86860000Y-87427796D01*
X86860001Y-87427799D01*
X86893137Y-87527795D01*
X86915186Y-87594334D01*
X87007288Y-87743656D01*
X87131344Y-87867712D01*
X87280666Y-87959814D01*
X87447203Y-88014999D01*
X87549991Y-88025500D01*
X89299902Y-88025499D01*
X89366941Y-88045184D01*
X89387583Y-88061818D01*
X89515139Y-88189374D01*
X89515149Y-88189385D01*
X89519479Y-88193715D01*
X89519480Y-88193716D01*
X89631284Y-88305520D01*
X89643184Y-88312390D01*
X89718095Y-88355639D01*
X89718097Y-88355641D01*
X89756151Y-88377611D01*
X89768215Y-88384577D01*
X89920943Y-88425501D01*
X89920946Y-88425501D01*
X90086653Y-88425501D01*
X90086669Y-88425500D01*
X142088331Y-88425500D01*
X142088347Y-88425501D01*
X142095943Y-88425501D01*
X142254054Y-88425501D01*
X142254057Y-88425501D01*
X142406785Y-88384577D01*
X142456904Y-88355639D01*
X142531816Y-88312389D01*
X142579925Y-88296559D01*
X142679255Y-88285368D01*
X142849522Y-88225789D01*
X143002262Y-88129816D01*
X143129816Y-88002262D01*
X143225789Y-87849522D01*
X143285368Y-87679255D01*
X143285369Y-87679249D01*
X143295919Y-87585617D01*
X143322985Y-87521203D01*
X143380580Y-87481647D01*
X143419139Y-87475500D01*
X182794903Y-87475500D01*
X182861942Y-87495185D01*
X182882584Y-87511819D01*
X186299838Y-90929073D01*
X186333323Y-90990396D01*
X186328339Y-91060088D01*
X186286467Y-91116021D01*
X186221003Y-91140438D01*
X186201350Y-91140282D01*
X186080002Y-91129666D01*
X186079998Y-91129666D01*
X185859414Y-91148964D01*
X185859400Y-91148967D01*
X185785643Y-91168729D01*
X185715793Y-91167065D01*
X185665870Y-91136635D01*
X184542590Y-90013355D01*
X184542588Y-90013352D01*
X184423717Y-89894481D01*
X184423716Y-89894480D01*
X184336904Y-89844360D01*
X184336904Y-89844359D01*
X184336900Y-89844358D01*
X184286785Y-89815423D01*
X184134057Y-89774499D01*
X183975943Y-89774499D01*
X183968347Y-89774499D01*
X183968331Y-89774500D01*
X77700097Y-89774500D01*
X77633058Y-89754815D01*
X77612416Y-89738181D01*
X75967982Y-88093747D01*
X75934497Y-88032424D01*
X75939481Y-87962732D01*
X75967978Y-87918389D01*
X76042712Y-87843656D01*
X76134814Y-87694334D01*
X76189999Y-87527797D01*
X76200500Y-87425009D01*
X76200499Y-86524992D01*
X76189999Y-86422203D01*
X76134814Y-86255666D01*
X76042712Y-86106344D01*
X75918656Y-85982288D01*
X75769334Y-85890186D01*
X75602797Y-85835001D01*
X75602795Y-85835000D01*
X75500010Y-85824500D01*
X72499998Y-85824500D01*
X72499981Y-85824501D01*
X72397203Y-85835000D01*
X72397200Y-85835001D01*
X72230668Y-85890185D01*
X72230663Y-85890187D01*
X72081342Y-85982289D01*
X71957289Y-86106342D01*
X71865187Y-86255663D01*
X71865186Y-86255666D01*
X71810001Y-86422203D01*
X71810001Y-86422204D01*
X71810000Y-86422204D01*
X71799500Y-86524983D01*
X70150500Y-86524983D01*
X70150500Y-80074500D01*
X70170185Y-80007461D01*
X70222989Y-79961706D01*
X70274500Y-79950500D01*
X229525500Y-79950500D01*
X229592539Y-79970185D01*
G37*
%TD.AperFunction*%
%TD*%
M02*
